<svg width="1736" height="1125" viewBox="0 0 1736 1125" fill="none" xmlns="http://www.w3.org/2000/svg">
<mask id="mask0_2_457" style="mask-type:alpha" maskUnits="userSpaceOnUse" x="4" y="0" width="1728" height="1117">
<rect x="4.5" y="0.5" width="1727" height="1116" fill="#39459B"/>
<rect x="4.5" y="0.5" width="1727" height="1116" stroke="#EF5322"/>
</mask>
<g mask="url(#mask0_2_457)">
<path d="M1809.12 -47C1784 -47 1773.31 -32.915 1760.16 -18.014C1746.7 -2.774 1731.88 13 1704.06 13C1676.24 13 1661.41 -2.774 1647.96 -18.014C1634.81 -32.915 1624.12 -47 1599 -47M1809.12 -23.006C1784 -23 1773.31 -8.918 1760.16 5.983C1746.7 21.226 1731.88 37 1704.06 37C1676.24 37 1661.41 21.226 1647.96 5.983C1634.81 -8.918 1624.12 -23 1599 -23.009M1599.06 0.988001C1624.18 0.991001 1634.81 15.082 1647.96 29.983C1661.41 45.226 1676.24 61 1704.06 61C1731.88 61 1746.7 45.226 1760.16 29.983C1773.31 15.082 1784 1 1809.12 0.994003" stroke="#EF5322"/>
<path d="M131.12 -47C106.001 -47 95.306 -32.915 82.16 -18.014C68.705 -2.774 53.876 13 26.06 13C-1.75601 13 -16.585 -2.774 -30.04 -18.014C-43.186 -32.915 -53.881 -47 -79 -47M131.12 -23.006C106.001 -23 95.306 -8.918 82.16 5.983C68.705 21.226 53.876 37 26.06 37C-1.75601 37 -16.585 21.226 -30.04 5.983C-43.186 -8.918 -53.881 -23 -79 -23.009M-78.94 0.988001C-53.821 0.991001 -43.186 15.082 -30.04 29.983C-16.585 45.226 -1.75601 61 26.06 61C53.876 61 68.705 45.226 82.16 29.983C95.306 15.082 106.001 1 131.12 0.994003" stroke="#EF5322"/>
<path d="M341.12 -47C316.001 -47 305.306 -32.915 292.16 -18.014C278.705 -2.774 263.876 13 236.06 13C208.244 13 193.415 -2.774 179.96 -18.014C166.814 -32.915 156.119 -47 131 -47M341.12 -23.006C316.001 -23 305.306 -8.918 292.16 5.983C278.705 21.226 263.876 37 236.06 37C208.244 37 193.415 21.226 179.96 5.983C166.814 -8.918 156.119 -23 131 -23.009M131.06 0.988001C156.179 0.991001 166.814 15.082 179.96 29.983C193.415 45.226 208.244 61 236.06 61C263.876 61 278.705 45.226 292.16 29.983C305.306 15.082 316.001 1 341.12 0.994003" stroke="#EF5322"/>
<path d="M551.12 -47C526.001 -47 515.306 -32.915 502.16 -18.014C488.705 -2.774 473.876 13 446.06 13C418.244 13 403.415 -2.774 389.96 -18.014C376.814 -32.915 366.119 -47 341 -47M551.12 -23.006C526.001 -23 515.306 -8.918 502.16 5.983C488.705 21.226 473.876 37 446.06 37C418.244 37 403.415 21.226 389.96 5.983C376.814 -8.918 366.119 -23 341 -23.009M341.06 0.988001C366.179 0.991001 376.814 15.082 389.96 29.983C403.415 45.226 418.244 61 446.06 61C473.876 61 488.705 45.226 502.16 29.983C515.306 15.082 526.001 1 551.12 0.994003" stroke="#EF5322"/>
<path d="M761.12 -47C736.001 -47 725.306 -32.915 712.16 -18.014C698.705 -2.774 683.876 13 656.06 13C628.244 13 613.415 -2.774 599.96 -18.014C586.814 -32.915 576.119 -47 551 -47M761.12 -23.006C736.001 -23 725.306 -8.918 712.16 5.983C698.705 21.226 683.876 37 656.06 37C628.244 37 613.415 21.226 599.96 5.983C586.814 -8.918 576.119 -23 551 -23.009M551.06 0.988001C576.179 0.991001 586.814 15.082 599.96 29.983C613.415 45.226 628.244 61 656.06 61C683.876 61 698.705 45.226 712.16 29.983C725.306 15.082 736.001 1 761.12 0.994003" stroke="#EF5322"/>
<path d="M971.12 -47C946.001 -47 935.306 -32.915 922.16 -18.014C908.705 -2.774 893.876 13 866.06 13C838.244 13 823.415 -2.774 809.96 -18.014C796.814 -32.915 786.119 -47 761 -47M971.12 -23.006C946.001 -23 935.306 -8.918 922.16 5.983C908.705 21.226 893.876 37 866.06 37C838.244 37 823.415 21.226 809.96 5.983C796.814 -8.918 786.119 -23 761 -23.009M761.06 0.988001C786.179 0.991001 796.814 15.082 809.96 29.983C823.415 45.226 838.244 61 866.06 61C893.876 61 908.705 45.226 922.16 29.983C935.306 15.082 946.001 1 971.12 0.994003" stroke="#EF5322"/>
<path d="M1181.12 -47C1156 -47 1145.31 -32.915 1132.16 -18.014C1118.7 -2.774 1103.88 13 1076.06 13C1048.24 13 1033.41 -2.774 1019.96 -18.014C1006.81 -32.915 996.119 -47 971 -47M1181.12 -23.006C1156 -23 1145.31 -8.918 1132.16 5.983C1118.7 21.226 1103.88 37 1076.06 37C1048.24 37 1033.41 21.226 1019.96 5.983C1006.81 -8.918 996.119 -23 971 -23.009M971.06 0.988001C996.179 0.991001 1006.81 15.082 1019.96 29.983C1033.41 45.226 1048.24 61 1076.06 61C1103.88 61 1118.7 45.226 1132.16 29.983C1145.31 15.082 1156 1 1181.12 0.994003" stroke="#EF5322"/>
<path d="M1601.12 -47C1576 -47 1565.31 -32.915 1552.16 -18.014C1538.7 -2.774 1523.88 13 1496.06 13C1468.24 13 1453.41 -2.774 1439.96 -18.014C1426.81 -32.915 1416.12 -47 1391 -47M1601.12 -23.006C1576 -23 1565.31 -8.918 1552.16 5.983C1538.7 21.226 1523.88 37 1496.06 37C1468.24 37 1453.41 21.226 1439.96 5.983C1426.81 -8.918 1416.12 -23 1391 -23.009M1391.06 0.988001C1416.18 0.991001 1426.81 15.082 1439.96 29.983C1453.41 45.226 1468.24 61 1496.06 61C1523.88 61 1538.7 45.226 1552.16 29.983C1565.31 15.082 1576 1 1601.12 0.994003" stroke="#EF5322"/>
<path d="M1391.12 -47C1366 -47 1355.31 -32.915 1342.16 -18.014C1328.7 -2.774 1313.88 13 1286.06 13C1258.24 13 1243.41 -2.774 1229.96 -18.014C1216.81 -32.915 1206.12 -47 1181 -47M1391.12 -23.006C1366 -23 1355.31 -8.918 1342.16 5.983C1328.7 21.226 1313.88 37 1286.06 37C1258.24 37 1243.41 21.226 1229.96 5.983C1216.81 -8.918 1206.12 -23 1181 -23.009M1181.06 0.988001C1206.18 0.991001 1216.81 15.082 1229.96 29.983C1243.41 45.226 1258.24 61 1286.06 61C1313.88 61 1328.7 45.226 1342.16 29.983C1355.31 15.082 1366 1 1391.12 0.994003" stroke="#EF5322"/>
<path d="M1810.12 27C1785 27 1774.31 41.085 1761.16 55.986C1747.7 71.226 1732.88 87 1705.06 87C1677.24 87 1662.41 71.226 1648.96 55.986C1635.81 41.085 1625.12 27 1600 27M1810.12 50.994C1785 51 1774.31 65.082 1761.16 79.983C1747.7 95.226 1732.88 111 1705.06 111C1677.24 111 1662.41 95.226 1648.96 79.983C1635.81 65.082 1625.12 51 1600 50.991M1600.06 74.988C1625.18 74.991 1635.81 89.082 1648.96 103.983C1662.41 119.226 1677.24 135 1705.06 135C1732.88 135 1747.7 119.226 1761.16 103.983C1774.31 89.082 1785 75 1810.12 74.994" stroke="#EF5322"/>
<path d="M132.12 27C107.001 27 96.306 41.085 83.16 55.986C69.705 71.226 54.876 87 27.06 87C-0.756007 87 -15.585 71.226 -29.04 55.986C-42.186 41.085 -52.881 27 -78 27M132.12 50.994C107.001 51 96.306 65.082 83.16 79.983C69.705 95.226 54.876 111 27.06 111C-0.756007 111 -15.585 95.226 -29.04 79.983C-42.186 65.082 -52.881 51 -78 50.991M-77.94 74.988C-52.821 74.991 -42.186 89.082 -29.04 103.983C-15.585 119.226 -0.756007 135 27.06 135C54.876 135 69.705 119.226 83.16 103.983C96.306 89.082 107.001 75 132.12 74.994" stroke="#EF5322"/>
<path d="M342.12 27C317.001 27 306.306 41.085 293.16 55.986C279.705 71.226 264.876 87 237.06 87C209.244 87 194.415 71.226 180.96 55.986C167.814 41.085 157.119 27 132 27M342.12 50.994C317.001 51 306.306 65.082 293.16 79.983C279.705 95.226 264.876 111 237.06 111C209.244 111 194.415 95.226 180.96 79.983C167.814 65.082 157.119 51 132 50.991M132.06 74.988C157.179 74.991 167.814 89.082 180.96 103.983C194.415 119.226 209.244 135 237.06 135C264.876 135 279.705 119.226 293.16 103.983C306.306 89.082 317.001 75 342.12 74.994" stroke="#EF5322"/>
<path d="M552.12 27C527.001 27 516.306 41.085 503.16 55.986C489.705 71.226 474.876 87 447.06 87C419.244 87 404.415 71.226 390.96 55.986C377.814 41.085 367.119 27 342 27M552.12 50.994C527.001 51 516.306 65.082 503.16 79.983C489.705 95.226 474.876 111 447.06 111C419.244 111 404.415 95.226 390.96 79.983C377.814 65.082 367.119 51 342 50.991M342.06 74.988C367.179 74.991 377.814 89.082 390.96 103.983C404.415 119.226 419.244 135 447.06 135C474.876 135 489.705 119.226 503.16 103.983C516.306 89.082 527.001 75 552.12 74.994" stroke="#EF5322"/>
<path d="M762.12 27C737.001 27 726.306 41.085 713.16 55.986C699.705 71.226 684.876 87 657.06 87C629.244 87 614.415 71.226 600.96 55.986C587.814 41.085 577.119 27 552 27M762.12 50.994C737.001 51 726.306 65.082 713.16 79.983C699.705 95.226 684.876 111 657.06 111C629.244 111 614.415 95.226 600.96 79.983C587.814 65.082 577.119 51 552 50.991M552.06 74.988C577.179 74.991 587.814 89.082 600.96 103.983C614.415 119.226 629.244 135 657.06 135C684.876 135 699.705 119.226 713.16 103.983C726.306 89.082 737.001 75 762.12 74.994" stroke="#EF5322"/>
<path d="M972.12 27C947.001 27 936.306 41.085 923.16 55.986C909.705 71.226 894.876 87 867.06 87C839.244 87 824.415 71.226 810.96 55.986C797.814 41.085 787.119 27 762 27M972.12 50.994C947.001 51 936.306 65.082 923.16 79.983C909.705 95.226 894.876 111 867.06 111C839.244 111 824.415 95.226 810.96 79.983C797.814 65.082 787.119 51 762 50.991M762.06 74.988C787.179 74.991 797.814 89.082 810.96 103.983C824.415 119.226 839.244 135 867.06 135C894.876 135 909.705 119.226 923.16 103.983C936.306 89.082 947.001 75 972.12 74.994" stroke="#EF5322"/>
<path d="M1182.12 27C1157 27 1146.31 41.085 1133.16 55.986C1119.7 71.226 1104.88 87 1077.06 87C1049.24 87 1034.41 71.226 1020.96 55.986C1007.81 41.085 997.119 27 972 27M1182.12 50.994C1157 51 1146.31 65.082 1133.16 79.983C1119.7 95.226 1104.88 111 1077.06 111C1049.24 111 1034.41 95.226 1020.96 79.983C1007.81 65.082 997.119 51 972 50.991M972.06 74.988C997.179 74.991 1007.81 89.082 1020.96 103.983C1034.41 119.226 1049.24 135 1077.06 135C1104.88 135 1119.7 119.226 1133.16 103.983C1146.31 89.082 1157 75 1182.12 74.994" stroke="#EF5322"/>
<path d="M1602.12 27C1577 27 1566.31 41.085 1553.16 55.986C1539.7 71.226 1524.88 87 1497.06 87C1469.24 87 1454.41 71.226 1440.96 55.986C1427.81 41.085 1417.12 27 1392 27M1602.12 50.994C1577 51 1566.31 65.082 1553.16 79.983C1539.7 95.226 1524.88 111 1497.06 111C1469.24 111 1454.41 95.226 1440.96 79.983C1427.81 65.082 1417.12 51 1392 50.991M1392.06 74.988C1417.18 74.991 1427.81 89.082 1440.96 103.983C1454.41 119.226 1469.24 135 1497.06 135C1524.88 135 1539.7 119.226 1553.16 103.983C1566.31 89.082 1577 75 1602.12 74.994" stroke="#EF5322"/>
<path d="M1392.12 27C1367 27 1356.31 41.085 1343.16 55.986C1329.7 71.226 1314.88 87 1287.06 87C1259.24 87 1244.41 71.226 1230.96 55.986C1217.81 41.085 1207.12 27 1182 27M1392.12 50.994C1367 51 1356.31 65.082 1343.16 79.983C1329.7 95.226 1314.88 111 1287.06 111C1259.24 111 1244.41 95.226 1230.96 79.983C1217.81 65.082 1207.12 51 1182 50.991M1182.06 74.988C1207.18 74.991 1217.81 89.082 1230.96 103.983C1244.41 119.226 1259.24 135 1287.06 135C1314.88 135 1329.7 119.226 1343.16 103.983C1356.31 89.082 1367 75 1392.12 74.994" stroke="#EF5322"/>
<path d="M1808.12 100C1783 100 1772.31 114.085 1759.16 128.986C1745.7 144.226 1730.88 160 1703.06 160C1675.24 160 1660.41 144.226 1646.96 128.986C1633.81 114.085 1623.12 100 1598 100M1808.12 123.994C1783 124 1772.31 138.082 1759.16 152.983C1745.7 168.226 1730.88 184 1703.06 184C1675.24 184 1660.41 168.226 1646.96 152.983C1633.81 138.082 1623.12 124 1598 123.991M1598.06 147.988C1623.18 147.991 1633.81 162.082 1646.96 176.983C1660.41 192.226 1675.24 208 1703.06 208C1730.88 208 1745.7 192.226 1759.16 176.983C1772.31 162.082 1783 148 1808.12 147.994" stroke="#EF5322"/>
<path d="M130.12 100C105.001 100 94.306 114.085 81.16 128.986C67.705 144.226 52.876 160 25.06 160C-2.75601 160 -17.585 144.226 -31.04 128.986C-44.186 114.085 -54.881 100 -80 100M130.12 123.994C105.001 124 94.306 138.082 81.16 152.983C67.705 168.226 52.876 184 25.06 184C-2.75601 184 -17.585 168.226 -31.04 152.983C-44.186 138.082 -54.881 124 -80 123.991M-79.94 147.988C-54.821 147.991 -44.186 162.082 -31.04 176.983C-17.585 192.226 -2.75601 208 25.06 208C52.876 208 67.705 192.226 81.16 176.983C94.306 162.082 105.001 148 130.12 147.994" stroke="#EF5322"/>
<path d="M340.12 100C315.001 100 304.306 114.085 291.16 128.986C277.705 144.226 262.876 160 235.06 160C207.244 160 192.415 144.226 178.96 128.986C165.814 114.085 155.119 100 130 100M340.12 123.994C315.001 124 304.306 138.082 291.16 152.983C277.705 168.226 262.876 184 235.06 184C207.244 184 192.415 168.226 178.96 152.983C165.814 138.082 155.119 124 130 123.991M130.06 147.988C155.179 147.991 165.814 162.082 178.96 176.983C192.415 192.226 207.244 208 235.06 208C262.876 208 277.705 192.226 291.16 176.983C304.306 162.082 315.001 148 340.12 147.994" stroke="#EF5322"/>
<path d="M550.12 100C525.001 100 514.306 114.085 501.16 128.986C487.705 144.226 472.876 160 445.06 160C417.244 160 402.415 144.226 388.96 128.986C375.814 114.085 365.119 100 340 100M550.12 123.994C525.001 124 514.306 138.082 501.16 152.983C487.705 168.226 472.876 184 445.06 184C417.244 184 402.415 168.226 388.96 152.983C375.814 138.082 365.119 124 340 123.991M340.06 147.988C365.179 147.991 375.814 162.082 388.96 176.983C402.415 192.226 417.244 208 445.06 208C472.876 208 487.705 192.226 501.16 176.983C514.306 162.082 525.001 148 550.12 147.994" stroke="#EF5322"/>
<path d="M760.12 100C735.001 100 724.306 114.085 711.16 128.986C697.705 144.226 682.876 160 655.06 160C627.244 160 612.415 144.226 598.96 128.986C585.814 114.085 575.119 100 550 100M760.12 123.994C735.001 124 724.306 138.082 711.16 152.983C697.705 168.226 682.876 184 655.06 184C627.244 184 612.415 168.226 598.96 152.983C585.814 138.082 575.119 124 550 123.991M550.06 147.988C575.179 147.991 585.814 162.082 598.96 176.983C612.415 192.226 627.244 208 655.06 208C682.876 208 697.705 192.226 711.16 176.983C724.306 162.082 735.001 148 760.12 147.994" stroke="#EF5322"/>
<path d="M970.12 100C945.001 100 934.306 114.085 921.16 128.986C907.705 144.226 892.876 160 865.06 160C837.244 160 822.415 144.226 808.96 128.986C795.814 114.085 785.119 100 760 100M970.12 123.994C945.001 124 934.306 138.082 921.16 152.983C907.705 168.226 892.876 184 865.06 184C837.244 184 822.415 168.226 808.96 152.983C795.814 138.082 785.119 124 760 123.991M760.06 147.988C785.179 147.991 795.814 162.082 808.96 176.983C822.415 192.226 837.244 208 865.06 208C892.876 208 907.705 192.226 921.16 176.983C934.306 162.082 945.001 148 970.12 147.994" stroke="#EF5322"/>
<path d="M1180.12 100C1155 100 1144.31 114.085 1131.16 128.986C1117.7 144.226 1102.88 160 1075.06 160C1047.24 160 1032.41 144.226 1018.96 128.986C1005.81 114.085 995.119 100 970 100M1180.12 123.994C1155 124 1144.31 138.082 1131.16 152.983C1117.7 168.226 1102.88 184 1075.06 184C1047.24 184 1032.41 168.226 1018.96 152.983C1005.81 138.082 995.119 124 970 123.991M970.06 147.988C995.179 147.991 1005.81 162.082 1018.96 176.983C1032.41 192.226 1047.24 208 1075.06 208C1102.88 208 1117.7 192.226 1131.16 176.983C1144.31 162.082 1155 148 1180.12 147.994" stroke="#EF5322"/>
<path d="M1600.12 100C1575 100 1564.31 114.085 1551.16 128.986C1537.7 144.226 1522.88 160 1495.06 160C1467.24 160 1452.41 144.226 1438.96 128.986C1425.81 114.085 1415.12 100 1390 100M1600.12 123.994C1575 124 1564.31 138.082 1551.16 152.983C1537.7 168.226 1522.88 184 1495.06 184C1467.24 184 1452.41 168.226 1438.96 152.983C1425.81 138.082 1415.12 124 1390 123.991M1390.06 147.988C1415.18 147.991 1425.81 162.082 1438.96 176.983C1452.41 192.226 1467.24 208 1495.06 208C1522.88 208 1537.7 192.226 1551.16 176.983C1564.31 162.082 1575 148 1600.12 147.994" stroke="#EF5322"/>
<path d="M1390.12 100C1365 100 1354.31 114.085 1341.16 128.986C1327.7 144.226 1312.88 160 1285.06 160C1257.24 160 1242.41 144.226 1228.96 128.986C1215.81 114.085 1205.12 100 1180 100M1390.12 123.994C1365 124 1354.31 138.082 1341.16 152.983C1327.7 168.226 1312.88 184 1285.06 184C1257.24 184 1242.41 168.226 1228.96 152.983C1215.81 138.082 1205.12 124 1180 123.991M1180.06 147.988C1205.18 147.991 1215.81 162.082 1228.96 176.983C1242.41 192.226 1257.24 208 1285.06 208C1312.88 208 1327.7 192.226 1341.16 176.983C1354.31 162.082 1365 148 1390.12 147.994" stroke="#EF5322"/>
<path d="M1809.12 174C1784 174 1773.31 188.085 1760.16 202.986C1746.7 218.226 1731.88 234 1704.06 234C1676.24 234 1661.41 218.226 1647.96 202.986C1634.81 188.085 1624.12 174 1599 174M1809.12 197.994C1784 198 1773.31 212.082 1760.16 226.983C1746.7 242.226 1731.88 258 1704.06 258C1676.24 258 1661.41 242.226 1647.96 226.983C1634.81 212.082 1624.12 198 1599 197.991M1599.06 221.988C1624.18 221.991 1634.81 236.082 1647.96 250.983C1661.41 266.226 1676.24 282 1704.06 282C1731.88 282 1746.7 266.226 1760.16 250.983C1773.31 236.082 1784 222 1809.12 221.994" stroke="#EF5322"/>
<path d="M131.12 174C106.001 174 95.306 188.085 82.16 202.986C68.705 218.226 53.876 234 26.06 234C-1.75601 234 -16.585 218.226 -30.04 202.986C-43.186 188.085 -53.881 174 -79 174M131.12 197.994C106.001 198 95.306 212.082 82.16 226.983C68.705 242.226 53.876 258 26.06 258C-1.75601 258 -16.585 242.226 -30.04 226.983C-43.186 212.082 -53.881 198 -79 197.991M-78.94 221.988C-53.821 221.991 -43.186 236.082 -30.04 250.983C-16.585 266.226 -1.75601 282 26.06 282C53.876 282 68.705 266.226 82.16 250.983C95.306 236.082 106.001 222 131.12 221.994" stroke="#EF5322"/>
<path d="M341.12 174C316.001 174 305.306 188.085 292.16 202.986C278.705 218.226 263.876 234 236.06 234C208.244 234 193.415 218.226 179.96 202.986C166.814 188.085 156.119 174 131 174M341.12 197.994C316.001 198 305.306 212.082 292.16 226.983C278.705 242.226 263.876 258 236.06 258C208.244 258 193.415 242.226 179.96 226.983C166.814 212.082 156.119 198 131 197.991M131.06 221.988C156.179 221.991 166.814 236.082 179.96 250.983C193.415 266.226 208.244 282 236.06 282C263.876 282 278.705 266.226 292.16 250.983C305.306 236.082 316.001 222 341.12 221.994" stroke="#EF5322"/>
<path d="M551.12 174C526.001 174 515.306 188.085 502.16 202.986C488.705 218.226 473.876 234 446.06 234C418.244 234 403.415 218.226 389.96 202.986C376.814 188.085 366.119 174 341 174M551.12 197.994C526.001 198 515.306 212.082 502.16 226.983C488.705 242.226 473.876 258 446.06 258C418.244 258 403.415 242.226 389.96 226.983C376.814 212.082 366.119 198 341 197.991M341.06 221.988C366.179 221.991 376.814 236.082 389.96 250.983C403.415 266.226 418.244 282 446.06 282C473.876 282 488.705 266.226 502.16 250.983C515.306 236.082 526.001 222 551.12 221.994" stroke="#EF5322"/>
<path d="M761.12 174C736.001 174 725.306 188.085 712.16 202.986C698.705 218.226 683.876 234 656.06 234C628.244 234 613.415 218.226 599.96 202.986C586.814 188.085 576.119 174 551 174M761.12 197.994C736.001 198 725.306 212.082 712.16 226.983C698.705 242.226 683.876 258 656.06 258C628.244 258 613.415 242.226 599.96 226.983C586.814 212.082 576.119 198 551 197.991M551.06 221.988C576.179 221.991 586.814 236.082 599.96 250.983C613.415 266.226 628.244 282 656.06 282C683.876 282 698.705 266.226 712.16 250.983C725.306 236.082 736.001 222 761.12 221.994" stroke="#EF5322"/>
<path d="M971.12 174C946.001 174 935.306 188.085 922.16 202.986C908.705 218.226 893.876 234 866.06 234C838.244 234 823.415 218.226 809.96 202.986C796.814 188.085 786.119 174 761 174M971.12 197.994C946.001 198 935.306 212.082 922.16 226.983C908.705 242.226 893.876 258 866.06 258C838.244 258 823.415 242.226 809.96 226.983C796.814 212.082 786.119 198 761 197.991M761.06 221.988C786.179 221.991 796.814 236.082 809.96 250.983C823.415 266.226 838.244 282 866.06 282C893.876 282 908.705 266.226 922.16 250.983C935.306 236.082 946.001 222 971.12 221.994" stroke="#EF5322"/>
<path d="M1181.12 174C1156 174 1145.31 188.085 1132.16 202.986C1118.7 218.226 1103.88 234 1076.06 234C1048.24 234 1033.41 218.226 1019.96 202.986C1006.81 188.085 996.119 174 971 174M1181.12 197.994C1156 198 1145.31 212.082 1132.16 226.983C1118.7 242.226 1103.88 258 1076.06 258C1048.24 258 1033.41 242.226 1019.96 226.983C1006.81 212.082 996.119 198 971 197.991M971.06 221.988C996.179 221.991 1006.81 236.082 1019.96 250.983C1033.41 266.226 1048.24 282 1076.06 282C1103.88 282 1118.7 266.226 1132.16 250.983C1145.31 236.082 1156 222 1181.12 221.994" stroke="#EF5322"/>
<path d="M1601.12 174C1576 174 1565.31 188.085 1552.16 202.986C1538.7 218.226 1523.88 234 1496.06 234C1468.24 234 1453.41 218.226 1439.96 202.986C1426.81 188.085 1416.12 174 1391 174M1601.12 197.994C1576 198 1565.31 212.082 1552.16 226.983C1538.7 242.226 1523.88 258 1496.06 258C1468.24 258 1453.41 242.226 1439.96 226.983C1426.81 212.082 1416.12 198 1391 197.991M1391.06 221.988C1416.18 221.991 1426.81 236.082 1439.96 250.983C1453.41 266.226 1468.24 282 1496.06 282C1523.88 282 1538.7 266.226 1552.16 250.983C1565.31 236.082 1576 222 1601.12 221.994" stroke="#EF5322"/>
<path d="M1391.12 174C1366 174 1355.31 188.085 1342.16 202.986C1328.7 218.226 1313.88 234 1286.06 234C1258.24 234 1243.41 218.226 1229.96 202.986C1216.81 188.085 1206.12 174 1181 174M1391.12 197.994C1366 198 1355.31 212.082 1342.16 226.983C1328.7 242.226 1313.88 258 1286.06 258C1258.24 258 1243.41 242.226 1229.96 226.983C1216.81 212.082 1206.12 198 1181 197.991M1181.06 221.988C1206.18 221.991 1216.81 236.082 1229.96 250.983C1243.41 266.226 1258.24 282 1286.06 282C1313.88 282 1328.7 266.226 1342.16 250.983C1355.31 236.082 1366 222 1391.12 221.994" stroke="#EF5322"/>
<path d="M1815.12 835C1790 835 1779.31 849.085 1766.16 863.986C1752.7 879.226 1737.88 895 1710.06 895C1682.24 895 1667.41 879.226 1653.96 863.986C1640.81 849.085 1630.12 835 1605 835M1815.12 858.994C1790 859 1779.31 873.082 1766.16 887.983C1752.7 903.226 1737.88 919 1710.06 919C1682.24 919 1667.41 903.226 1653.96 887.983C1640.81 873.082 1630.12 859 1605 858.991M1605.06 882.988C1630.18 882.991 1640.81 897.082 1653.96 911.983C1667.41 927.226 1682.24 943 1710.06 943C1737.88 943 1752.7 927.226 1766.16 911.983C1779.31 897.082 1790 883 1815.12 882.994" stroke="#EF5322"/>
<path d="M137.12 835C112.001 835 101.306 849.085 88.16 863.986C74.705 879.226 59.876 895 32.06 895C4.24399 895 -10.585 879.226 -24.04 863.986C-37.186 849.085 -47.881 835 -73 835M137.12 858.994C112.001 859 101.306 873.082 88.16 887.983C74.705 903.226 59.876 919 32.06 919C4.24399 919 -10.585 903.226 -24.04 887.983C-37.186 873.082 -47.881 859 -73 858.991M-72.94 882.988C-47.821 882.991 -37.186 897.082 -24.04 911.983C-10.585 927.226 4.24399 943 32.06 943C59.876 943 74.705 927.226 88.16 911.983C101.306 897.082 112.001 883 137.12 882.994" stroke="#EF5322"/>
<path d="M347.12 835C322.001 835 311.306 849.085 298.16 863.986C284.705 879.226 269.876 895 242.06 895C214.244 895 199.415 879.226 185.96 863.986C172.814 849.085 162.119 835 137 835M347.12 858.994C322.001 859 311.306 873.082 298.16 887.983C284.705 903.226 269.876 919 242.06 919C214.244 919 199.415 903.226 185.96 887.983C172.814 873.082 162.119 859 137 858.991M137.06 882.988C162.179 882.991 172.814 897.082 185.96 911.983C199.415 927.226 214.244 943 242.06 943C269.876 943 284.705 927.226 298.16 911.983C311.306 897.082 322.001 883 347.12 882.994" stroke="#EF5322"/>
<path d="M557.12 835C532.001 835 521.306 849.085 508.16 863.986C494.705 879.226 479.876 895 452.06 895C424.244 895 409.415 879.226 395.96 863.986C382.814 849.085 372.119 835 347 835M557.12 858.994C532.001 859 521.306 873.082 508.16 887.983C494.705 903.226 479.876 919 452.06 919C424.244 919 409.415 903.226 395.96 887.983C382.814 873.082 372.119 859 347 858.991M347.06 882.988C372.179 882.991 382.814 897.082 395.96 911.983C409.415 927.226 424.244 943 452.06 943C479.876 943 494.705 927.226 508.16 911.983C521.306 897.082 532.001 883 557.12 882.994" stroke="#EF5322"/>
<path d="M767.12 835C742.001 835 731.306 849.085 718.16 863.986C704.705 879.226 689.876 895 662.06 895C634.244 895 619.415 879.226 605.96 863.986C592.814 849.085 582.119 835 557 835M767.12 858.994C742.001 859 731.306 873.082 718.16 887.983C704.705 903.226 689.876 919 662.06 919C634.244 919 619.415 903.226 605.96 887.983C592.814 873.082 582.119 859 557 858.991M557.06 882.988C582.179 882.991 592.814 897.082 605.96 911.983C619.415 927.226 634.244 943 662.06 943C689.876 943 704.705 927.226 718.16 911.983C731.306 897.082 742.001 883 767.12 882.994" stroke="#EF5322"/>
<path d="M977.12 835C952.001 835 941.306 849.085 928.16 863.986C914.705 879.226 899.876 895 872.06 895C844.244 895 829.415 879.226 815.96 863.986C802.814 849.085 792.119 835 767 835M977.12 858.994C952.001 859 941.306 873.082 928.16 887.983C914.705 903.226 899.876 919 872.06 919C844.244 919 829.415 903.226 815.96 887.983C802.814 873.082 792.119 859 767 858.991M767.06 882.988C792.179 882.991 802.814 897.082 815.96 911.983C829.415 927.226 844.244 943 872.06 943C899.876 943 914.705 927.226 928.16 911.983C941.306 897.082 952.001 883 977.12 882.994" stroke="#EF5322"/>
<path d="M1187.12 835C1162 835 1151.31 849.085 1138.16 863.986C1124.7 879.226 1109.88 895 1082.06 895C1054.24 895 1039.41 879.226 1025.96 863.986C1012.81 849.085 1002.12 835 977 835M1187.12 858.994C1162 859 1151.31 873.082 1138.16 887.983C1124.7 903.226 1109.88 919 1082.06 919C1054.24 919 1039.41 903.226 1025.96 887.983C1012.81 873.082 1002.12 859 977 858.991M977.06 882.988C1002.18 882.991 1012.81 897.082 1025.96 911.983C1039.41 927.226 1054.24 943 1082.06 943C1109.88 943 1124.7 927.226 1138.16 911.983C1151.31 897.082 1162 883 1187.12 882.994" stroke="#EF5322"/>
<path d="M1607.12 835C1582 835 1571.31 849.085 1558.16 863.986C1544.7 879.226 1529.88 895 1502.06 895C1474.24 895 1459.41 879.226 1445.96 863.986C1432.81 849.085 1422.12 835 1397 835M1607.12 858.994C1582 859 1571.31 873.082 1558.16 887.983C1544.7 903.226 1529.88 919 1502.06 919C1474.24 919 1459.41 903.226 1445.96 887.983C1432.81 873.082 1422.12 859 1397 858.991M1397.06 882.988C1422.18 882.991 1432.81 897.082 1445.96 911.983C1459.41 927.226 1474.24 943 1502.06 943C1529.88 943 1544.7 927.226 1558.16 911.983C1571.31 897.082 1582 883 1607.12 882.994" stroke="#EF5322"/>
<path d="M1397.12 835C1372 835 1361.31 849.085 1348.16 863.986C1334.7 879.226 1319.88 895 1292.06 895C1264.24 895 1249.41 879.226 1235.96 863.986C1222.81 849.085 1212.12 835 1187 835M1397.12 858.994C1372 859 1361.31 873.082 1348.16 887.983C1334.7 903.226 1319.88 919 1292.06 919C1264.24 919 1249.41 903.226 1235.96 887.983C1222.81 873.082 1212.12 859 1187 858.991M1187.06 882.988C1212.18 882.991 1222.81 897.082 1235.96 911.983C1249.41 927.226 1264.24 943 1292.06 943C1319.88 943 1334.7 927.226 1348.16 911.983C1361.31 897.082 1372 883 1397.12 882.994" stroke="#EF5322"/>
<path d="M1816.12 909C1791 909 1780.31 923.085 1767.16 937.986C1753.7 953.226 1738.88 969 1711.06 969C1683.24 969 1668.41 953.226 1654.96 937.986C1641.81 923.085 1631.12 909 1606 909M1816.12 932.994C1791 933 1780.31 947.082 1767.16 961.983C1753.7 977.226 1738.88 993 1711.06 993C1683.24 993 1668.41 977.226 1654.96 961.983C1641.81 947.082 1631.12 933 1606 932.991M1606.06 956.988C1631.18 956.991 1641.81 971.082 1654.96 985.983C1668.41 1001.23 1683.24 1017 1711.06 1017C1738.88 1017 1753.7 1001.23 1767.16 985.983C1780.31 971.082 1791 957 1816.12 956.994" stroke="#EF5322"/>
<path d="M138.12 909C113.001 909 102.306 923.085 89.16 937.986C75.705 953.226 60.876 969 33.06 969C5.24399 969 -9.58501 953.226 -23.04 937.986C-36.186 923.085 -46.881 909 -72 909M138.12 932.994C113.001 933 102.306 947.082 89.16 961.983C75.705 977.226 60.876 993 33.06 993C5.24399 993 -9.58501 977.226 -23.04 961.983C-36.186 947.082 -46.881 933 -72 932.991M-71.94 956.988C-46.821 956.991 -36.186 971.082 -23.04 985.983C-9.58501 1001.23 5.24399 1017 33.06 1017C60.876 1017 75.705 1001.23 89.16 985.983C102.306 971.082 113.001 957 138.12 956.994" stroke="#EF5322"/>
<path d="M348.12 909C323.001 909 312.306 923.085 299.16 937.986C285.705 953.226 270.876 969 243.06 969C215.244 969 200.415 953.226 186.96 937.986C173.814 923.085 163.119 909 138 909M348.12 932.994C323.001 933 312.306 947.082 299.16 961.983C285.705 977.226 270.876 993 243.06 993C215.244 993 200.415 977.226 186.96 961.983C173.814 947.082 163.119 933 138 932.991M138.06 956.988C163.179 956.991 173.814 971.082 186.96 985.983C200.415 1001.23 215.244 1017 243.06 1017C270.876 1017 285.705 1001.23 299.16 985.983C312.306 971.082 323.001 957 348.12 956.994" stroke="#EF5322"/>
<path d="M558.12 909C533.001 909 522.306 923.085 509.16 937.986C495.705 953.226 480.876 969 453.06 969C425.244 969 410.415 953.226 396.96 937.986C383.814 923.085 373.119 909 348 909M558.12 932.994C533.001 933 522.306 947.082 509.16 961.983C495.705 977.226 480.876 993 453.06 993C425.244 993 410.415 977.226 396.96 961.983C383.814 947.082 373.119 933 348 932.991M348.06 956.988C373.179 956.991 383.814 971.082 396.96 985.983C410.415 1001.23 425.244 1017 453.06 1017C480.876 1017 495.705 1001.23 509.16 985.983C522.306 971.082 533.001 957 558.12 956.994" stroke="#EF5322"/>
<path d="M768.12 909C743.001 909 732.306 923.085 719.16 937.986C705.705 953.226 690.876 969 663.06 969C635.244 969 620.415 953.226 606.96 937.986C593.814 923.085 583.119 909 558 909M768.12 932.994C743.001 933 732.306 947.082 719.16 961.983C705.705 977.226 690.876 993 663.06 993C635.244 993 620.415 977.226 606.96 961.983C593.814 947.082 583.119 933 558 932.991M558.06 956.988C583.179 956.991 593.814 971.082 606.96 985.983C620.415 1001.23 635.244 1017 663.06 1017C690.876 1017 705.705 1001.23 719.16 985.983C732.306 971.082 743.001 957 768.12 956.994" stroke="#EF5322"/>
<path d="M978.12 909C953.001 909 942.306 923.085 929.16 937.986C915.705 953.226 900.876 969 873.06 969C845.244 969 830.415 953.226 816.96 937.986C803.814 923.085 793.119 909 768 909M978.12 932.994C953.001 933 942.306 947.082 929.16 961.983C915.705 977.226 900.876 993 873.06 993C845.244 993 830.415 977.226 816.96 961.983C803.814 947.082 793.119 933 768 932.991M768.06 956.988C793.179 956.991 803.814 971.082 816.96 985.983C830.415 1001.23 845.244 1017 873.06 1017C900.876 1017 915.705 1001.23 929.16 985.983C942.306 971.082 953.001 957 978.12 956.994" stroke="#EF5322"/>
<path d="M1188.12 909C1163 909 1152.31 923.085 1139.16 937.986C1125.7 953.226 1110.88 969 1083.06 969C1055.24 969 1040.41 953.226 1026.96 937.986C1013.81 923.085 1003.12 909 978 909M1188.12 932.994C1163 933 1152.31 947.082 1139.16 961.983C1125.7 977.226 1110.88 993 1083.06 993C1055.24 993 1040.41 977.226 1026.96 961.983C1013.81 947.082 1003.12 933 978 932.991M978.06 956.988C1003.18 956.991 1013.81 971.082 1026.96 985.983C1040.41 1001.23 1055.24 1017 1083.06 1017C1110.88 1017 1125.7 1001.23 1139.16 985.983C1152.31 971.082 1163 957 1188.12 956.994" stroke="#EF5322"/>
<path d="M1608.12 909C1583 909 1572.31 923.085 1559.16 937.986C1545.7 953.226 1530.88 969 1503.06 969C1475.24 969 1460.41 953.226 1446.96 937.986C1433.81 923.085 1423.12 909 1398 909M1608.12 932.994C1583 933 1572.31 947.082 1559.16 961.983C1545.7 977.226 1530.88 993 1503.06 993C1475.24 993 1460.41 977.226 1446.96 961.983C1433.81 947.082 1423.12 933 1398 932.991M1398.06 956.988C1423.18 956.991 1433.81 971.082 1446.96 985.983C1460.41 1001.23 1475.24 1017 1503.06 1017C1530.88 1017 1545.7 1001.23 1559.16 985.983C1572.31 971.082 1583 957 1608.12 956.994" stroke="#EF5322"/>
<path d="M1398.12 909C1373 909 1362.31 923.085 1349.16 937.986C1335.7 953.226 1320.88 969 1293.06 969C1265.24 969 1250.41 953.226 1236.96 937.986C1223.81 923.085 1213.12 909 1188 909M1398.12 932.994C1373 933 1362.31 947.082 1349.16 961.983C1335.7 977.226 1320.88 993 1293.06 993C1265.24 993 1250.41 977.226 1236.96 961.983C1223.81 947.082 1213.12 933 1188 932.991M1188.06 956.988C1213.18 956.991 1223.81 971.082 1236.96 985.983C1250.41 1001.23 1265.24 1017 1293.06 1017C1320.88 1017 1335.7 1001.23 1349.16 985.983C1362.31 971.082 1373 957 1398.12 956.994" stroke="#EF5322"/>
<path d="M1814.12 982C1789 982 1778.31 996.085 1765.16 1010.99C1751.7 1026.23 1736.88 1042 1709.06 1042C1681.24 1042 1666.41 1026.23 1652.96 1010.99C1639.81 996.085 1629.12 982 1604 982M1814.12 1005.99C1789 1006 1778.31 1020.08 1765.16 1034.98C1751.7 1050.23 1736.88 1066 1709.06 1066C1681.24 1066 1666.41 1050.23 1652.96 1034.98C1639.81 1020.08 1629.12 1006 1604 1005.99M1604.06 1029.99C1629.18 1029.99 1639.81 1044.08 1652.96 1058.98C1666.41 1074.23 1681.24 1090 1709.06 1090C1736.88 1090 1751.7 1074.23 1765.16 1058.98C1778.31 1044.08 1789 1030 1814.12 1029.99" stroke="#EF5322"/>
<path d="M136.12 982C111.001 982 100.306 996.085 87.16 1010.99C73.705 1026.23 58.876 1042 31.06 1042C3.24399 1042 -11.585 1026.23 -25.04 1010.99C-38.186 996.085 -48.881 982 -74 982M136.12 1005.99C111.001 1006 100.306 1020.08 87.16 1034.98C73.705 1050.23 58.876 1066 31.06 1066C3.24399 1066 -11.585 1050.23 -25.04 1034.98C-38.186 1020.08 -48.881 1006 -74 1005.99M-73.94 1029.99C-48.821 1029.99 -38.186 1044.08 -25.04 1058.98C-11.585 1074.23 3.24399 1090 31.06 1090C58.876 1090 73.705 1074.23 87.16 1058.98C100.306 1044.08 111.001 1030 136.12 1029.99" stroke="#EF5322"/>
<path d="M346.12 982C321.001 982 310.306 996.085 297.16 1010.99C283.705 1026.23 268.876 1042 241.06 1042C213.244 1042 198.415 1026.23 184.96 1010.99C171.814 996.085 161.119 982 136 982M346.12 1005.99C321.001 1006 310.306 1020.08 297.16 1034.98C283.705 1050.23 268.876 1066 241.06 1066C213.244 1066 198.415 1050.23 184.96 1034.98C171.814 1020.08 161.119 1006 136 1005.99M136.06 1029.99C161.179 1029.99 171.814 1044.08 184.96 1058.98C198.415 1074.23 213.244 1090 241.06 1090C268.876 1090 283.705 1074.23 297.16 1058.98C310.306 1044.08 321.001 1030 346.12 1029.99" stroke="#EF5322"/>
<path d="M556.12 982C531.001 982 520.306 996.085 507.16 1010.99C493.705 1026.23 478.876 1042 451.06 1042C423.244 1042 408.415 1026.23 394.96 1010.99C381.814 996.085 371.119 982 346 982M556.12 1005.99C531.001 1006 520.306 1020.08 507.16 1034.98C493.705 1050.23 478.876 1066 451.06 1066C423.244 1066 408.415 1050.23 394.96 1034.98C381.814 1020.08 371.119 1006 346 1005.99M346.06 1029.99C371.179 1029.99 381.814 1044.08 394.96 1058.98C408.415 1074.23 423.244 1090 451.06 1090C478.876 1090 493.705 1074.23 507.16 1058.98C520.306 1044.08 531.001 1030 556.12 1029.99" stroke="#EF5322"/>
<path d="M766.12 982C741.001 982 730.306 996.085 717.16 1010.99C703.705 1026.23 688.876 1042 661.06 1042C633.244 1042 618.415 1026.23 604.96 1010.99C591.814 996.085 581.119 982 556 982M766.12 1005.99C741.001 1006 730.306 1020.08 717.16 1034.98C703.705 1050.23 688.876 1066 661.06 1066C633.244 1066 618.415 1050.23 604.96 1034.98C591.814 1020.08 581.119 1006 556 1005.99M556.06 1029.99C581.179 1029.99 591.814 1044.08 604.96 1058.98C618.415 1074.23 633.244 1090 661.06 1090C688.876 1090 703.705 1074.23 717.16 1058.98C730.306 1044.08 741.001 1030 766.12 1029.99" stroke="#EF5322"/>
<path d="M976.12 982C951.001 982 940.306 996.085 927.16 1010.99C913.705 1026.23 898.876 1042 871.06 1042C843.244 1042 828.415 1026.23 814.96 1010.99C801.814 996.085 791.119 982 766 982M976.12 1005.99C951.001 1006 940.306 1020.08 927.16 1034.98C913.705 1050.23 898.876 1066 871.06 1066C843.244 1066 828.415 1050.23 814.96 1034.98C801.814 1020.08 791.119 1006 766 1005.99M766.06 1029.99C791.179 1029.99 801.814 1044.08 814.96 1058.98C828.415 1074.23 843.244 1090 871.06 1090C898.876 1090 913.705 1074.23 927.16 1058.98C940.306 1044.08 951.001 1030 976.12 1029.99" stroke="#EF5322"/>
<path d="M1186.12 982C1161 982 1150.31 996.085 1137.16 1010.99C1123.7 1026.23 1108.88 1042 1081.06 1042C1053.24 1042 1038.41 1026.23 1024.96 1010.99C1011.81 996.085 1001.12 982 976 982M1186.12 1005.99C1161 1006 1150.31 1020.08 1137.16 1034.98C1123.7 1050.23 1108.88 1066 1081.06 1066C1053.24 1066 1038.41 1050.23 1024.96 1034.98C1011.81 1020.08 1001.12 1006 976 1005.99M976.06 1029.99C1001.18 1029.99 1011.81 1044.08 1024.96 1058.98C1038.41 1074.23 1053.24 1090 1081.06 1090C1108.88 1090 1123.7 1074.23 1137.16 1058.98C1150.31 1044.08 1161 1030 1186.12 1029.99" stroke="#EF5322"/>
<path d="M1606.12 982C1581 982 1570.31 996.085 1557.16 1010.99C1543.7 1026.23 1528.88 1042 1501.06 1042C1473.24 1042 1458.41 1026.23 1444.96 1010.99C1431.81 996.085 1421.12 982 1396 982M1606.12 1005.99C1581 1006 1570.31 1020.08 1557.16 1034.98C1543.7 1050.23 1528.88 1066 1501.06 1066C1473.24 1066 1458.41 1050.23 1444.96 1034.98C1431.81 1020.08 1421.12 1006 1396 1005.99M1396.06 1029.99C1421.18 1029.99 1431.81 1044.08 1444.96 1058.98C1458.41 1074.23 1473.24 1090 1501.06 1090C1528.88 1090 1543.7 1074.23 1557.16 1058.98C1570.31 1044.08 1581 1030 1606.12 1029.99" stroke="#EF5322"/>
<path d="M1396.12 982C1371 982 1360.31 996.085 1347.16 1010.99C1333.7 1026.23 1318.88 1042 1291.06 1042C1263.24 1042 1248.41 1026.23 1234.96 1010.99C1221.81 996.085 1211.12 982 1186 982M1396.12 1005.99C1371 1006 1360.31 1020.08 1347.16 1034.98C1333.7 1050.23 1318.88 1066 1291.06 1066C1263.24 1066 1248.41 1050.23 1234.96 1034.98C1221.81 1020.08 1211.12 1006 1186 1005.99M1186.06 1029.99C1211.18 1029.99 1221.81 1044.08 1234.96 1058.98C1248.41 1074.23 1263.24 1090 1291.06 1090C1318.88 1090 1333.7 1074.23 1347.16 1058.98C1360.31 1044.08 1371 1030 1396.12 1029.99" stroke="#EF5322"/>
<path d="M1815.12 1056C1790 1056 1779.31 1070.08 1766.16 1084.99C1752.7 1100.23 1737.88 1116 1710.06 1116C1682.24 1116 1667.41 1100.23 1653.96 1084.99C1640.81 1070.08 1630.12 1056 1605 1056M1815.12 1079.99C1790 1080 1779.31 1094.08 1766.16 1108.98C1752.7 1124.23 1737.88 1140 1710.06 1140C1682.24 1140 1667.41 1124.23 1653.96 1108.98C1640.81 1094.08 1630.12 1080 1605 1079.99M1605.06 1103.99C1630.18 1103.99 1640.81 1118.08 1653.96 1132.98C1667.41 1148.23 1682.24 1164 1710.06 1164C1737.88 1164 1752.7 1148.23 1766.16 1132.98C1779.31 1118.08 1790 1104 1815.12 1103.99" stroke="#EF5322"/>
<path d="M137.12 1056C112.001 1056 101.306 1070.08 88.16 1084.99C74.705 1100.23 59.876 1116 32.06 1116C4.24399 1116 -10.585 1100.23 -24.04 1084.99C-37.186 1070.08 -47.881 1056 -73 1056M137.12 1079.99C112.001 1080 101.306 1094.08 88.16 1108.98C74.705 1124.23 59.876 1140 32.06 1140C4.24399 1140 -10.585 1124.23 -24.04 1108.98C-37.186 1094.08 -47.881 1080 -73 1079.99M-72.94 1103.99C-47.821 1103.99 -37.186 1118.08 -24.04 1132.98C-10.585 1148.23 4.24399 1164 32.06 1164C59.876 1164 74.705 1148.23 88.16 1132.98C101.306 1118.08 112.001 1104 137.12 1103.99" stroke="#EF5322"/>
<path d="M347.12 1056C322.001 1056 311.306 1070.08 298.16 1084.99C284.705 1100.23 269.876 1116 242.06 1116C214.244 1116 199.415 1100.23 185.96 1084.99C172.814 1070.08 162.119 1056 137 1056M347.12 1079.99C322.001 1080 311.306 1094.08 298.16 1108.98C284.705 1124.23 269.876 1140 242.06 1140C214.244 1140 199.415 1124.23 185.96 1108.98C172.814 1094.08 162.119 1080 137 1079.99M137.06 1103.99C162.179 1103.99 172.814 1118.08 185.96 1132.98C199.415 1148.23 214.244 1164 242.06 1164C269.876 1164 284.705 1148.23 298.16 1132.98C311.306 1118.08 322.001 1104 347.12 1103.99" stroke="#EF5322"/>
<path d="M557.12 1056C532.001 1056 521.306 1070.08 508.16 1084.99C494.705 1100.23 479.876 1116 452.06 1116C424.244 1116 409.415 1100.23 395.96 1084.99C382.814 1070.08 372.119 1056 347 1056M557.12 1079.99C532.001 1080 521.306 1094.08 508.16 1108.98C494.705 1124.23 479.876 1140 452.06 1140C424.244 1140 409.415 1124.23 395.96 1108.98C382.814 1094.08 372.119 1080 347 1079.99M347.06 1103.99C372.179 1103.99 382.814 1118.08 395.96 1132.98C409.415 1148.23 424.244 1164 452.06 1164C479.876 1164 494.705 1148.23 508.16 1132.98C521.306 1118.08 532.001 1104 557.12 1103.99" stroke="#EF5322"/>
<path d="M767.12 1056C742.001 1056 731.306 1070.08 718.16 1084.99C704.705 1100.23 689.876 1116 662.06 1116C634.244 1116 619.415 1100.23 605.96 1084.99C592.814 1070.08 582.119 1056 557 1056M767.12 1079.99C742.001 1080 731.306 1094.08 718.16 1108.98C704.705 1124.23 689.876 1140 662.06 1140C634.244 1140 619.415 1124.23 605.96 1108.98C592.814 1094.08 582.119 1080 557 1079.99M557.06 1103.99C582.179 1103.99 592.814 1118.08 605.96 1132.98C619.415 1148.23 634.244 1164 662.06 1164C689.876 1164 704.705 1148.23 718.16 1132.98C731.306 1118.08 742.001 1104 767.12 1103.99" stroke="#EF5322"/>
<path d="M977.12 1056C952.001 1056 941.306 1070.08 928.16 1084.99C914.705 1100.23 899.876 1116 872.06 1116C844.244 1116 829.415 1100.23 815.96 1084.99C802.814 1070.08 792.119 1056 767 1056M977.12 1079.99C952.001 1080 941.306 1094.08 928.16 1108.98C914.705 1124.23 899.876 1140 872.06 1140C844.244 1140 829.415 1124.23 815.96 1108.98C802.814 1094.08 792.119 1080 767 1079.99M767.06 1103.99C792.179 1103.99 802.814 1118.08 815.96 1132.98C829.415 1148.23 844.244 1164 872.06 1164C899.876 1164 914.705 1148.23 928.16 1132.98C941.306 1118.08 952.001 1104 977.12 1103.99" stroke="#EF5322"/>
<path d="M1187.12 1056C1162 1056 1151.31 1070.08 1138.16 1084.99C1124.7 1100.23 1109.88 1116 1082.06 1116C1054.24 1116 1039.41 1100.23 1025.96 1084.99C1012.81 1070.08 1002.12 1056 977 1056M1187.12 1079.99C1162 1080 1151.31 1094.08 1138.16 1108.98C1124.7 1124.23 1109.88 1140 1082.06 1140C1054.24 1140 1039.41 1124.23 1025.96 1108.98C1012.81 1094.08 1002.12 1080 977 1079.99M977.06 1103.99C1002.18 1103.99 1012.81 1118.08 1025.96 1132.98C1039.41 1148.23 1054.24 1164 1082.06 1164C1109.88 1164 1124.7 1148.23 1138.16 1132.98C1151.31 1118.08 1162 1104 1187.12 1103.99" stroke="#EF5322"/>
<path d="M1607.12 1056C1582 1056 1571.31 1070.08 1558.16 1084.99C1544.7 1100.23 1529.88 1116 1502.06 1116C1474.24 1116 1459.41 1100.23 1445.96 1084.99C1432.81 1070.08 1422.12 1056 1397 1056M1607.12 1079.99C1582 1080 1571.31 1094.08 1558.16 1108.98C1544.7 1124.23 1529.88 1140 1502.06 1140C1474.24 1140 1459.41 1124.23 1445.96 1108.98C1432.81 1094.08 1422.12 1080 1397 1079.99M1397.06 1103.99C1422.18 1103.99 1432.81 1118.08 1445.96 1132.98C1459.41 1148.23 1474.24 1164 1502.06 1164C1529.88 1164 1544.7 1148.23 1558.16 1132.98C1571.31 1118.08 1582 1104 1607.12 1103.99" stroke="#EF5322"/>
<path d="M1397.12 1056C1372 1056 1361.31 1070.08 1348.16 1084.99C1334.7 1100.23 1319.88 1116 1292.06 1116C1264.24 1116 1249.41 1100.23 1235.96 1084.99C1222.81 1070.08 1212.12 1056 1187 1056M1397.12 1079.99C1372 1080 1361.31 1094.08 1348.16 1108.98C1334.7 1124.23 1319.88 1140 1292.06 1140C1264.24 1140 1249.41 1124.23 1235.96 1108.98C1222.81 1094.08 1212.12 1080 1187 1079.99M1187.06 1103.99C1212.18 1103.99 1222.81 1118.08 1235.96 1132.98C1249.41 1148.23 1264.24 1164 1292.06 1164C1319.88 1164 1334.7 1148.23 1348.16 1132.98C1361.31 1118.08 1372 1104 1397.12 1103.99" stroke="#EF5322"/>
<path d="M1813.12 541C1788 541 1777.31 555.085 1764.16 569.986C1750.7 585.226 1735.88 601 1708.06 601C1680.24 601 1665.41 585.226 1651.96 569.986C1638.81 555.085 1628.12 541 1603 541M1813.12 564.994C1788 565 1777.31 579.082 1764.16 593.983C1750.7 609.226 1735.88 625 1708.06 625C1680.24 625 1665.41 609.226 1651.96 593.983C1638.81 579.082 1628.12 565 1603 564.991M1603.06 588.988C1628.18 588.991 1638.81 603.082 1651.96 617.983C1665.41 633.226 1680.24 649 1708.06 649C1735.88 649 1750.7 633.226 1764.16 617.983C1777.31 603.082 1788 589 1813.12 588.994" stroke="#EF5322"/>
<path d="M135.12 541C110.001 541 99.306 555.085 86.16 569.986C72.705 585.226 57.876 601 30.06 601C2.24399 601 -12.585 585.226 -26.04 569.986C-39.186 555.085 -49.881 541 -75 541M135.12 564.994C110.001 565 99.306 579.082 86.16 593.983C72.705 609.226 57.876 625 30.06 625C2.24399 625 -12.585 609.226 -26.04 593.983C-39.186 579.082 -49.881 565 -75 564.991M-74.94 588.988C-49.821 588.991 -39.186 603.082 -26.04 617.983C-12.585 633.226 2.24399 649 30.06 649C57.876 649 72.705 633.226 86.16 617.983C99.306 603.082 110.001 589 135.12 588.994" stroke="#EF5322"/>
<path d="M345.12 541C320.001 541 309.306 555.085 296.16 569.986C282.705 585.226 267.876 601 240.06 601C212.244 601 197.415 585.226 183.96 569.986C170.814 555.085 160.119 541 135 541M345.12 564.994C320.001 565 309.306 579.082 296.16 593.983C282.705 609.226 267.876 625 240.06 625C212.244 625 197.415 609.226 183.96 593.983C170.814 579.082 160.119 565 135 564.991M135.06 588.988C160.179 588.991 170.814 603.082 183.96 617.983C197.415 633.226 212.244 649 240.06 649C267.876 649 282.705 633.226 296.16 617.983C309.306 603.082 320.001 589 345.12 588.994" stroke="#EF5322"/>
<path d="M555.12 541C530.001 541 519.306 555.085 506.16 569.986C492.705 585.226 477.876 601 450.06 601C422.244 601 407.415 585.226 393.96 569.986C380.814 555.085 370.119 541 345 541M555.12 564.994C530.001 565 519.306 579.082 506.16 593.983C492.705 609.226 477.876 625 450.06 625C422.244 625 407.415 609.226 393.96 593.983C380.814 579.082 370.119 565 345 564.991M345.06 588.988C370.179 588.991 380.814 603.082 393.96 617.983C407.415 633.226 422.244 649 450.06 649C477.876 649 492.705 633.226 506.16 617.983C519.306 603.082 530.001 589 555.12 588.994" stroke="#EF5322"/>
<path d="M765.12 541C740.001 541 729.306 555.085 716.16 569.986C702.705 585.226 687.876 601 660.06 601C632.244 601 617.415 585.226 603.96 569.986C590.814 555.085 580.119 541 555 541M765.12 564.994C740.001 565 729.306 579.082 716.16 593.983C702.705 609.226 687.876 625 660.06 625C632.244 625 617.415 609.226 603.96 593.983C590.814 579.082 580.119 565 555 564.991M555.06 588.988C580.179 588.991 590.814 603.082 603.96 617.983C617.415 633.226 632.244 649 660.06 649C687.876 649 702.705 633.226 716.16 617.983C729.306 603.082 740.001 589 765.12 588.994" stroke="#EF5322"/>
<path d="M975.12 541C950.001 541 939.306 555.085 926.16 569.986C912.705 585.226 897.876 601 870.06 601C842.244 601 827.415 585.226 813.96 569.986C800.814 555.085 790.119 541 765 541M975.12 564.994C950.001 565 939.306 579.082 926.16 593.983C912.705 609.226 897.876 625 870.06 625C842.244 625 827.415 609.226 813.96 593.983C800.814 579.082 790.119 565 765 564.991M765.06 588.988C790.179 588.991 800.814 603.082 813.96 617.983C827.415 633.226 842.244 649 870.06 649C897.876 649 912.705 633.226 926.16 617.983C939.306 603.082 950.001 589 975.12 588.994" stroke="#EF5322"/>
<path d="M1185.12 541C1160 541 1149.31 555.085 1136.16 569.986C1122.7 585.226 1107.88 601 1080.06 601C1052.24 601 1037.41 585.226 1023.96 569.986C1010.81 555.085 1000.12 541 975 541M1185.12 564.994C1160 565 1149.31 579.082 1136.16 593.983C1122.7 609.226 1107.88 625 1080.06 625C1052.24 625 1037.41 609.226 1023.96 593.983C1010.81 579.082 1000.12 565 975 564.991M975.06 588.988C1000.18 588.991 1010.81 603.082 1023.96 617.983C1037.41 633.226 1052.24 649 1080.06 649C1107.88 649 1122.7 633.226 1136.16 617.983C1149.31 603.082 1160 589 1185.12 588.994" stroke="#EF5322"/>
<path d="M1605.12 541C1580 541 1569.31 555.085 1556.16 569.986C1542.7 585.226 1527.88 601 1500.06 601C1472.24 601 1457.41 585.226 1443.96 569.986C1430.81 555.085 1420.12 541 1395 541M1605.12 564.994C1580 565 1569.31 579.082 1556.16 593.983C1542.7 609.226 1527.88 625 1500.06 625C1472.24 625 1457.41 609.226 1443.96 593.983C1430.81 579.082 1420.12 565 1395 564.991M1395.06 588.988C1420.18 588.991 1430.81 603.082 1443.96 617.983C1457.41 633.226 1472.24 649 1500.06 649C1527.88 649 1542.7 633.226 1556.16 617.983C1569.31 603.082 1580 589 1605.12 588.994" stroke="#EF5322"/>
<path d="M1395.12 541C1370 541 1359.31 555.085 1346.16 569.986C1332.7 585.226 1317.88 601 1290.06 601C1262.24 601 1247.41 585.226 1233.96 569.986C1220.81 555.085 1210.12 541 1185 541M1395.12 564.994C1370 565 1359.31 579.082 1346.16 593.983C1332.7 609.226 1317.88 625 1290.06 625C1262.24 625 1247.41 609.226 1233.96 593.983C1220.81 579.082 1210.12 565 1185 564.991M1185.06 588.988C1210.18 588.991 1220.81 603.082 1233.96 617.983C1247.41 633.226 1262.24 649 1290.06 649C1317.88 649 1332.7 633.226 1346.16 617.983C1359.31 603.082 1370 589 1395.12 588.994" stroke="#EF5322"/>
<path d="M1814.12 615C1789 615 1778.31 629.085 1765.16 643.986C1751.7 659.226 1736.88 675 1709.06 675C1681.24 675 1666.41 659.226 1652.96 643.986C1639.81 629.085 1629.12 615 1604 615M1814.12 638.994C1789 639 1778.31 653.082 1765.16 667.983C1751.7 683.226 1736.88 699 1709.06 699C1681.24 699 1666.41 683.226 1652.96 667.983C1639.81 653.082 1629.12 639 1604 638.991M1604.06 662.988C1629.18 662.991 1639.81 677.082 1652.96 691.983C1666.41 707.226 1681.24 723 1709.06 723C1736.88 723 1751.7 707.226 1765.16 691.983C1778.31 677.082 1789 663 1814.12 662.994" stroke="#EF5322"/>
<path d="M136.12 615C111.001 615 100.306 629.085 87.16 643.986C73.705 659.226 58.876 675 31.06 675C3.24399 675 -11.585 659.226 -25.04 643.986C-38.186 629.085 -48.881 615 -74 615M136.12 638.994C111.001 639 100.306 653.082 87.16 667.983C73.705 683.226 58.876 699 31.06 699C3.24399 699 -11.585 683.226 -25.04 667.983C-38.186 653.082 -48.881 639 -74 638.991M-73.94 662.988C-48.821 662.991 -38.186 677.082 -25.04 691.983C-11.585 707.226 3.24399 723 31.06 723C58.876 723 73.705 707.226 87.16 691.983C100.306 677.082 111.001 663 136.12 662.994" stroke="#EF5322"/>
<path d="M346.12 615C321.001 615 310.306 629.085 297.16 643.986C283.705 659.226 268.876 675 241.06 675C213.244 675 198.415 659.226 184.96 643.986C171.814 629.085 161.119 615 136 615M346.12 638.994C321.001 639 310.306 653.082 297.16 667.983C283.705 683.226 268.876 699 241.06 699C213.244 699 198.415 683.226 184.96 667.983C171.814 653.082 161.119 639 136 638.991M136.06 662.988C161.179 662.991 171.814 677.082 184.96 691.983C198.415 707.226 213.244 723 241.06 723C268.876 723 283.705 707.226 297.16 691.983C310.306 677.082 321.001 663 346.12 662.994" stroke="#EF5322"/>
<path d="M556.12 615C531.001 615 520.306 629.085 507.16 643.986C493.705 659.226 478.876 675 451.06 675C423.244 675 408.415 659.226 394.96 643.986C381.814 629.085 371.119 615 346 615M556.12 638.994C531.001 639 520.306 653.082 507.16 667.983C493.705 683.226 478.876 699 451.06 699C423.244 699 408.415 683.226 394.96 667.983C381.814 653.082 371.119 639 346 638.991M346.06 662.988C371.179 662.991 381.814 677.082 394.96 691.983C408.415 707.226 423.244 723 451.06 723C478.876 723 493.705 707.226 507.16 691.983C520.306 677.082 531.001 663 556.12 662.994" stroke="#EF5322"/>
<path d="M766.12 615C741.001 615 730.306 629.085 717.16 643.986C703.705 659.226 688.876 675 661.06 675C633.244 675 618.415 659.226 604.96 643.986C591.814 629.085 581.119 615 556 615M766.12 638.994C741.001 639 730.306 653.082 717.16 667.983C703.705 683.226 688.876 699 661.06 699C633.244 699 618.415 683.226 604.96 667.983C591.814 653.082 581.119 639 556 638.991M556.06 662.988C581.179 662.991 591.814 677.082 604.96 691.983C618.415 707.226 633.244 723 661.06 723C688.876 723 703.705 707.226 717.16 691.983C730.306 677.082 741.001 663 766.12 662.994" stroke="#EF5322"/>
<path d="M976.12 615C951.001 615 940.306 629.085 927.16 643.986C913.705 659.226 898.876 675 871.06 675C843.244 675 828.415 659.226 814.96 643.986C801.814 629.085 791.119 615 766 615M976.12 638.994C951.001 639 940.306 653.082 927.16 667.983C913.705 683.226 898.876 699 871.06 699C843.244 699 828.415 683.226 814.96 667.983C801.814 653.082 791.119 639 766 638.991M766.06 662.988C791.179 662.991 801.814 677.082 814.96 691.983C828.415 707.226 843.244 723 871.06 723C898.876 723 913.705 707.226 927.16 691.983C940.306 677.082 951.001 663 976.12 662.994" stroke="#EF5322"/>
<path d="M1186.12 615C1161 615 1150.31 629.085 1137.16 643.986C1123.7 659.226 1108.88 675 1081.06 675C1053.24 675 1038.41 659.226 1024.96 643.986C1011.81 629.085 1001.12 615 976 615M1186.12 638.994C1161 639 1150.31 653.082 1137.16 667.983C1123.7 683.226 1108.88 699 1081.06 699C1053.24 699 1038.41 683.226 1024.96 667.983C1011.81 653.082 1001.12 639 976 638.991M976.06 662.988C1001.18 662.991 1011.81 677.082 1024.96 691.983C1038.41 707.226 1053.24 723 1081.06 723C1108.88 723 1123.7 707.226 1137.16 691.983C1150.31 677.082 1161 663 1186.12 662.994" stroke="#EF5322"/>
<path d="M1606.12 615C1581 615 1570.31 629.085 1557.16 643.986C1543.7 659.226 1528.88 675 1501.06 675C1473.24 675 1458.41 659.226 1444.96 643.986C1431.81 629.085 1421.12 615 1396 615M1606.12 638.994C1581 639 1570.31 653.082 1557.16 667.983C1543.7 683.226 1528.88 699 1501.06 699C1473.24 699 1458.41 683.226 1444.96 667.983C1431.81 653.082 1421.12 639 1396 638.991M1396.06 662.988C1421.18 662.991 1431.81 677.082 1444.96 691.983C1458.41 707.226 1473.24 723 1501.06 723C1528.88 723 1543.7 707.226 1557.16 691.983C1570.31 677.082 1581 663 1606.12 662.994" stroke="#EF5322"/>
<path d="M1396.12 615C1371 615 1360.31 629.085 1347.16 643.986C1333.7 659.226 1318.88 675 1291.06 675C1263.24 675 1248.41 659.226 1234.96 643.986C1221.81 629.085 1211.12 615 1186 615M1396.12 638.994C1371 639 1360.31 653.082 1347.16 667.983C1333.7 683.226 1318.88 699 1291.06 699C1263.24 699 1248.41 683.226 1234.96 667.983C1221.81 653.082 1211.12 639 1186 638.991M1186.06 662.988C1211.18 662.991 1221.81 677.082 1234.96 691.983C1248.41 707.226 1263.24 723 1291.06 723C1318.88 723 1333.7 707.226 1347.16 691.983C1360.31 677.082 1371 663 1396.12 662.994" stroke="#EF5322"/>
<path d="M1812.12 688C1787 688 1776.31 702.085 1763.16 716.986C1749.7 732.226 1734.88 748 1707.06 748C1679.24 748 1664.41 732.226 1650.96 716.986C1637.81 702.085 1627.12 688 1602 688M1812.12 711.994C1787 712 1776.31 726.082 1763.16 740.983C1749.7 756.226 1734.88 772 1707.06 772C1679.24 772 1664.41 756.226 1650.96 740.983C1637.81 726.082 1627.12 712 1602 711.991M1602.06 735.988C1627.18 735.991 1637.81 750.082 1650.96 764.983C1664.41 780.226 1679.24 796 1707.06 796C1734.88 796 1749.7 780.226 1763.16 764.983C1776.31 750.082 1787 736 1812.12 735.994" stroke="#EF5322"/>
<path d="M134.12 688C109.001 688 98.306 702.085 85.16 716.986C71.705 732.226 56.876 748 29.06 748C1.24399 748 -13.585 732.226 -27.04 716.986C-40.186 702.085 -50.881 688 -76 688M134.12 711.994C109.001 712 98.306 726.082 85.16 740.983C71.705 756.226 56.876 772 29.06 772C1.24399 772 -13.585 756.226 -27.04 740.983C-40.186 726.082 -50.881 712 -76 711.991M-75.94 735.988C-50.821 735.991 -40.186 750.082 -27.04 764.983C-13.585 780.226 1.24399 796 29.06 796C56.876 796 71.705 780.226 85.16 764.983C98.306 750.082 109.001 736 134.12 735.994" stroke="#EF5322"/>
<path d="M344.12 688C319.001 688 308.306 702.085 295.16 716.986C281.705 732.226 266.876 748 239.06 748C211.244 748 196.415 732.226 182.96 716.986C169.814 702.085 159.119 688 134 688M344.12 711.994C319.001 712 308.306 726.082 295.16 740.983C281.705 756.226 266.876 772 239.06 772C211.244 772 196.415 756.226 182.96 740.983C169.814 726.082 159.119 712 134 711.991M134.06 735.988C159.179 735.991 169.814 750.082 182.96 764.983C196.415 780.226 211.244 796 239.06 796C266.876 796 281.705 780.226 295.16 764.983C308.306 750.082 319.001 736 344.12 735.994" stroke="#EF5322"/>
<path d="M554.12 688C529.001 688 518.306 702.085 505.16 716.986C491.705 732.226 476.876 748 449.06 748C421.244 748 406.415 732.226 392.96 716.986C379.814 702.085 369.119 688 344 688M554.12 711.994C529.001 712 518.306 726.082 505.16 740.983C491.705 756.226 476.876 772 449.06 772C421.244 772 406.415 756.226 392.96 740.983C379.814 726.082 369.119 712 344 711.991M344.06 735.988C369.179 735.991 379.814 750.082 392.96 764.983C406.415 780.226 421.244 796 449.06 796C476.876 796 491.705 780.226 505.16 764.983C518.306 750.082 529.001 736 554.12 735.994" stroke="#EF5322"/>
<path d="M764.12 688C739.001 688 728.306 702.085 715.16 716.986C701.705 732.226 686.876 748 659.06 748C631.244 748 616.415 732.226 602.96 716.986C589.814 702.085 579.119 688 554 688M764.12 711.994C739.001 712 728.306 726.082 715.16 740.983C701.705 756.226 686.876 772 659.06 772C631.244 772 616.415 756.226 602.96 740.983C589.814 726.082 579.119 712 554 711.991M554.06 735.988C579.179 735.991 589.814 750.082 602.96 764.983C616.415 780.226 631.244 796 659.06 796C686.876 796 701.705 780.226 715.16 764.983C728.306 750.082 739.001 736 764.12 735.994" stroke="#EF5322"/>
<path d="M974.12 688C949.001 688 938.306 702.085 925.16 716.986C911.705 732.226 896.876 748 869.06 748C841.244 748 826.415 732.226 812.96 716.986C799.814 702.085 789.119 688 764 688M974.12 711.994C949.001 712 938.306 726.082 925.16 740.983C911.705 756.226 896.876 772 869.06 772C841.244 772 826.415 756.226 812.96 740.983C799.814 726.082 789.119 712 764 711.991M764.06 735.988C789.179 735.991 799.814 750.082 812.96 764.983C826.415 780.226 841.244 796 869.06 796C896.876 796 911.705 780.226 925.16 764.983C938.306 750.082 949.001 736 974.12 735.994" stroke="#EF5322"/>
<path d="M1184.12 688C1159 688 1148.31 702.085 1135.16 716.986C1121.7 732.226 1106.88 748 1079.06 748C1051.24 748 1036.41 732.226 1022.96 716.986C1009.81 702.085 999.119 688 974 688M1184.12 711.994C1159 712 1148.31 726.082 1135.16 740.983C1121.7 756.226 1106.88 772 1079.06 772C1051.24 772 1036.41 756.226 1022.96 740.983C1009.81 726.082 999.119 712 974 711.991M974.06 735.988C999.179 735.991 1009.81 750.082 1022.96 764.983C1036.41 780.226 1051.24 796 1079.06 796C1106.88 796 1121.7 780.226 1135.16 764.983C1148.31 750.082 1159 736 1184.12 735.994" stroke="#EF5322"/>
<path d="M1604.12 688C1579 688 1568.31 702.085 1555.16 716.986C1541.7 732.226 1526.88 748 1499.06 748C1471.24 748 1456.41 732.226 1442.96 716.986C1429.81 702.085 1419.12 688 1394 688M1604.12 711.994C1579 712 1568.31 726.082 1555.16 740.983C1541.7 756.226 1526.88 772 1499.06 772C1471.24 772 1456.41 756.226 1442.96 740.983C1429.81 726.082 1419.12 712 1394 711.991M1394.06 735.988C1419.18 735.991 1429.81 750.082 1442.96 764.983C1456.41 780.226 1471.24 796 1499.06 796C1526.88 796 1541.7 780.226 1555.16 764.983C1568.31 750.082 1579 736 1604.12 735.994" stroke="#EF5322"/>
<path d="M1394.12 688C1369 688 1358.31 702.085 1345.16 716.986C1331.7 732.226 1316.88 748 1289.06 748C1261.24 748 1246.41 732.226 1232.96 716.986C1219.81 702.085 1209.12 688 1184 688M1394.12 711.994C1369 712 1358.31 726.082 1345.16 740.983C1331.7 756.226 1316.88 772 1289.06 772C1261.24 772 1246.41 756.226 1232.96 740.983C1219.81 726.082 1209.12 712 1184 711.991M1184.06 735.988C1209.18 735.991 1219.81 750.082 1232.96 764.983C1246.41 780.226 1261.24 796 1289.06 796C1316.88 796 1331.7 780.226 1345.16 764.983C1358.31 750.082 1369 736 1394.12 735.994" stroke="#EF5322"/>
<path d="M1813.12 762C1788 762 1777.31 776.085 1764.16 790.986C1750.7 806.226 1735.88 822 1708.06 822C1680.24 822 1665.41 806.226 1651.96 790.986C1638.81 776.085 1628.12 762 1603 762M1813.12 785.994C1788 786 1777.31 800.082 1764.16 814.983C1750.7 830.226 1735.88 846 1708.06 846C1680.24 846 1665.41 830.226 1651.96 814.983C1638.81 800.082 1628.12 786 1603 785.991M1603.06 809.988C1628.18 809.991 1638.81 824.082 1651.96 838.983C1665.41 854.226 1680.24 870 1708.06 870C1735.88 870 1750.7 854.226 1764.16 838.983C1777.31 824.082 1788 810 1813.12 809.994" stroke="#EF5322"/>
<path d="M135.12 762C110.001 762 99.306 776.085 86.16 790.986C72.705 806.226 57.876 822 30.06 822C2.24399 822 -12.585 806.226 -26.04 790.986C-39.186 776.085 -49.881 762 -75 762M135.12 785.994C110.001 786 99.306 800.082 86.16 814.983C72.705 830.226 57.876 846 30.06 846C2.24399 846 -12.585 830.226 -26.04 814.983C-39.186 800.082 -49.881 786 -75 785.991M-74.94 809.988C-49.821 809.991 -39.186 824.082 -26.04 838.983C-12.585 854.226 2.24399 870 30.06 870C57.876 870 72.705 854.226 86.16 838.983C99.306 824.082 110.001 810 135.12 809.994" stroke="#EF5322"/>
<path d="M345.12 762C320.001 762 309.306 776.085 296.16 790.986C282.705 806.226 267.876 822 240.06 822C212.244 822 197.415 806.226 183.96 790.986C170.814 776.085 160.119 762 135 762M345.12 785.994C320.001 786 309.306 800.082 296.16 814.983C282.705 830.226 267.876 846 240.06 846C212.244 846 197.415 830.226 183.96 814.983C170.814 800.082 160.119 786 135 785.991M135.06 809.988C160.179 809.991 170.814 824.082 183.96 838.983C197.415 854.226 212.244 870 240.06 870C267.876 870 282.705 854.226 296.16 838.983C309.306 824.082 320.001 810 345.12 809.994" stroke="#EF5322"/>
<path d="M555.12 762C530.001 762 519.306 776.085 506.16 790.986C492.705 806.226 477.876 822 450.06 822C422.244 822 407.415 806.226 393.96 790.986C380.814 776.085 370.119 762 345 762M555.12 785.994C530.001 786 519.306 800.082 506.16 814.983C492.705 830.226 477.876 846 450.06 846C422.244 846 407.415 830.226 393.96 814.983C380.814 800.082 370.119 786 345 785.991M345.06 809.988C370.179 809.991 380.814 824.082 393.96 838.983C407.415 854.226 422.244 870 450.06 870C477.876 870 492.705 854.226 506.16 838.983C519.306 824.082 530.001 810 555.12 809.994" stroke="#EF5322"/>
<path d="M765.12 762C740.001 762 729.306 776.085 716.16 790.986C702.705 806.226 687.876 822 660.06 822C632.244 822 617.415 806.226 603.96 790.986C590.814 776.085 580.119 762 555 762M765.12 785.994C740.001 786 729.306 800.082 716.16 814.983C702.705 830.226 687.876 846 660.06 846C632.244 846 617.415 830.226 603.96 814.983C590.814 800.082 580.119 786 555 785.991M555.06 809.988C580.179 809.991 590.814 824.082 603.96 838.983C617.415 854.226 632.244 870 660.06 870C687.876 870 702.705 854.226 716.16 838.983C729.306 824.082 740.001 810 765.12 809.994" stroke="#EF5322"/>
<path d="M975.12 762C950.001 762 939.306 776.085 926.16 790.986C912.705 806.226 897.876 822 870.06 822C842.244 822 827.415 806.226 813.96 790.986C800.814 776.085 790.119 762 765 762M975.12 785.994C950.001 786 939.306 800.082 926.16 814.983C912.705 830.226 897.876 846 870.06 846C842.244 846 827.415 830.226 813.96 814.983C800.814 800.082 790.119 786 765 785.991M765.06 809.988C790.179 809.991 800.814 824.082 813.96 838.983C827.415 854.226 842.244 870 870.06 870C897.876 870 912.705 854.226 926.16 838.983C939.306 824.082 950.001 810 975.12 809.994" stroke="#EF5322"/>
<path d="M1185.12 762C1160 762 1149.31 776.085 1136.16 790.986C1122.7 806.226 1107.88 822 1080.06 822C1052.24 822 1037.41 806.226 1023.96 790.986C1010.81 776.085 1000.12 762 975 762M1185.12 785.994C1160 786 1149.31 800.082 1136.16 814.983C1122.7 830.226 1107.88 846 1080.06 846C1052.24 846 1037.41 830.226 1023.96 814.983C1010.81 800.082 1000.12 786 975 785.991M975.06 809.988C1000.18 809.991 1010.81 824.082 1023.96 838.983C1037.41 854.226 1052.24 870 1080.06 870C1107.88 870 1122.7 854.226 1136.16 838.983C1149.31 824.082 1160 810 1185.12 809.994" stroke="#EF5322"/>
<path d="M1605.12 762C1580 762 1569.31 776.085 1556.16 790.986C1542.7 806.226 1527.88 822 1500.06 822C1472.24 822 1457.41 806.226 1443.96 790.986C1430.81 776.085 1420.12 762 1395 762M1605.12 785.994C1580 786 1569.31 800.082 1556.16 814.983C1542.7 830.226 1527.88 846 1500.06 846C1472.24 846 1457.41 830.226 1443.96 814.983C1430.81 800.082 1420.12 786 1395 785.991M1395.06 809.988C1420.18 809.991 1430.81 824.082 1443.96 838.983C1457.41 854.226 1472.24 870 1500.06 870C1527.88 870 1542.7 854.226 1556.16 838.983C1569.31 824.082 1580 810 1605.12 809.994" stroke="#EF5322"/>
<path d="M1395.12 762C1370 762 1359.31 776.085 1346.16 790.986C1332.7 806.226 1317.88 822 1290.06 822C1262.24 822 1247.41 806.226 1233.96 790.986C1220.81 776.085 1210.12 762 1185 762M1395.12 785.994C1370 786 1359.31 800.082 1346.16 814.983C1332.7 830.226 1317.88 846 1290.06 846C1262.24 846 1247.41 830.226 1233.96 814.983C1220.81 800.082 1210.12 786 1185 785.991M1185.06 809.988C1210.18 809.991 1220.81 824.082 1233.96 838.983C1247.41 854.226 1262.24 870 1290.06 870C1317.88 870 1332.7 854.226 1346.16 838.983C1359.31 824.082 1370 810 1395.12 809.994" stroke="#EF5322"/>
<path d="M1811.12 247C1786 247 1775.31 261.085 1762.16 275.986C1748.7 291.226 1733.88 307 1706.06 307C1678.24 307 1663.41 291.226 1649.96 275.986C1636.81 261.085 1626.12 247 1601 247M1811.12 270.994C1786 271 1775.31 285.082 1762.16 299.983C1748.7 315.226 1733.88 331 1706.06 331C1678.24 331 1663.41 315.226 1649.96 299.983C1636.81 285.082 1626.12 271 1601 270.991M1601.06 294.988C1626.18 294.991 1636.81 309.082 1649.96 323.983C1663.41 339.226 1678.24 355 1706.06 355C1733.88 355 1748.7 339.226 1762.16 323.983C1775.31 309.082 1786 295 1811.12 294.994" stroke="#EF5322"/>
<path d="M133.12 247C108.001 247 97.306 261.085 84.16 275.986C70.705 291.226 55.876 307 28.06 307C0.243993 307 -14.585 291.226 -28.04 275.986C-41.186 261.085 -51.881 247 -77 247M133.12 270.994C108.001 271 97.306 285.082 84.16 299.983C70.705 315.226 55.876 331 28.06 331C0.243993 331 -14.585 315.226 -28.04 299.983C-41.186 285.082 -51.881 271 -77 270.991M-76.94 294.988C-51.821 294.991 -41.186 309.082 -28.04 323.983C-14.585 339.226 0.243993 355 28.06 355C55.876 355 70.705 339.226 84.16 323.983C97.306 309.082 108.001 295 133.12 294.994" stroke="#EF5322"/>
<path d="M343.12 247C318.001 247 307.306 261.085 294.16 275.986C280.705 291.226 265.876 307 238.06 307C210.244 307 195.415 291.226 181.96 275.986C168.814 261.085 158.119 247 133 247M343.12 270.994C318.001 271 307.306 285.082 294.16 299.983C280.705 315.226 265.876 331 238.06 331C210.244 331 195.415 315.226 181.96 299.983C168.814 285.082 158.119 271 133 270.991M133.06 294.988C158.179 294.991 168.814 309.082 181.96 323.983C195.415 339.226 210.244 355 238.06 355C265.876 355 280.705 339.226 294.16 323.983C307.306 309.082 318.001 295 343.12 294.994" stroke="#EF5322"/>
<path d="M553.12 247C528.001 247 517.306 261.085 504.16 275.986C490.705 291.226 475.876 307 448.06 307C420.244 307 405.415 291.226 391.96 275.986C378.814 261.085 368.119 247 343 247M553.12 270.994C528.001 271 517.306 285.082 504.16 299.983C490.705 315.226 475.876 331 448.06 331C420.244 331 405.415 315.226 391.96 299.983C378.814 285.082 368.119 271 343 270.991M343.06 294.988C368.179 294.991 378.814 309.082 391.96 323.983C405.415 339.226 420.244 355 448.06 355C475.876 355 490.705 339.226 504.16 323.983C517.306 309.082 528.001 295 553.12 294.994" stroke="#EF5322"/>
<path d="M763.12 247C738.001 247 727.306 261.085 714.16 275.986C700.705 291.226 685.876 307 658.06 307C630.244 307 615.415 291.226 601.96 275.986C588.814 261.085 578.119 247 553 247M763.12 270.994C738.001 271 727.306 285.082 714.16 299.983C700.705 315.226 685.876 331 658.06 331C630.244 331 615.415 315.226 601.96 299.983C588.814 285.082 578.119 271 553 270.991M553.06 294.988C578.179 294.991 588.814 309.082 601.96 323.983C615.415 339.226 630.244 355 658.06 355C685.876 355 700.705 339.226 714.16 323.983C727.306 309.082 738.001 295 763.12 294.994" stroke="#EF5322"/>
<path d="M973.12 247C948.001 247 937.306 261.085 924.16 275.986C910.705 291.226 895.876 307 868.06 307C840.244 307 825.415 291.226 811.96 275.986C798.814 261.085 788.119 247 763 247M973.12 270.994C948.001 271 937.306 285.082 924.16 299.983C910.705 315.226 895.876 331 868.06 331C840.244 331 825.415 315.226 811.96 299.983C798.814 285.082 788.119 271 763 270.991M763.06 294.988C788.179 294.991 798.814 309.082 811.96 323.983C825.415 339.226 840.244 355 868.06 355C895.876 355 910.705 339.226 924.16 323.983C937.306 309.082 948.001 295 973.12 294.994" stroke="#EF5322"/>
<path d="M1183.12 247C1158 247 1147.31 261.085 1134.16 275.986C1120.7 291.226 1105.88 307 1078.06 307C1050.24 307 1035.41 291.226 1021.96 275.986C1008.81 261.085 998.119 247 973 247M1183.12 270.994C1158 271 1147.31 285.082 1134.16 299.983C1120.7 315.226 1105.88 331 1078.06 331C1050.24 331 1035.41 315.226 1021.96 299.983C1008.81 285.082 998.119 271 973 270.991M973.06 294.988C998.179 294.991 1008.81 309.082 1021.96 323.983C1035.41 339.226 1050.24 355 1078.06 355C1105.88 355 1120.7 339.226 1134.16 323.983C1147.31 309.082 1158 295 1183.12 294.994" stroke="#EF5322"/>
<path d="M1603.12 247C1578 247 1567.31 261.085 1554.16 275.986C1540.7 291.226 1525.88 307 1498.06 307C1470.24 307 1455.41 291.226 1441.96 275.986C1428.81 261.085 1418.12 247 1393 247M1603.12 270.994C1578 271 1567.31 285.082 1554.16 299.983C1540.7 315.226 1525.88 331 1498.06 331C1470.24 331 1455.41 315.226 1441.96 299.983C1428.81 285.082 1418.12 271 1393 270.991M1393.06 294.988C1418.18 294.991 1428.81 309.082 1441.96 323.983C1455.41 339.226 1470.24 355 1498.06 355C1525.88 355 1540.7 339.226 1554.16 323.983C1567.31 309.082 1578 295 1603.12 294.994" stroke="#EF5322"/>
<path d="M1393.12 247C1368 247 1357.31 261.085 1344.16 275.986C1330.7 291.226 1315.88 307 1288.06 307C1260.24 307 1245.41 291.226 1231.96 275.986C1218.81 261.085 1208.12 247 1183 247M1393.12 270.994C1368 271 1357.31 285.082 1344.16 299.983C1330.7 315.226 1315.88 331 1288.06 331C1260.24 331 1245.41 315.226 1231.96 299.983C1218.81 285.082 1208.12 271 1183 270.991M1183.06 294.988C1208.18 294.991 1218.81 309.082 1231.96 323.983C1245.41 339.226 1260.24 355 1288.06 355C1315.88 355 1330.7 339.226 1344.16 323.983C1357.31 309.082 1368 295 1393.12 294.994" stroke="#EF5322"/>
<path d="M1812.12 321C1787 321 1776.31 335.085 1763.16 349.986C1749.7 365.226 1734.88 381 1707.06 381C1679.24 381 1664.41 365.226 1650.96 349.986C1637.81 335.085 1627.12 321 1602 321M1812.12 344.994C1787 345 1776.31 359.082 1763.16 373.983C1749.7 389.226 1734.88 405 1707.06 405C1679.24 405 1664.41 389.226 1650.96 373.983C1637.81 359.082 1627.12 345 1602 344.991M1602.06 368.988C1627.18 368.991 1637.81 383.082 1650.96 397.983C1664.41 413.226 1679.24 429 1707.06 429C1734.88 429 1749.7 413.226 1763.16 397.983C1776.31 383.082 1787 369 1812.12 368.994" stroke="#EF5322"/>
<path d="M134.12 321C109.001 321 98.306 335.085 85.16 349.986C71.705 365.226 56.876 381 29.06 381C1.24399 381 -13.585 365.226 -27.04 349.986C-40.186 335.085 -50.881 321 -76 321M134.12 344.994C109.001 345 98.306 359.082 85.16 373.983C71.705 389.226 56.876 405 29.06 405C1.24399 405 -13.585 389.226 -27.04 373.983C-40.186 359.082 -50.881 345 -76 344.991M-75.94 368.988C-50.821 368.991 -40.186 383.082 -27.04 397.983C-13.585 413.226 1.24399 429 29.06 429C56.876 429 71.705 413.226 85.16 397.983C98.306 383.082 109.001 369 134.12 368.994" stroke="#EF5322"/>
<path d="M344.12 321C319.001 321 308.306 335.085 295.16 349.986C281.705 365.226 266.876 381 239.06 381C211.244 381 196.415 365.226 182.96 349.986C169.814 335.085 159.119 321 134 321M344.12 344.994C319.001 345 308.306 359.082 295.16 373.983C281.705 389.226 266.876 405 239.06 405C211.244 405 196.415 389.226 182.96 373.983C169.814 359.082 159.119 345 134 344.991M134.06 368.988C159.179 368.991 169.814 383.082 182.96 397.983C196.415 413.226 211.244 429 239.06 429C266.876 429 281.705 413.226 295.16 397.983C308.306 383.082 319.001 369 344.12 368.994" stroke="#EF5322"/>
<path d="M554.12 321C529.001 321 518.306 335.085 505.16 349.986C491.705 365.226 476.876 381 449.06 381C421.244 381 406.415 365.226 392.96 349.986C379.814 335.085 369.119 321 344 321M554.12 344.994C529.001 345 518.306 359.082 505.16 373.983C491.705 389.226 476.876 405 449.06 405C421.244 405 406.415 389.226 392.96 373.983C379.814 359.082 369.119 345 344 344.991M344.06 368.988C369.179 368.991 379.814 383.082 392.96 397.983C406.415 413.226 421.244 429 449.06 429C476.876 429 491.705 413.226 505.16 397.983C518.306 383.082 529.001 369 554.12 368.994" stroke="#EF5322"/>
<path d="M764.12 321C739.001 321 728.306 335.085 715.16 349.986C701.705 365.226 686.876 381 659.06 381C631.244 381 616.415 365.226 602.96 349.986C589.814 335.085 579.119 321 554 321M764.12 344.994C739.001 345 728.306 359.082 715.16 373.983C701.705 389.226 686.876 405 659.06 405C631.244 405 616.415 389.226 602.96 373.983C589.814 359.082 579.119 345 554 344.991M554.06 368.988C579.179 368.991 589.814 383.082 602.96 397.983C616.415 413.226 631.244 429 659.06 429C686.876 429 701.705 413.226 715.16 397.983C728.306 383.082 739.001 369 764.12 368.994" stroke="#EF5322"/>
<path d="M974.12 321C949.001 321 938.306 335.085 925.16 349.986C911.705 365.226 896.876 381 869.06 381C841.244 381 826.415 365.226 812.96 349.986C799.814 335.085 789.119 321 764 321M974.12 344.994C949.001 345 938.306 359.082 925.16 373.983C911.705 389.226 896.876 405 869.06 405C841.244 405 826.415 389.226 812.96 373.983C799.814 359.082 789.119 345 764 344.991M764.06 368.988C789.179 368.991 799.814 383.082 812.96 397.983C826.415 413.226 841.244 429 869.06 429C896.876 429 911.705 413.226 925.16 397.983C938.306 383.082 949.001 369 974.12 368.994" stroke="#EF5322"/>
<path d="M1184.12 321C1159 321 1148.31 335.085 1135.16 349.986C1121.7 365.226 1106.88 381 1079.06 381C1051.24 381 1036.41 365.226 1022.96 349.986C1009.81 335.085 999.119 321 974 321M1184.12 344.994C1159 345 1148.31 359.082 1135.16 373.983C1121.7 389.226 1106.88 405 1079.06 405C1051.24 405 1036.41 389.226 1022.96 373.983C1009.81 359.082 999.119 345 974 344.991M974.06 368.988C999.179 368.991 1009.81 383.082 1022.96 397.983C1036.41 413.226 1051.24 429 1079.06 429C1106.88 429 1121.7 413.226 1135.16 397.983C1148.31 383.082 1159 369 1184.12 368.994" stroke="#EF5322"/>
<path d="M1604.12 321C1579 321 1568.31 335.085 1555.16 349.986C1541.7 365.226 1526.88 381 1499.06 381C1471.24 381 1456.41 365.226 1442.96 349.986C1429.81 335.085 1419.12 321 1394 321M1604.12 344.994C1579 345 1568.31 359.082 1555.16 373.983C1541.7 389.226 1526.88 405 1499.06 405C1471.24 405 1456.41 389.226 1442.96 373.983C1429.81 359.082 1419.12 345 1394 344.991M1394.06 368.988C1419.18 368.991 1429.81 383.082 1442.96 397.983C1456.41 413.226 1471.24 429 1499.06 429C1526.88 429 1541.7 413.226 1555.16 397.983C1568.31 383.082 1579 369 1604.12 368.994" stroke="#EF5322"/>
<path d="M1394.12 321C1369 321 1358.31 335.085 1345.16 349.986C1331.7 365.226 1316.88 381 1289.06 381C1261.24 381 1246.41 365.226 1232.96 349.986C1219.81 335.085 1209.12 321 1184 321M1394.12 344.994C1369 345 1358.31 359.082 1345.16 373.983C1331.7 389.226 1316.88 405 1289.06 405C1261.24 405 1246.41 389.226 1232.96 373.983C1219.81 359.082 1209.12 345 1184 344.991M1184.06 368.988C1209.18 368.991 1219.81 383.082 1232.96 397.983C1246.41 413.226 1261.24 429 1289.06 429C1316.88 429 1331.7 413.226 1345.16 397.983C1358.31 383.082 1369 369 1394.12 368.994" stroke="#EF5322"/>
<path d="M1810.12 394C1785 394 1774.31 408.085 1761.16 422.986C1747.7 438.226 1732.88 454 1705.06 454C1677.24 454 1662.41 438.226 1648.96 422.986C1635.81 408.085 1625.12 394 1600 394M1810.12 417.994C1785 418 1774.31 432.082 1761.16 446.983C1747.7 462.226 1732.88 478 1705.06 478C1677.24 478 1662.41 462.226 1648.96 446.983C1635.81 432.082 1625.12 418 1600 417.991M1600.06 441.988C1625.18 441.991 1635.81 456.082 1648.96 470.983C1662.41 486.226 1677.24 502 1705.06 502C1732.88 502 1747.7 486.226 1761.16 470.983C1774.31 456.082 1785 442 1810.12 441.994" stroke="#EF5322"/>
<path d="M132.12 394C107.001 394 96.306 408.085 83.16 422.986C69.705 438.226 54.876 454 27.06 454C-0.756007 454 -15.585 438.226 -29.04 422.986C-42.186 408.085 -52.881 394 -78 394M132.12 417.994C107.001 418 96.306 432.082 83.16 446.983C69.705 462.226 54.876 478 27.06 478C-0.756007 478 -15.585 462.226 -29.04 446.983C-42.186 432.082 -52.881 418 -78 417.991M-77.94 441.988C-52.821 441.991 -42.186 456.082 -29.04 470.983C-15.585 486.226 -0.756007 502 27.06 502C54.876 502 69.705 486.226 83.16 470.983C96.306 456.082 107.001 442 132.12 441.994" stroke="#EF5322"/>
<path d="M342.12 394C317.001 394 306.306 408.085 293.16 422.986C279.705 438.226 264.876 454 237.06 454C209.244 454 194.415 438.226 180.96 422.986C167.814 408.085 157.119 394 132 394M342.12 417.994C317.001 418 306.306 432.082 293.16 446.983C279.705 462.226 264.876 478 237.06 478C209.244 478 194.415 462.226 180.96 446.983C167.814 432.082 157.119 418 132 417.991M132.06 441.988C157.179 441.991 167.814 456.082 180.96 470.983C194.415 486.226 209.244 502 237.06 502C264.876 502 279.705 486.226 293.16 470.983C306.306 456.082 317.001 442 342.12 441.994" stroke="#EF5322"/>
<path d="M552.12 394C527.001 394 516.306 408.085 503.16 422.986C489.705 438.226 474.876 454 447.06 454C419.244 454 404.415 438.226 390.96 422.986C377.814 408.085 367.119 394 342 394M552.12 417.994C527.001 418 516.306 432.082 503.16 446.983C489.705 462.226 474.876 478 447.06 478C419.244 478 404.415 462.226 390.96 446.983C377.814 432.082 367.119 418 342 417.991M342.06 441.988C367.179 441.991 377.814 456.082 390.96 470.983C404.415 486.226 419.244 502 447.06 502C474.876 502 489.705 486.226 503.16 470.983C516.306 456.082 527.001 442 552.12 441.994" stroke="#EF5322"/>
<path d="M762.12 394C737.001 394 726.306 408.085 713.16 422.986C699.705 438.226 684.876 454 657.06 454C629.244 454 614.415 438.226 600.96 422.986C587.814 408.085 577.119 394 552 394M762.12 417.994C737.001 418 726.306 432.082 713.16 446.983C699.705 462.226 684.876 478 657.06 478C629.244 478 614.415 462.226 600.96 446.983C587.814 432.082 577.119 418 552 417.991M552.06 441.988C577.179 441.991 587.814 456.082 600.96 470.983C614.415 486.226 629.244 502 657.06 502C684.876 502 699.705 486.226 713.16 470.983C726.306 456.082 737.001 442 762.12 441.994" stroke="#EF5322"/>
<path d="M972.12 394C947.001 394 936.306 408.085 923.16 422.986C909.705 438.226 894.876 454 867.06 454C839.244 454 824.415 438.226 810.96 422.986C797.814 408.085 787.119 394 762 394M972.12 417.994C947.001 418 936.306 432.082 923.16 446.983C909.705 462.226 894.876 478 867.06 478C839.244 478 824.415 462.226 810.96 446.983C797.814 432.082 787.119 418 762 417.991M762.06 441.988C787.179 441.991 797.814 456.082 810.96 470.983C824.415 486.226 839.244 502 867.06 502C894.876 502 909.705 486.226 923.16 470.983C936.306 456.082 947.001 442 972.12 441.994" stroke="#EF5322"/>
<path d="M1182.12 394C1157 394 1146.31 408.085 1133.16 422.986C1119.7 438.226 1104.88 454 1077.06 454C1049.24 454 1034.41 438.226 1020.96 422.986C1007.81 408.085 997.119 394 972 394M1182.12 417.994C1157 418 1146.31 432.082 1133.16 446.983C1119.7 462.226 1104.88 478 1077.06 478C1049.24 478 1034.41 462.226 1020.96 446.983C1007.81 432.082 997.119 418 972 417.991M972.06 441.988C997.179 441.991 1007.81 456.082 1020.96 470.983C1034.41 486.226 1049.24 502 1077.06 502C1104.88 502 1119.7 486.226 1133.16 470.983C1146.31 456.082 1157 442 1182.12 441.994" stroke="#EF5322"/>
<path d="M1602.12 394C1577 394 1566.31 408.085 1553.16 422.986C1539.7 438.226 1524.88 454 1497.06 454C1469.24 454 1454.41 438.226 1440.96 422.986C1427.81 408.085 1417.12 394 1392 394M1602.12 417.994C1577 418 1566.31 432.082 1553.16 446.983C1539.7 462.226 1524.88 478 1497.06 478C1469.24 478 1454.41 462.226 1440.96 446.983C1427.81 432.082 1417.12 418 1392 417.991M1392.06 441.988C1417.18 441.991 1427.81 456.082 1440.96 470.983C1454.41 486.226 1469.24 502 1497.06 502C1524.88 502 1539.7 486.226 1553.16 470.983C1566.31 456.082 1577 442 1602.12 441.994" stroke="#EF5322"/>
<path d="M1392.12 394C1367 394 1356.31 408.085 1343.16 422.986C1329.7 438.226 1314.88 454 1287.06 454C1259.24 454 1244.41 438.226 1230.96 422.986C1217.81 408.085 1207.12 394 1182 394M1392.12 417.994C1367 418 1356.31 432.082 1343.16 446.983C1329.7 462.226 1314.88 478 1287.06 478C1259.24 478 1244.41 462.226 1230.96 446.983C1217.81 432.082 1207.12 418 1182 417.991M1182.06 441.988C1207.18 441.991 1217.81 456.082 1230.96 470.983C1244.41 486.226 1259.24 502 1287.06 502C1314.88 502 1329.7 486.226 1343.16 470.983C1356.31 456.082 1367 442 1392.12 441.994" stroke="#EF5322"/>
<path d="M1811.12 468C1786 468 1775.31 482.085 1762.16 496.986C1748.7 512.226 1733.88 528 1706.06 528C1678.24 528 1663.41 512.226 1649.96 496.986C1636.81 482.085 1626.12 468 1601 468M1811.12 491.994C1786 492 1775.31 506.082 1762.16 520.983C1748.7 536.226 1733.88 552 1706.06 552C1678.24 552 1663.41 536.226 1649.96 520.983C1636.81 506.082 1626.12 492 1601 491.991M1601.06 515.988C1626.18 515.991 1636.81 530.082 1649.96 544.983C1663.41 560.226 1678.24 576 1706.06 576C1733.88 576 1748.7 560.226 1762.16 544.983C1775.31 530.082 1786 516 1811.12 515.994" stroke="#EF5322"/>
<path d="M133.12 468C108.001 468 97.306 482.085 84.16 496.986C70.705 512.226 55.876 528 28.06 528C0.243993 528 -14.585 512.226 -28.04 496.986C-41.186 482.085 -51.881 468 -77 468M133.12 491.994C108.001 492 97.306 506.082 84.16 520.983C70.705 536.226 55.876 552 28.06 552C0.243993 552 -14.585 536.226 -28.04 520.983C-41.186 506.082 -51.881 492 -77 491.991M-76.94 515.988C-51.821 515.991 -41.186 530.082 -28.04 544.983C-14.585 560.226 0.243993 576 28.06 576C55.876 576 70.705 560.226 84.16 544.983C97.306 530.082 108.001 516 133.12 515.994" stroke="#EF5322"/>
<path d="M343.12 468C318.001 468 307.306 482.085 294.16 496.986C280.705 512.226 265.876 528 238.06 528C210.244 528 195.415 512.226 181.96 496.986C168.814 482.085 158.119 468 133 468M343.12 491.994C318.001 492 307.306 506.082 294.16 520.983C280.705 536.226 265.876 552 238.06 552C210.244 552 195.415 536.226 181.96 520.983C168.814 506.082 158.119 492 133 491.991M133.06 515.988C158.179 515.991 168.814 530.082 181.96 544.983C195.415 560.226 210.244 576 238.06 576C265.876 576 280.705 560.226 294.16 544.983C307.306 530.082 318.001 516 343.12 515.994" stroke="#EF5322"/>
<path d="M553.12 468C528.001 468 517.306 482.085 504.16 496.986C490.705 512.226 475.876 528 448.06 528C420.244 528 405.415 512.226 391.96 496.986C378.814 482.085 368.119 468 343 468M553.12 491.994C528.001 492 517.306 506.082 504.16 520.983C490.705 536.226 475.876 552 448.06 552C420.244 552 405.415 536.226 391.96 520.983C378.814 506.082 368.119 492 343 491.991M343.06 515.988C368.179 515.991 378.814 530.082 391.96 544.983C405.415 560.226 420.244 576 448.06 576C475.876 576 490.705 560.226 504.16 544.983C517.306 530.082 528.001 516 553.12 515.994" stroke="#EF5322"/>
<path d="M763.12 468C738.001 468 727.306 482.085 714.16 496.986C700.705 512.226 685.876 528 658.06 528C630.244 528 615.415 512.226 601.96 496.986C588.814 482.085 578.119 468 553 468M763.12 491.994C738.001 492 727.306 506.082 714.16 520.983C700.705 536.226 685.876 552 658.06 552C630.244 552 615.415 536.226 601.96 520.983C588.814 506.082 578.119 492 553 491.991M553.06 515.988C578.179 515.991 588.814 530.082 601.96 544.983C615.415 560.226 630.244 576 658.06 576C685.876 576 700.705 560.226 714.16 544.983C727.306 530.082 738.001 516 763.12 515.994" stroke="#EF5322"/>
<path d="M973.12 468C948.001 468 937.306 482.085 924.16 496.986C910.705 512.226 895.876 528 868.06 528C840.244 528 825.415 512.226 811.96 496.986C798.814 482.085 788.119 468 763 468M973.12 491.994C948.001 492 937.306 506.082 924.16 520.983C910.705 536.226 895.876 552 868.06 552C840.244 552 825.415 536.226 811.96 520.983C798.814 506.082 788.119 492 763 491.991M763.06 515.988C788.179 515.991 798.814 530.082 811.96 544.983C825.415 560.226 840.244 576 868.06 576C895.876 576 910.705 560.226 924.16 544.983C937.306 530.082 948.001 516 973.12 515.994" stroke="#EF5322"/>
<path d="M1183.12 468C1158 468 1147.31 482.085 1134.16 496.986C1120.7 512.226 1105.88 528 1078.06 528C1050.24 528 1035.41 512.226 1021.96 496.986C1008.81 482.085 998.119 468 973 468M1183.12 491.994C1158 492 1147.31 506.082 1134.16 520.983C1120.7 536.226 1105.88 552 1078.06 552C1050.24 552 1035.41 536.226 1021.96 520.983C1008.81 506.082 998.119 492 973 491.991M973.06 515.988C998.179 515.991 1008.81 530.082 1021.96 544.983C1035.41 560.226 1050.24 576 1078.06 576C1105.88 576 1120.7 560.226 1134.16 544.983C1147.31 530.082 1158 516 1183.12 515.994" stroke="#EF5322"/>
<path d="M1603.12 468C1578 468 1567.31 482.085 1554.16 496.986C1540.7 512.226 1525.88 528 1498.06 528C1470.24 528 1455.41 512.226 1441.96 496.986C1428.81 482.085 1418.12 468 1393 468M1603.12 491.994C1578 492 1567.31 506.082 1554.16 520.983C1540.7 536.226 1525.88 552 1498.06 552C1470.24 552 1455.41 536.226 1441.96 520.983C1428.81 506.082 1418.12 492 1393 491.991M1393.06 515.988C1418.18 515.991 1428.81 530.082 1441.96 544.983C1455.41 560.226 1470.24 576 1498.06 576C1525.88 576 1540.7 560.226 1554.16 544.983C1567.31 530.082 1578 516 1603.12 515.994" stroke="#EF5322"/>
<path d="M1393.12 468C1368 468 1357.31 482.085 1344.16 496.986C1330.7 512.226 1315.88 528 1288.06 528C1260.24 528 1245.41 512.226 1231.96 496.986C1218.81 482.085 1208.12 468 1183 468M1393.12 491.994C1368 492 1357.31 506.082 1344.16 520.983C1330.7 536.226 1315.88 552 1288.06 552C1260.24 552 1245.41 536.226 1231.96 520.983C1218.81 506.082 1208.12 492 1183 491.991M1183.06 515.988C1208.18 515.991 1218.81 530.082 1231.96 544.983C1245.41 560.226 1260.24 576 1288.06 576C1315.88 576 1330.7 560.226 1344.16 544.983C1357.31 530.082 1368 516 1393.12 515.994" stroke="#EF5322"/>
</g>
</svg>
