<svg width="1363" height="516" viewBox="0 0 1363 516" fill="none" xmlns="http://www.w3.org/2000/svg">
<path d="M1080.1 451.001L1261.65 507.947C1279.21 513.465 1297.8 506.543 1303.23 492.609C1303.71 491.327 1304.12 489.97 1304.37 488.583L1358.2 191.06C1360.84 176.429 1348.31 161.856 1330.11 158.562C1328.39 158.251 1326.73 158.08 1324.97 157.957L1134.99 147.613C1118.6 146.737 1104.8 155.7 1102.42 168.814L1057.03 419.734C1054.65 432.853 1064.44 446.085 1080.1 451.001Z" fill="#F8D94A"/>
<path d="M1194.88 236.604L1205.32 259.2" stroke="#231F20" stroke-width="4" stroke-linecap="round" stroke-linejoin="round"/>
<path d="M1285.62 262.199L1142.65 256.847" stroke="#231F20" stroke-width="4" stroke-linecap="round" stroke-linejoin="round"/>
<path d="M1248.36 260.802C1248.36 260.802 1238.49 360.803 1121.17 375.594" stroke="#231F20" stroke-width="4" stroke-linecap="round" stroke-linejoin="round"/>
<path d="M1166.61 257.731C1166.61 257.731 1146.99 369.322 1258.94 409.702" stroke="#231F20" stroke-width="4" stroke-linecap="round" stroke-linejoin="round"/>
<path d="M307.881 409.509L158.961 493.247C144.566 501.358 126.737 497.922 119.128 485.701C118.439 484.568 117.806 483.357 117.304 482.093L9.60869 210.791C4.31403 197.453 12.4405 181.647 27.8645 175.524C29.3187 174.947 30.7525 174.51 32.2746 174.104L198.085 132.916C212.38 129.365 226.391 135.524 231.139 147.485L321.964 376.286C326.692 388.197 320.716 402.281 307.881 409.509Z" fill="#EC6FF7"/>
<path d="M270.021 341.931L232.226 359.794" stroke="white" stroke-width="4" stroke-linecap="round" stroke-linejoin="round"/>
<path d="M187.863 381L125.683 411.138" stroke="white" stroke-width="4" stroke-linecap="round" stroke-linejoin="round"/>
<path d="M254.42 349.521L143.441 226.824L141.176 403.657" stroke="white" stroke-width="4" stroke-linecap="round" stroke-linejoin="round"/>
<path d="M166.273 252.113L164.016 392.524" stroke="white" stroke-width="4" stroke-linecap="round" stroke-linejoin="round"/>
<path d="M214.034 304.907L165.154 325.707" stroke="white" stroke-width="4" stroke-linecap="round" stroke-linejoin="round"/>
<path d="M1040.2 188.29L924 168L969.68 276.53L981.66 246.34L1016.56 274.22L1048.26 234.53L1013.37 206.66L1040.2 188.29Z" fill="#61D163"/>
<path d="M334.34 16.6215L239 57.321L307.707 218.269L441.984 160.948L389.435 37.8499L334.34 16.6215Z" fill="#61D163"/>
<path opacity="0.3" d="M363.493 60.1265L389.429 37.8522L341.886 27.2417L363.493 60.1265Z" fill="#3B3B3B"/>
<path d="M350.498 54.4716L389.435 37.8499L334.34 16.6216L350.498 54.4716Z" fill="#CECECE"/>
<path opacity="0.3" d="M317.967 102.23L289.223 114.5L301.151 142.443L329.896 130.172L317.967 102.23Z" fill="#61D163"/>
<path opacity="0.3" d="M298.911 57.589L270.166 69.8599L282.094 97.8025L310.839 85.5316L298.911 57.589Z" fill="#61D163"/>
<path opacity="0.3" d="M337.024 146.87L308.279 159.141L320.209 187.089L348.954 174.818L337.024 146.87Z" fill="#61D163"/>
<path d="M317.967 102.23L289.223 114.5L301.151 142.443L329.896 130.172L317.967 102.23Z" stroke="#3B3B3B" stroke-width="4" stroke-linecap="round" stroke-linejoin="round"/>
<path d="M315.352 111.921L311.51 130.331L301.271 126.003" stroke="#3B3B3B" stroke-width="4" stroke-linecap="round" stroke-linejoin="round"/>
<path d="M298.911 57.589L270.166 69.8599L282.094 97.8025L310.839 85.5316L298.911 57.589Z" stroke="#3B3B3B" stroke-width="4" stroke-linecap="round" stroke-linejoin="round"/>
<path d="M337.024 146.87L308.279 159.141L320.209 187.089L348.954 174.818L337.024 146.87Z" stroke="#3B3B3B" stroke-width="4" stroke-linecap="round" stroke-linejoin="round"/>
<path d="M356.98 271.49L339.78 299.02L369.06 279.99L379.58 301.88L379.75 274.84L411.8 265.11L379.72 262.16L395.77 232.42L369.31 257.37L356.93 230L359.44 261.51L330 257.37L356.98 271.49Z" stroke="black" stroke-width="4" stroke-linecap="round" stroke-linejoin="round"/>
<path d="M1065.46 93.9998V103.7" stroke="black" stroke-width="4" stroke-linecap="round" stroke-linejoin="round"/>
<path d="M1065.46 131.22V140.92" stroke="black" stroke-width="4" stroke-linecap="round" stroke-linejoin="round"/>
<path d="M1088.92 117.46H1079.22" stroke="black" stroke-width="4" stroke-linecap="round" stroke-linejoin="round"/>
<path d="M1051.7 117.46H1042" stroke="black" stroke-width="4" stroke-linecap="round" stroke-linejoin="round"/>
<path d="M1048.88 100.88L1055.71 107.71" stroke="black" stroke-width="4" stroke-linecap="round" stroke-linejoin="round"/>
<path d="M1075.21 127.21L1082.04 134.04" stroke="black" stroke-width="4" stroke-linecap="round" stroke-linejoin="round"/>
<path d="M1082.04 100.88L1075.21 107.71" stroke="black" stroke-width="4" stroke-linecap="round" stroke-linejoin="round"/>
<path d="M1055.71 127.21L1048.88 134.04" stroke="black" stroke-width="4" stroke-linecap="round" stroke-linejoin="round"/>
<path d="M1247.91 42.9998H1195.16C1175.77 42.9998 1160 58.7697 1160 78.1697C1160 95.4297 1172.54 110.1 1189.57 112.86V130.91L1215.35 113.33H1247.91C1267.3 113.33 1283.07 97.5597 1283.07 78.1697C1283.07 58.6897 1267.3 42.9998 1247.91 42.9998Z" fill="#EC6FF7"/>
<path d="M1201.79 82.4198C1204.44 82.4198 1206.6 80.2698 1206.6 77.6098C1206.6 74.9598 1204.44 72.7998 1201.79 72.7998C1199.13 72.7998 1196.98 74.9598 1196.98 77.6098C1196.98 80.2698 1199.13 82.4198 1201.79 82.4198Z" fill="white"/>
<path d="M1221.5 82.4198C1224.15 82.4198 1226.31 80.2698 1226.31 77.6098C1226.31 74.9598 1224.15 72.7998 1221.5 72.7998C1218.84 72.7998 1216.69 74.9598 1216.69 77.6098C1216.69 80.2698 1218.84 82.4198 1221.5 82.4198Z" fill="white"/>
<path d="M1241.29 82.4198C1243.94 82.4198 1246.1 80.2698 1246.1 77.6098C1246.1 74.9598 1243.94 72.7998 1241.29 72.7998C1238.63 72.7998 1236.48 74.9598 1236.48 77.6098C1236.48 80.2698 1238.63 82.4198 1241.29 82.4198Z" fill="white"/>
<path d="M500.25 344.34L511.59 279L446.24 290.34L461.4 305.5L434 332.9L457.69 356.59L485.09 329.19L500.25 344.34Z" fill="#F8D94A"/>
</svg>
