<svg width="282" height="344" viewBox="0 0 282 344" fill="none" xmlns="http://www.w3.org/2000/svg">
<rect width="166.944" height="161.549" rx="10" transform="matrix(0.99049 0.137587 -0.147134 0.989117 107.297 0)" fill="#61D163"/>
<path d="M128.026 31.2822L127.781 32.9242L125.226 32.5692L123.475 44.3397L121.593 44.0783L123.344 32.3078L120.788 31.9528L121.033 30.3109L128.026 31.2822ZM129.396 31.4725L135.517 32.3228L135.273 33.9648L131.014 33.3731L130.393 37.5472L134.097 38.0618L133.853 39.7037L130.148 39.1891L129.504 43.5215L133.763 44.1131L133.522 45.7353L127.401 44.885L129.396 31.4725ZM142.159 33.2455L144.18 33.5262L140.247 39.8449L142.185 46.9386L140.144 46.6551L138.993 41.7504L136.42 46.1378L134.399 45.8571L138.286 39.5725L136.394 32.4447L138.415 32.7254L139.6 37.6752L142.159 33.2455ZM151.53 34.5472L151.286 36.1892L148.731 35.8342L146.98 47.6047L145.098 47.3433L146.849 35.5728L144.293 35.2178L144.537 33.5759L151.53 34.5472ZM157.546 38.5731C157.707 37.4917 157.213 36.8711 156.064 36.7115C154.915 36.5519 154.26 37.0129 154.1 38.0943L153.034 45.2555C152.871 46.3501 153.365 46.9772 154.514 47.1368C155.662 47.2964 156.318 46.8289 156.481 45.7343L157.546 38.5731ZM152.246 37.7763C152.393 36.7872 152.808 36.0371 153.491 35.5262C154.187 35.0171 155.122 34.8442 156.298 35.0075C157.486 35.1726 158.339 35.6007 158.856 36.2917C159.376 36.9696 159.563 37.7965 159.417 38.7724L158.332 46.0721C158.186 47.048 157.766 47.7905 157.07 48.2996C156.374 48.8087 155.439 48.9816 154.263 48.8183C153.088 48.6551 152.241 48.2345 151.721 47.5566C151.202 46.8788 151.015 46.0519 151.16 45.076L152.246 37.7763ZM171.646 37.3415L173.489 37.5974L171.494 51.0098L169.513 50.7347C168.226 45.1582 167.394 41.4621 167.017 39.6463C166.996 39.7914 166.977 40.0984 166.961 40.5673C166.896 41.7294 166.759 43.0094 166.552 44.4073L165.689 50.2036L163.867 49.9504L165.862 36.538L167.863 36.8159C169.008 41.7132 169.696 44.7432 169.928 45.9061C170.159 47.0689 170.29 47.7265 170.322 47.8789C170.339 47.7602 170.386 47.1745 170.462 46.1216C170.553 45.0573 170.664 44.0364 170.796 43.0586L171.646 37.3415ZM181.111 38.6562L182.973 38.9149L181.431 49.2808C181.286 50.2568 180.866 50.9993 180.17 51.5084C179.487 52.0193 178.559 52.1931 177.383 52.0298C176.208 51.8666 175.36 51.446 174.841 50.7681C174.335 50.0921 174.155 49.2662 174.3 48.2902L175.842 37.9243L177.704 38.1829L176.174 48.4698C176.011 49.5644 176.497 50.1906 177.633 50.3483C178.769 50.5061 179.418 50.0377 179.581 48.9431L181.111 38.6562ZM180.087 35.4853L181.672 35.7054L180.083 37.6856L178.974 37.5315L180.087 35.4853ZM195.189 40.6117L193.194 54.0241L191.411 53.7765L192.355 47.4263C192.557 46.068 192.821 44.7517 193.145 43.4776L189.637 49.936L187.913 49.6966L186.429 42.5448C186.379 43.7896 186.249 45.1176 186.039 46.5288L185.091 52.8987L183.328 52.6538L185.324 39.2414L187.404 39.5303L189.073 47.879L193.109 40.3228L195.189 40.6117ZM197.647 40.9531L203.768 41.8034L203.524 43.4453L199.264 42.8537L198.644 47.0278L202.348 47.5424L202.104 49.1843L198.399 48.6697L197.755 53.0021L202.014 53.5937L201.773 55.2158L195.651 54.3655L197.647 40.9531ZM206.3 50.5142L205.523 55.7367L203.661 55.4781L205.656 42.0656L209.261 42.5665C210.318 42.7132 211.084 43.0889 211.56 43.6935C212.05 44.2999 212.225 45.0713 212.085 46.0076L211.768 48.1441C211.55 49.608 210.848 50.473 209.663 50.7391L210.99 56.4962L208.93 56.21L207.785 50.7206L206.3 50.5142ZM207.276 43.9465L206.532 48.9514L208.117 49.1715C208.671 49.2486 209.086 49.1783 209.361 48.9608C209.649 48.745 209.832 48.38 209.908 47.8657L210.206 45.8677C210.353 44.8785 209.905 44.3115 208.861 44.1666L207.276 43.9465ZM219.491 47.1776C219.652 46.0962 219.158 45.4757 218.009 45.3161C216.86 45.1565 216.205 45.6174 216.044 46.6988L214.979 53.86C214.816 54.9547 215.309 55.5818 216.458 55.7414C217.607 55.901 218.263 55.4335 218.426 54.3388L219.491 47.1776ZM214.191 46.3808C214.338 45.3917 214.753 44.6417 215.435 44.1308C216.131 43.6217 217.066 43.4488 218.242 43.612C219.43 43.7772 220.283 44.2052 220.801 44.8963C221.32 45.5741 221.507 46.401 221.362 47.3769L220.276 54.6766C220.131 55.6526 219.71 56.3951 219.014 56.9041C218.319 57.4132 217.383 57.5861 216.208 57.4229C215.032 57.2596 214.185 56.839 213.666 56.1612C213.147 55.4833 212.96 54.6564 213.105 53.6805L214.191 46.3808ZM126.016 67.4884L124.333 67.2545L123.3 70.6647L124.785 70.8711L124.571 72.3152L122.887 72.0813L121.885 75.415L120.261 75.1894L121.262 71.8556L118.707 71.5007L117.705 74.8344L116.081 74.6088L117.082 71.275L115.557 71.0631L115.772 69.619L117.495 69.8584L118.528 66.4483L117.003 66.2364L117.215 64.8121L118.938 65.0515L119.943 61.6979L121.587 61.9263L120.582 65.2799L123.118 65.6321L124.122 62.2785L125.747 62.5042L124.743 65.8577L126.228 66.0641L126.016 67.4884ZM121.675 70.439L122.708 67.0289L120.153 66.6739L119.14 70.0868L121.675 70.439ZM130.998 62.8904C133.481 63.2353 134.575 64.3968 134.281 66.3751L134.111 67.5225C134.007 68.2214 133.8 68.7918 133.492 69.2335C133.199 69.6639 132.753 70.0328 132.155 70.34L130.371 71.3238C129.698 71.6747 129.242 71.9814 129 72.244C128.759 72.5066 128.598 72.9083 128.518 73.449L128.347 74.5964L132.943 75.2348L132.693 76.9163L126.215 76.0165L126.657 73.0491C126.776 72.2447 127.037 71.6214 127.44 71.1793C127.843 70.7372 128.409 70.3312 129.138 69.9613L131.016 68.8896C131.436 68.6922 131.734 68.4576 131.909 68.1858C132.084 67.914 132.209 67.5276 132.284 67.0264L132.396 66.2747C132.466 65.7999 132.386 65.4321 132.155 65.1712C131.926 64.8971 131.396 64.7023 130.564 64.5867C129.745 64.473 128.93 64.5146 128.119 64.7115L128.387 62.9113C129.151 62.7616 130.021 62.7546 130.998 62.8904ZM138.686 63.9583C141.195 64.3069 142.302 65.4768 142.006 67.4683L141.803 68.8333C141.616 70.0861 141.023 70.8114 140.023 71.009C140.975 71.4104 141.358 72.2309 141.174 73.4706L140.929 75.1125C140.788 76.0621 140.361 76.7566 139.649 77.196C138.952 77.6242 138.015 77.7566 136.84 77.5933C135.678 77.4319 134.779 77.1791 134.142 76.835L134.407 75.0546C135.168 75.4698 135.957 75.7343 136.776 75.848C137.595 75.9617 138.167 75.9201 138.493 75.7231C138.821 75.5129 139.02 75.1704 139.091 74.6956L139.279 73.4295C139.356 72.9152 139.287 72.5153 139.073 72.2299C138.862 71.9312 138.465 71.7416 137.884 71.6609L136.478 71.4655L136.734 69.7444L138.12 69.937C138.688 70.0159 139.112 69.9334 139.391 69.6895C139.67 69.4455 139.848 69.0598 139.927 68.5323L140.103 67.3453C140.172 66.8837 140.085 66.515 139.843 66.2391C139.603 65.95 139.067 65.7476 138.235 65.6321C137.416 65.5183 136.693 65.5323 136.065 65.6739L136.327 63.9133C136.909 63.8057 137.696 63.8207 138.686 63.9583ZM147.132 65.1316C149.615 65.4764 150.71 66.638 150.415 68.6162L150.245 69.7636C150.141 70.4626 149.935 71.0329 149.626 71.4747C149.333 71.9051 148.887 72.2739 148.289 72.5812L146.505 73.565C145.833 73.9158 145.376 74.2226 145.135 74.4852C144.893 74.7478 144.732 75.1495 144.652 75.6902L144.481 76.8376L149.077 77.476L148.827 79.1575L142.349 78.2576L142.791 75.2903C142.91 74.4858 143.172 73.8625 143.574 73.4204C143.977 72.9783 144.543 72.5723 145.272 72.2025L147.15 71.1307C147.57 70.9334 147.868 70.6988 148.043 70.427C148.218 70.1552 148.343 69.7687 148.418 69.2676L148.53 68.5158C148.6 68.0411 148.52 67.6732 148.289 67.4123C148.061 67.1383 147.53 66.9434 146.698 66.8279C145.879 66.7141 145.064 66.7557 144.253 66.9526L144.521 65.1524C145.285 65.0028 146.155 64.9958 147.132 65.1316Z" fill="black"/>
<rect width="166.944" height="161.549" rx="10" transform="matrix(0.990488 -0.1376 0.147148 0.989114 0 114.066)" fill="#F8D94A"/>
<path d="M23.3135 142.158C23.1742 141.221 23.3832 140.452 23.9406 139.849C24.496 139.234 25.4143 138.837 26.6953 138.659C27.5405 138.542 28.3344 138.532 29.077 138.631L29.333 140.352C28.5205 140.236 27.7378 140.231 26.9851 140.335C26.2323 140.44 25.7283 140.631 25.4731 140.909C25.231 141.184 25.1453 141.56 25.216 142.035L26.3196 149.453C26.3883 149.915 26.5855 150.244 26.9114 150.441C27.2372 150.638 27.7898 150.682 28.569 150.574C29.3481 150.466 30.0984 150.254 30.8198 149.938L31.0699 151.62C30.4146 151.926 29.6247 152.144 28.7002 152.272C26.1646 152.624 24.7496 151.811 24.4553 149.833L23.3135 142.158ZM36.573 140.578C36.4121 139.497 35.7572 139.036 34.6082 139.195C33.4593 139.355 32.9652 139.975 33.1261 141.057L34.1915 148.218C34.3543 149.313 35.0102 149.78 36.1592 149.621C37.3082 149.461 37.8012 148.834 37.6384 147.739L36.573 140.578ZM31.2552 141.256C31.108 140.267 31.2875 139.435 31.7935 138.758C32.3127 138.081 33.16 137.66 34.3353 137.497C35.5239 137.332 36.4671 137.51 37.1648 138.032C37.8606 138.542 38.2811 139.284 38.4263 140.26L39.5123 147.56C39.6575 148.536 39.4704 149.362 38.9512 150.04C38.432 150.718 37.5847 151.139 36.4093 151.302C35.234 151.465 34.2984 151.292 33.6026 150.783C32.9068 150.274 32.4863 149.532 32.3411 148.556L31.2552 141.256ZM50.0902 135.51L52.0855 148.922L50.3026 149.17L49.3579 142.82C49.1558 141.462 49.0247 140.127 48.9645 138.816L47.4808 145.968L45.7574 146.207L42.249 139.749C42.5635 140.957 42.8257 142.267 43.0357 143.678L43.9833 150.048L42.2202 150.293L40.2249 136.88L42.3049 136.592L46.3406 144.148L48.0101 135.799L50.0902 135.51ZM52.548 135.169L54.4299 134.907L56.4252 148.32L54.5433 148.581L52.548 135.169ZM62.5876 136.903C62.4384 135.901 61.8422 135.472 60.7989 135.617L58.9566 135.873L60.4781 146.101L62.3204 145.845C63.3637 145.7 63.8079 145.107 63.6529 144.065L62.5876 136.903ZM56.862 134.569L60.7447 134.03C61.8012 133.883 62.6461 134.035 63.2792 134.485C63.9124 134.936 64.2996 135.636 64.4408 136.585L65.5297 143.905C65.673 144.868 65.5217 145.663 65.0758 146.29C64.6412 146.902 63.889 147.283 62.8193 147.431L58.8573 147.982L56.862 134.569ZM73.8663 145.897L72.6036 142.438L69.2756 142.9L69.0724 146.563L67.2499 146.816L68.1864 132.996L70.8013 132.633L75.6888 145.643L73.8663 145.897ZM69.3542 141.254L72.0285 140.882L69.7132 134.561L69.3542 141.254ZM74.9121 134.969C74.7728 134.033 74.9687 133.265 75.4997 132.667C76.0438 132.066 76.8838 131.687 78.0196 131.529C79.1553 131.371 80.0975 131.362 80.8459 131.5L81.1108 133.28C80.3564 133.102 79.4708 133.084 78.4539 133.225C77.2257 133.396 76.6793 133.936 76.8147 134.846L76.9294 135.618C76.9922 136.04 77.1215 136.365 77.3172 136.594C77.5242 136.807 77.8567 137.003 78.3146 137.182L80.8039 138.149C81.9599 138.58 82.6252 139.383 82.7999 140.557L82.9647 141.664C83.1079 142.627 82.882 143.419 82.2869 144.04C81.6899 144.648 80.7773 145.037 79.5491 145.208C78.3341 145.377 77.3362 145.374 76.5555 145.2L76.2906 143.42C77.2093 143.615 78.1507 143.646 79.1148 143.512C80.5543 143.312 81.2014 142.724 81.0563 141.748L80.9562 141.075C80.8973 140.68 80.7796 140.386 80.6029 140.196C80.4243 139.992 80.1212 139.812 79.6936 139.656L77.2726 138.74C76.0031 138.27 75.2751 137.409 75.0887 136.156L74.9121 134.969ZM86.9249 130.393L93.0461 129.542L93.2903 131.184L89.0312 131.776L89.6522 135.95L93.3566 135.436L93.6009 137.077L89.8965 137.592L90.541 141.924L94.8001 141.333L95.0414 142.955L88.9202 143.805L86.9249 130.393ZM104.799 127.91L106.794 141.322L105.012 141.57L104.067 135.22C103.865 133.861 103.734 132.527 103.673 131.216L102.19 138.368L100.466 138.607L96.9579 132.149C97.2725 133.357 97.5347 134.667 97.7446 136.078L98.6923 142.448L96.9292 142.693L94.9339 129.28L97.0139 128.991L101.05 136.547L102.719 128.199L104.799 127.91ZM27.6464 169.924L33.7676 169.074L34.0119 170.716L29.7528 171.307L30.3738 175.481L34.0782 174.967L34.3225 176.609L30.618 177.123L31.2626 181.456L35.5216 180.864L35.763 182.486L29.6418 183.337L27.6464 169.924ZM35.3661 171.759C35.2268 170.823 35.4226 170.055 35.9536 169.457C36.4978 168.856 37.3378 168.477 38.4735 168.319C39.6093 168.161 40.5514 168.152 41.2999 168.29L41.5647 170.07C40.8104 169.892 39.9248 169.874 38.9079 170.015C37.6796 170.186 37.1332 170.726 37.2686 171.636L37.3834 172.408C37.4462 172.83 37.5754 173.155 37.7712 173.384C37.9782 173.597 38.3107 173.793 38.7686 173.972L41.2578 174.939C42.4139 175.37 43.0792 176.173 43.2538 177.347L43.4186 178.455C43.5618 179.417 43.3359 180.209 42.7409 180.83C42.1439 181.438 41.2312 181.827 40.003 181.998C38.788 182.167 37.7902 182.164 37.0094 181.99L36.7445 180.21C37.6632 180.405 38.6046 180.436 39.5687 180.302C41.0082 180.102 41.6554 179.514 41.5102 178.538L41.4101 177.865C41.3513 177.47 41.2335 177.176 41.0569 176.986C40.8782 176.782 40.5751 176.602 40.1475 176.446L37.7266 175.53C36.457 175.06 35.729 174.199 35.5427 172.946L35.3661 171.759ZM49.1279 170.171C48.9768 169.155 48.373 168.721 47.3165 168.867L45.7515 169.085L46.6079 174.841L48.1729 174.624C49.2294 174.477 49.6811 173.89 49.5281 172.861L49.1279 170.171ZM43.6451 167.702L47.2505 167.201C48.307 167.054 49.1519 167.206 49.785 167.656C50.4314 168.105 50.8252 168.804 50.9664 169.754L51.4138 172.76C51.555 173.71 51.381 174.488 50.8916 175.094C50.4154 175.699 49.649 176.075 48.5925 176.221L46.8492 176.464L47.5026 180.855L45.6405 181.114L43.6451 167.702ZM60.1658 179.096L58.9031 175.637L55.5751 176.099L55.3718 179.762L53.5493 180.015L54.4859 166.196L57.1007 165.832L61.9883 178.843L60.1658 179.096ZM55.6536 174.453L58.328 174.082L56.0127 167.76L55.6536 174.453ZM67.2854 164.417L69.1277 164.162L71.1231 177.574L69.1421 177.849C66.2819 172.849 64.4064 169.529 63.5154 167.889C63.537 168.034 63.6086 168.334 63.7301 168.788C64.0064 169.921 64.2486 171.186 64.4565 172.584L65.3188 178.38L63.4963 178.633L61.501 165.221L63.5018 164.943C66.0281 169.33 67.5718 172.05 68.1328 173.103C68.6938 174.156 69.0115 174.751 69.0859 174.889C69.0682 174.77 68.9423 174.195 68.708 173.164C68.485 172.119 68.2943 171.109 68.136 170.135L67.2854 164.417ZM77.2456 163.034L79.1473 162.77L81.1426 176.182L79.2409 176.446L78.3845 170.69L74.6008 171.215L75.4572 176.972L73.5753 177.233L71.58 163.821L73.4619 163.559L74.3536 169.553L78.1373 169.028L77.2456 163.034ZM87.1768 164.844C87.0159 163.763 86.361 163.302 85.2121 163.462C84.0631 163.621 83.569 164.242 83.7299 165.323L84.7953 172.484C84.9581 173.579 85.614 174.046 86.763 173.887C87.912 173.727 88.405 173.1 88.2422 172.005L87.1768 164.844ZM81.859 165.522C81.7118 164.533 81.8913 163.701 82.3973 163.025C82.9165 162.347 83.7638 161.926 84.9392 161.763C86.1277 161.598 87.0709 161.776 87.7687 162.299C88.4644 162.808 88.8849 163.55 89.0301 164.526L90.1161 171.826C90.2613 172.802 90.0742 173.629 89.555 174.307C89.0358 174.984 88.1885 175.405 87.0132 175.568C85.8378 175.732 84.9022 175.559 84.2064 175.05C83.5106 174.541 83.0901 173.798 82.9449 172.822L81.859 165.522ZM90.8287 161.147L92.7106 160.885L94.4676 172.695L98.3899 172.15L98.6283 173.753L92.824 174.559L90.8287 161.147Z" fill="black"/>
<rect width="166.789" height="161.708" rx="10" transform="matrix(0.977147 0.212566 -0.22688 0.973923 119.023 151.055)" fill="#EC6FF7"/>
<path d="M133.8 196.962L133.894 193.299L130.611 192.585L129.071 195.933L127.273 195.542L133.242 182.965L135.822 183.526L135.598 197.353L133.8 196.962ZM131.291 191.075L133.929 191.649L134.093 184.951L131.291 191.075ZM140.121 192.934L138.923 198.077L137.086 197.677L140.163 184.471L143.719 185.244C144.762 185.471 145.496 185.904 145.922 186.542C146.361 187.183 146.474 187.965 146.259 188.887L145.769 190.991C145.433 192.432 144.663 193.24 143.459 193.415L144.317 199.25L142.284 198.808L141.587 193.253L140.121 192.934ZM141.627 186.467L140.479 191.395L142.043 191.736C142.59 191.855 143.01 191.816 143.302 191.621C143.607 191.428 143.818 191.078 143.936 190.572L144.395 188.604C144.621 187.63 144.22 187.031 143.191 186.808L141.627 186.467ZM155.071 187.714L154.695 189.33L152.174 188.782L149.474 200.372L147.617 199.968L150.317 188.378L147.796 187.83L148.173 186.213L155.071 187.714ZM156.423 188.008L158.279 188.412L155.203 201.618L153.346 201.214L156.423 188.008ZM159.803 191.813C160.024 190.865 160.515 190.194 161.278 189.801C162.053 189.41 163.099 189.358 164.415 189.644C165.301 189.837 166.102 190.127 166.819 190.515L166.411 192.268C165.69 191.838 164.899 191.53 164.039 191.343C162.658 191.042 161.853 191.386 161.623 192.373L159.953 199.541C159.735 200.476 160.2 201.068 161.346 201.317C161.985 201.456 162.492 201.451 162.87 201.301L163.981 196.528L165.799 196.924L164.406 202.904C163.334 203.216 162.205 203.244 161.019 202.986C159.847 202.731 159.004 202.295 158.49 201.678C157.98 201.049 157.838 200.247 158.065 199.273L159.803 191.813ZM173.878 195.039C174.126 193.974 173.684 193.318 172.55 193.071C171.417 192.825 170.726 193.234 170.478 194.299L168.835 201.35C168.584 202.428 169.025 203.09 170.159 203.337C171.292 203.583 171.985 203.168 172.236 202.09L173.878 195.039ZM168.655 193.841C168.881 192.867 169.356 192.151 170.078 191.695C170.814 191.241 171.761 191.14 172.921 191.392C174.094 191.647 174.91 192.139 175.37 192.866C175.833 193.581 175.953 194.419 175.729 195.38L174.055 202.567C173.831 203.528 173.351 204.236 172.616 204.69C171.88 205.144 170.933 205.245 169.773 204.992C168.614 204.74 167.802 204.257 167.339 203.542C166.876 202.827 166.756 201.989 166.98 201.028L168.655 193.841ZM180.983 196.298C181.198 195.376 181.664 194.727 182.381 194.351C183.112 193.977 184.037 193.913 185.157 194.156C186.278 194.4 187.163 194.715 187.812 195.102L187.403 196.855C186.763 196.429 185.942 196.107 184.939 195.889C183.727 195.626 183.017 195.942 182.808 196.838L182.631 197.597C182.534 198.013 182.535 198.361 182.634 198.642C182.749 198.912 182.988 199.21 183.35 199.534L185.322 201.294C186.244 202.095 186.571 203.073 186.302 204.229L186.048 205.319C185.827 206.267 185.324 206.929 184.538 207.304C183.756 207.666 182.759 207.715 181.547 207.451C180.348 207.19 179.416 206.844 178.75 206.413L179.158 204.66C179.946 205.159 180.815 205.511 181.766 205.718C183.186 206.027 184.008 205.701 184.232 204.74L184.386 204.078C184.477 203.688 184.475 203.374 184.38 203.135C184.288 202.883 184.071 202.611 183.728 202.318L181.801 200.63C180.787 199.755 180.424 198.7 180.711 197.466L180.983 196.298ZM194.547 199.535C194.795 198.47 194.353 197.814 193.219 197.568C192.086 197.321 191.395 197.73 191.147 198.795L189.504 205.846C189.253 206.924 189.694 207.586 190.828 207.833C191.961 208.079 192.654 207.664 192.905 206.586L194.547 199.535ZM189.323 198.337C189.55 197.363 190.025 196.648 190.747 196.191C191.483 195.737 192.43 195.636 193.59 195.888C194.762 196.143 195.579 196.635 196.039 197.363C196.502 198.077 196.622 198.915 196.398 199.876L194.724 207.064C194.5 208.025 194.02 208.732 193.285 209.186C192.549 209.64 191.602 209.741 190.442 209.489C189.283 209.236 188.471 208.753 188.008 208.038C187.545 207.323 187.425 206.486 187.649 205.525L189.323 198.337ZM205.565 201.85L205.297 202.999C205.01 204.233 204.356 204.923 203.336 205.069C204.274 205.628 204.591 206.556 204.289 207.855L204.003 209.082C203.776 210.056 203.329 210.743 202.66 211.144C202.008 211.534 201.155 211.614 200.099 211.385L196.249 210.547L199.326 197.341L203.058 198.153C204.114 198.382 204.848 198.815 205.261 199.451C205.69 200.076 205.792 200.876 205.565 201.85ZM202.476 199.684L200.795 199.318L199.824 203.487L201.505 203.852C202.573 204.085 203.225 203.694 203.461 202.681L203.729 201.532C203.962 200.532 203.544 199.916 202.476 199.684ZM202.204 208.609L202.494 207.362C202.727 206.362 202.309 205.746 201.241 205.514L199.443 205.123L198.454 209.369L200.252 209.76C201.32 209.993 201.971 209.609 202.204 208.609ZM208.559 207.822L207.362 212.964L205.524 212.565L208.601 199.358L212.158 200.132C213.2 200.359 213.934 200.792 214.361 201.43C214.8 202.071 214.912 202.853 214.697 203.775L214.207 205.879C213.871 207.32 213.101 208.128 211.897 208.303L212.755 214.138L210.723 213.696L210.025 208.141L208.559 207.822ZM210.066 201.355L208.918 206.283L210.481 206.623C211.029 206.743 211.448 206.704 211.74 206.508C212.045 206.316 212.257 205.966 212.375 205.459L212.833 203.492C213.06 202.518 212.659 201.919 211.629 201.695L210.066 201.355ZM217.666 201.33L223.705 202.644L223.328 204.261L219.127 203.347L218.169 207.457L221.824 208.252L221.447 209.868L217.793 209.073L216.799 213.339L221.001 214.253L220.629 215.851L214.59 214.537L217.666 201.33ZM130.513 217.245L130.245 218.394C129.958 219.628 129.304 220.318 128.284 220.464C129.222 221.023 129.54 221.952 129.237 223.25L128.951 224.477C128.724 225.451 128.277 226.138 127.609 226.539C126.956 226.929 126.103 227.009 125.047 226.78L121.197 225.942L124.274 212.736L128.007 213.548C129.062 213.777 129.796 214.21 130.209 214.846C130.639 215.471 130.74 216.271 130.513 217.245ZM127.424 215.079L125.743 214.713L124.772 218.882L126.453 219.247C127.521 219.48 128.174 219.089 128.409 218.076L128.677 216.927C128.91 215.927 128.492 215.311 127.424 215.079ZM127.152 224.004L127.442 222.757C127.675 221.757 127.257 221.141 126.189 220.909L124.391 220.518L123.402 224.764L125.2 225.155C126.268 225.388 126.919 225.004 127.152 224.004ZM133.549 214.754L139.588 216.067L139.211 217.684L135.01 216.77L134.052 220.88L137.707 221.675L137.33 223.291L133.675 222.497L132.682 226.762L136.883 227.676L136.511 229.274L130.473 227.96L133.549 214.754ZM141.45 216.472L143.307 216.876L140.598 228.505L144.467 229.347L144.1 230.924L138.374 229.679L141.45 216.472ZM148.493 218.004L150.349 218.408L147.64 230.037L151.51 230.879L151.142 232.456L145.416 231.211L148.493 218.004ZM164.808 221.553L166.684 221.961L163.607 235.168L161.731 234.76L163.052 229.092L159.319 228.28L157.998 233.948L156.142 233.544L159.218 220.337L161.075 220.741L159.7 226.643L163.433 227.455L164.808 221.553ZM173.429 226.662C173.677 225.598 173.235 224.942 172.101 224.695C170.968 224.449 170.277 224.858 170.029 225.923L168.386 232.974C168.135 234.052 168.576 234.714 169.71 234.961C170.843 235.207 171.536 234.792 171.787 233.714L173.429 226.662ZM168.206 225.465C168.432 224.491 168.907 223.775 169.629 223.319C170.365 222.865 171.312 222.764 172.472 223.016C173.645 223.271 174.461 223.762 174.921 224.49C175.384 225.205 175.504 226.043 175.28 227.004L173.606 234.191C173.382 235.152 172.902 235.86 172.167 236.314C171.431 236.768 170.484 236.868 169.324 236.616C168.165 236.364 167.353 235.88 166.89 235.166C166.427 234.451 166.307 233.613 166.531 232.652L168.206 225.465ZM182.533 228.643C182.781 227.578 182.338 226.922 181.205 226.676C180.071 226.429 179.381 226.838 179.132 227.903L177.49 234.954C177.239 236.032 177.68 236.694 178.813 236.941C179.947 237.187 180.639 236.772 180.89 235.694L182.533 228.643ZM177.309 227.445C177.536 226.471 178.011 225.756 178.733 225.299C179.468 224.845 180.416 224.744 181.575 224.996C182.748 225.251 183.564 225.743 184.025 226.471C184.488 227.185 184.607 228.023 184.384 228.984L182.709 236.172C182.485 237.133 182.006 237.84 181.27 238.294C180.535 238.748 179.587 238.849 178.428 238.597C177.268 238.344 176.457 237.861 175.994 237.146C175.53 236.431 175.411 235.594 175.635 234.633L177.309 227.445ZM187.311 226.449L189.148 226.848L186.072 240.055L184.235 239.655L187.311 226.449ZM192.451 227.567L194.425 227.996L190.227 233.939L191.524 241.241L189.472 240.795L188.264 233.553L192.451 227.567ZM194.714 231.006C194.929 230.084 195.395 229.435 196.112 229.059C196.843 228.686 197.768 228.621 198.889 228.865C200.009 229.109 200.894 229.424 201.543 229.811L201.135 231.564C200.495 231.138 199.673 230.816 198.67 230.598C197.458 230.334 196.748 230.65 196.539 231.546L196.362 232.306C196.265 232.722 196.266 233.07 196.365 233.351C196.48 233.621 196.719 233.919 197.081 234.243L199.053 236.002C199.976 236.803 200.302 237.782 200.033 238.937L199.779 240.028C199.558 240.976 199.055 241.637 198.269 242.012C197.487 242.374 196.49 242.423 195.278 242.16C194.08 241.899 193.147 241.553 192.481 241.122L192.889 239.369C193.677 239.867 194.546 240.22 195.497 240.427C196.917 240.736 197.739 240.41 197.963 239.449L198.117 238.787C198.208 238.397 198.206 238.083 198.111 237.844C198.019 237.592 197.802 237.32 197.46 237.027L195.532 235.339C194.518 234.463 194.155 233.409 194.442 232.175L194.714 231.006Z" fill="black"/>
</svg>
