<svg width="329" height="316" viewBox="0 0 329 316" fill="none" xmlns="http://www.w3.org/2000/svg">
<mask id="mask0_77_75" style="mask-type:alpha" maskUnits="userSpaceOnUse" x="0" y="0" width="329" height="316">
<rect width="329" height="316" fill="#D9D9D9"/>
</mask>
<g mask="url(#mask0_77_75)">
<path d="M264.869 236.102C264.869 236.102 299.594 297.059 283.773 326.207C267.952 355.355 240.079 366.184 207.114 362.425C123.604 352.905 20.7932 284.759 23.3843 262.773C26.8815 233.107 180.636 267.109 180.636 267.109L194.325 236.4L264.869 236.102Z" fill="#4E7CAF" stroke="black" stroke-linecap="round" stroke-linejoin="round"/>
<path d="M24.3653 259.28C19.724 264.345 -14.1727 334.797 190.436 386.055L198.118 371.087C198.118 371.087 61.0291 219.252 24.3653 259.28Z" fill="#4E7CAF" stroke="black" stroke-linecap="round" stroke-linejoin="round"/>
<path d="M198.399 371.087C198.399 371.087 129.758 295.072 76.6279 264.788" stroke="#4B556A" stroke-miterlimit="10"/>
<path d="M239.039 323.405C203.408 403.044 101.917 493.878 101.917 493.878C101.917 493.878 94.2479 486.839 84.6199 486.404C84.6199 486.404 175.437 272.299 226.725 261.913C268.193 253.499 245.026 310.013 239.039 323.405Z" fill="#4E7CAF" stroke="black" stroke-linecap="round" stroke-linejoin="round"/>
<path d="M197.037 121.393C213.701 150.251 191.77 217.102 181.679 227.088C162.99 245.604 81.5237 242.982 81.5237 242.982L78.2155 235.035C78.2155 235.035 123.112 209.083 158.942 207.024C158.942 207.024 168.501 154.933 171.673 139.993C175.669 121.165 185.534 101.474 197.037 121.393Z" fill="#AF6129" stroke="#0F0F0F" stroke-linecap="round" stroke-linejoin="round"/>
<path d="M87.4005 235.726C85.6047 230.958 70.224 233.943 64.1128 236.953C58.9142 239.513 52.627 246.385 51.6004 247.84C50.5737 249.294 48.2889 256.64 48.2889 256.64C48.2889 256.64 50.502 259.121 53.4842 254.795C56.4665 250.469 64.2008 245.514 66.1206 246.599C70.4359 249.042 59.98 250.003 58.836 251.758C57.692 253.513 58.2363 254.557 58.2363 254.557C58.2363 254.557 68.0631 254.083 69.6438 253.866C71.2246 253.648 77.489 250.642 80.5527 247.919C83.6165 245.197 88.5217 238.697 87.4005 235.726Z" fill="#E38E32"/>
<path d="M263.024 104.035C268.069 105.62 283.884 111.861 283.884 111.861C283.884 111.861 282.544 152.376 278.059 161.961C259.273 202.117 265.12 239.116 265.12 239.116C265.12 239.116 220.63 246.966 193.415 239.395C193.415 239.395 196.974 208.845 191.16 205.189C185.345 201.533 175.821 193.32 178.448 176.784C181.075 160.247 180.476 116.881 183.663 114.079C186.851 111.277 200.938 103.986 204.575 104C208.212 104.014 263.024 104.035 263.024 104.035Z" fill="#F4F1ED" stroke="#070707" stroke-linecap="round" stroke-linejoin="round"/>
<path d="M124.436 185.743H24.8151C23.7172 185.743 22.6356 186.024 21.6622 186.563C20.6889 187.101 19.8526 187.881 19.2247 188.836C18.5968 189.79 18.1957 190.892 18.0557 192.046C17.9156 193.201 18.0407 194.374 18.4204 195.466L43.517 267.814H160.174L134.204 192.975C133.467 190.856 132.136 189.028 130.39 187.735C128.643 186.442 126.566 185.747 124.436 185.743Z" fill="#030101" stroke="black" stroke-linecap="round" stroke-linejoin="round"/>
<path d="M122.477 189.412H25.3498C24.2792 189.413 23.2246 189.687 22.2755 190.212C21.3265 190.737 20.511 191.498 19.8986 192.429C19.2861 193.359 18.8947 194.433 18.7577 195.559C18.6207 196.684 18.742 197.828 19.1115 198.894L43.5953 269.442H157.345L132.02 196.465C131.301 194.395 130.001 192.609 128.294 191.348C126.588 190.087 124.557 189.412 122.477 189.412Z" fill="#030101" stroke="black" stroke-linecap="round" stroke-linejoin="round"/>
<path d="M43.5791 268.049H208.549C210.416 268.049 212.206 268.836 213.527 270.235C214.847 271.635 215.589 273.533 215.589 275.513V277.157H50.6192C48.752 277.157 46.9614 276.371 45.6411 274.971C44.3208 273.572 43.5791 271.673 43.5791 269.694V268.049Z" fill="#FDFDFD" stroke="black" stroke-linecap="round" stroke-linejoin="round"/>
<path d="M124.436 185.743H24.8151C23.7172 185.743 22.6356 186.024 21.6622 186.563C20.6889 187.101 19.8526 187.881 19.2247 188.836C18.5968 189.79 18.1957 190.892 18.0557 192.046C17.9156 193.201 18.0407 194.374 18.4204 195.466L43.517 267.814H160.174L134.204 192.975C133.467 190.856 132.136 189.028 130.39 187.735C128.643 186.442 126.566 185.747 124.436 185.743Z" fill="#FDFDFD" stroke="black" stroke-linecap="round" stroke-linejoin="round"/>
<path d="M90.0602 235.748C92.4209 232.968 91.7136 228.213 88.4804 225.127C85.2472 222.041 80.7124 221.792 78.3516 224.572C75.9908 227.351 76.6981 232.106 79.9313 235.193C83.1645 238.279 87.6994 238.527 90.0602 235.748Z" fill="#FDFDFD" stroke="black" stroke-linecap="round" stroke-linejoin="round"/>
<path d="M175.949 271.304H168.977V273.958H175.949V271.304Z" fill="#030101" stroke="black" stroke-linecap="round" stroke-linejoin="round"/>
<path d="M189.27 271.304H182.298V273.958H189.27V271.304Z" fill="#030101" stroke="black" stroke-linecap="round" stroke-linejoin="round"/>
<path d="M218.408 23.947C215.321 24.1725 212.076 24.0301 209.091 23.2104C201.401 21.0987 185.625 19.6283 174.736 37.9469C159.812 63.0524 180.277 74.2265 169.587 87.0453C158.019 100.921 143.375 109.048 155.246 136.544C166.464 162.543 140.755 155.547 142.272 179.275C142.519 183.131 145.401 186.225 149.058 187.476L165.989 193.269C168.32 194.067 170.851 194.059 173.176 193.246L195.375 185.495C195.442 185.471 195.499 185.451 195.566 185.425C197.105 184.823 217.73 176.345 211.228 156.533C204.474 135.957 190.003 133.11 203.565 114.956C213.75 101.326 260.74 104.104 264.96 105.282C266.892 105.821 271.705 107.479 276.358 109.119C282.261 111.2 288.707 107.958 289.323 101.73C290.065 94.2243 289.599 84.5367 284.089 77.8061C271.146 62.002 249.563 73.6598 245.629 55.1089C242.97 42.601 237.807 28.0754 229.229 25.3285C224.854 23.9279 221.122 23.7487 218.408 23.947Z" fill="#1C0E0C"/>
<path d="M231.973 68.4286C231.973 68.4286 231.171 87.3182 237.673 97.01C242.096 103.592 238.123 103.039 253.546 104.919C253.546 104.919 255.156 129.171 219.447 129.171C192.949 129.171 203.558 114.956 203.558 114.956C203.558 114.956 214.62 97.9671 209.852 68.4286H231.973Z" fill="#AF6129" stroke="#0F0F0F" stroke-linecap="round" stroke-linejoin="round"/>
<path d="M232.322 66.9602C232.322 66.9602 233.006 104.919 204.373 104.919C203.794 104.917 203.223 104.776 202.701 104.508C204.207 103.395 213.607 95.1995 208.969 66.4695H232.322C232.322 66.4695 232.322 66.6354 232.322 66.9464V66.9602Z" fill="#1C0E0C"/>
<path d="M233.104 66.3382C233.104 66.3382 229.004 98.7895 209.562 98.9449C196.776 99.0451 189.391 80.0381 186.395 70.0733C182.976 58.6953 186.601 35.9532 204.84 36.24C220.68 36.4922 228.958 59.3898 228.958 59.3898L233.104 66.3382Z" fill="#AF6129" stroke="#0F0F0F" stroke-linecap="round" stroke-linejoin="round"/>
<path d="M229.366 64.6936C229.366 64.6936 228.59 61.8845 229.307 59.3484C229.764 57.7418 230.823 56.2387 233.059 55.6444" stroke="#070707" stroke-linecap="round" stroke-linejoin="round"/>
<path d="M233.058 61.1935L229.307 59.3484" stroke="#070707" stroke-linecap="round" stroke-linejoin="round"/>
<path d="M262.099 114.711C262.099 114.711 250.893 145.504 268.816 162.047C274.595 167.379 283.124 162.507 283.124 162.507" fill="#AF6129"/>
<path d="M262.099 114.711C262.099 114.711 250.893 145.504 268.816 162.047C274.595 167.379 283.124 162.507 283.124 162.507" stroke="#0F0F0F" stroke-linecap="round" stroke-linejoin="round"/>
<path d="M270.508 145.946C276.896 167.389 285.367 197.701 285.367 197.701C251.764 199.636 201.101 221.242 194.931 223.919C184.691 226.338 170.19 235.128 167.403 236.894C164.796 238.466 160.696 242.823 159.457 244.571C158.153 246.396 155.119 252.964 155.119 252.964C155.765 253.302 156.5 253.401 157.206 253.245C157.911 253.088 158.547 252.685 159.011 252.1C160.207 250.718 162.215 247.387 163.825 245.767C162.364 249.654 160.999 253.669 160.999 253.669C160.999 253.669 164.62 254.609 169.261 253.019C171.484 252.259 173.942 247.74 176.542 244.765C179.143 241.79 184.818 243.196 190.499 242.177C196.18 241.157 200.123 232.326 200.123 232.326L200.045 232.181C214.794 232.44 292.358 232.976 309.255 216.239C319.358 206.243 306.262 141.143 289.598 112.289C282.268 99.6014 271.346 101.305 266.225 109.383C264.514 112.075 262.471 113.647 262.386 117.458" fill="#AF6129"/>
<path d="M270.508 145.946C276.896 167.389 285.367 197.701 285.367 197.701C251.764 199.636 201.101 221.242 194.931 223.919C184.691 226.338 170.19 235.128 167.403 236.894C164.796 238.466 160.696 242.823 159.457 244.571C158.153 246.396 155.119 252.964 155.119 252.964C155.765 253.302 156.5 253.401 157.206 253.245C157.911 253.088 158.547 252.685 159.011 252.1C160.207 250.718 162.215 247.387 163.825 245.767C162.364 249.654 160.999 253.669 160.999 253.669C160.999 253.669 164.62 254.609 169.261 253.019C171.484 252.259 173.942 247.74 176.542 244.765C179.143 241.79 184.818 243.196 190.499 242.177C196.18 241.157 200.123 232.326 200.123 232.326L200.045 232.181C214.794 232.44 292.358 232.976 309.255 216.239C319.358 206.243 306.262 141.143 289.598 112.289C282.268 99.6014 271.346 101.305 266.225 109.383C264.514 112.075 262.471 113.647 262.386 117.458" stroke="#0F0F0F" stroke-linecap="round" stroke-linejoin="round"/>
<path d="M163.896 253.928C163.832 253.939 163.767 253.93 163.707 253.904C163.664 253.887 163.625 253.861 163.593 253.828C163.56 253.795 163.534 253.754 163.517 253.71C163.5 253.665 163.492 253.617 163.493 253.569C163.494 253.521 163.505 253.474 163.524 253.43C163.961 252.332 167.84 242.667 169.548 241.358C172.51 239.084 176.369 236.102 176.369 236.102L176.773 236.69C176.773 236.69 172.911 239.675 169.952 241.945C168.648 242.954 165.32 250.78 164.157 253.693C164.136 253.753 164.101 253.805 164.055 253.847C164.01 253.888 163.955 253.916 163.896 253.928Z" stroke="#070707" stroke-linecap="round" stroke-linejoin="round"/>
<path d="M167.586 253.265C167.524 253.275 167.461 253.267 167.404 253.242C167.346 253.218 167.296 253.177 167.258 253.125C167.22 253.072 167.197 253.01 167.19 252.945C167.182 252.88 167.192 252.813 167.217 252.753C167.374 252.408 171.083 243.863 172.817 242.533C175.78 240.263 179.639 237.281 179.639 237.281L180.043 237.868C180.043 237.868 176.18 240.85 173.221 243.124C171.917 244.132 168.889 250.635 167.84 253.057C167.816 253.111 167.781 253.158 167.737 253.194C167.693 253.23 167.641 253.254 167.586 253.265Z" stroke="#070707" stroke-linecap="round" stroke-linejoin="round"/>
<path d="M227.739 73.9397C227.739 73.9397 227.671 115.703 249.01 118.719C270.348 121.735 287.244 106.723 287.244 106.723" fill="#1C0E0C"/>
<path d="M201.349 66.8945L200.195 76.9906L204.223 79.4818" stroke="#070707" stroke-linecap="round" stroke-linejoin="round"/>
<path d="M209.754 67.1278C210.607 66.8105 210.977 65.5856 210.582 64.3918C210.187 63.198 209.175 62.4874 208.323 62.8047C207.47 63.1219 207.099 64.3469 207.495 65.5406C207.89 66.7344 208.901 67.445 209.754 67.1278Z" fill="#1C0E0C"/>
<path d="M195.334 71.0376C196.187 70.7203 196.557 69.4954 196.162 68.3016C195.767 67.1078 194.755 66.3973 193.903 66.7145C193.05 67.0318 192.679 68.2567 193.074 69.4505C193.47 70.6442 194.481 71.3548 195.334 71.0376Z" fill="#1C0E0C"/>
<path d="M203.897 58.0146C203.897 58.0146 206.713 54.4523 212.782 57.5551" stroke="#070707" stroke-linecap="round" stroke-linejoin="round"/>
<path d="M189.012 62.9971C189.012 62.9971 190.599 58.6573 196.453 60.5024" stroke="#070707" stroke-linecap="round" stroke-linejoin="round"/>
<path d="M197.825 34.616C197.825 34.616 207.254 30.4698 210.4 40.362C213.545 50.2542 218.669 58.5156 229.004 52.7696C239.339 47.0236 235.108 39.5569 235.108 39.5569" fill="#1C0E0C"/>
<path d="M230.353 66.4833C234.07 66.4833 237.083 63.2889 237.083 59.3483C237.083 55.4078 234.07 52.2133 230.353 52.2133C226.636 52.2133 223.623 55.4078 223.623 59.3483C223.623 63.2889 226.636 66.4833 230.353 66.4833Z" fill="#AF6129"/>
<path d="M227.798 63.7019C227.798 63.7019 227.019 60.8929 227.739 58.3568C228.192 56.7501 229.252 55.2471 231.487 54.6528" stroke="#070707" stroke-linecap="round" stroke-linejoin="round"/>
<path d="M231.488 60.2018L227.739 58.3567" stroke="#070707" stroke-linecap="round" stroke-linejoin="round"/>
<path d="M227.39 51.7642C225.47 33.1649 208.01 22.5194 207.834 22.4503L216.243 23.0584C217.26 23.4247 226.943 24.8482 235.978 49.5149L227.39 51.7642Z" fill="#EFAF00" stroke="black" stroke-linecap="round" stroke-linejoin="round"/>
<path d="M234.094 76.9513C238.521 76.3252 241.327 69.5998 240.362 61.9298C239.396 54.2598 235.025 48.5496 230.599 49.1758C226.172 49.8019 223.366 56.5273 224.331 64.1973C225.297 71.8673 229.668 77.5775 234.094 76.9513Z" fill="#EFAF00" stroke="black" stroke-linecap="round" stroke-linejoin="round"/>
<path d="M236.889 76.5592C241.315 75.933 244.121 69.2077 243.156 61.5377C242.191 53.8677 237.819 48.1575 233.393 48.7837C228.966 49.4098 226.16 56.1352 227.125 63.8052C228.091 71.4752 232.462 77.1853 236.889 76.5592Z" fill="#EFAF00" stroke="black" stroke-linecap="round" stroke-linejoin="round"/>
<path d="M204.223 84.599C204.223 84.599 210.507 85.7461 213.323 79.1605" stroke="#070707" stroke-linecap="round" stroke-linejoin="round"/>
<path d="M288.366 141.647C288.924 140.624 290.611 138.705 291.924 138.551C292.837 138.444 293.328 139.43 293.539 140.155C294.029 141.843 293.866 143.652 293.423 145.324C292.916 147.243 292.005 149.058 291.052 150.787C290.386 151.997 289.648 153.482 288.636 154.461C287.829 155.242 287.096 154.718 286.458 153.96C285.041 152.279 284.031 150.083 283.246 148.056C282.239 145.455 281.346 142.179 282.654 139.504C283.294 138.196 284.545 137.542 285.848 138.362C286.829 138.979 287.492 139.987 287.851 141.066C287.932 141.308 288.031 141.457 288.195 141.647" stroke="#1B110A" stroke-linecap="round"/>
</g>
</svg>
