<svg width="351" height="434" viewBox="0 0 351 434" fill="none" xmlns="http://www.w3.org/2000/svg">
<g filter="url(#filter0_d_113_3227)">
<rect x="1" y="1" width="102" height="189" rx="10" fill="#191919"/>
<rect x="0.5" y="0.5" width="103" height="190" rx="10.5" stroke="white"/>
</g>
<path d="M46.808 106V83.6H49.176V103.952H61.72V106H46.808ZM44.664 97.712L43.608 96.368L52.952 89.328L54.04 90.704L44.664 97.712Z" fill="white"/>
<g filter="url(#filter1_d_113_3227)">
<rect x="117" y="134" width="130" height="86" rx="10" fill="#191919"/>
<rect x="116.5" y="133.5" width="131" height="87" rx="10.5" stroke="white"/>
</g>
<path d="M177.32 188V165.6H179.272L194.728 185.056H193.704V165.6H196.04V188H194.088L178.664 168.544H179.688V188H177.32ZM188.84 163.584C188.349 163.584 187.912 163.477 187.528 163.264C187.144 163.051 186.792 162.805 186.472 162.528C186.173 162.229 185.875 161.973 185.576 161.76C185.277 161.525 184.968 161.408 184.648 161.408C184.157 161.408 183.763 161.589 183.464 161.952C183.187 162.315 183.027 162.816 182.984 163.456H181.608C181.651 162.389 181.928 161.536 182.44 160.896C182.973 160.256 183.656 159.936 184.488 159.936C184.979 159.936 185.416 160.053 185.8 160.288C186.205 160.501 186.557 160.757 186.856 161.056C187.176 161.333 187.475 161.579 187.752 161.792C188.051 162.005 188.36 162.112 188.68 162.112C189.171 162.112 189.565 161.941 189.864 161.6C190.163 161.237 190.323 160.747 190.344 160.128H191.72C191.699 161.152 191.421 161.984 190.888 162.624C190.355 163.264 189.672 163.584 188.84 163.584Z" fill="white"/>
<g filter="url(#filter2_d_113_3227)">
<rect x="117" y="1" width="130" height="119" rx="10" fill="#191919"/>
<rect x="116.5" y="0.5" width="131" height="120" rx="10.5" stroke="white"/>
</g>
<path d="M181.072 45.688C180.944 46.072 180.816 46.648 180.72 47.096C180.176 49.784 179.632 54.84 179.632 59.224C179.632 63.384 180.528 67.224 181.52 70.232L179.184 70.936C178.256 68.088 177.392 63.544 177.392 59.48C177.392 55.096 178.032 49.912 178.32 47.16C178.384 46.584 178.416 46.008 178.416 45.592L181.072 45.688ZM175.92 49.624C181.552 49.624 187.12 49.176 191.536 48.184L191.568 50.552C186.96 51.352 180.656 51.832 175.888 51.832C174.512 51.832 172.016 51.704 170.704 51.64L170.64 49.24C171.76 49.432 174.544 49.624 175.92 49.624ZM189.264 53.4C189.072 53.816 188.784 54.68 188.592 55.192C186.704 61.112 183.504 65.56 180.144 68.152C178.096 69.72 175.536 70.904 173.264 70.904C171.152 70.904 169.488 69.624 169.488 66.904C169.488 62.52 173.552 58.008 178.288 56.184C180.432 55.352 183.024 54.872 185.104 54.872C191.152 54.872 194.96 58.392 194.96 62.872C194.96 67.448 191.92 71.448 184.496 72.632L183.12 70.488C188.88 69.848 192.464 66.872 192.464 62.744C192.464 59.64 189.84 56.92 185.072 56.92C182.384 56.92 180.016 57.688 178.384 58.424C174.768 60.024 171.888 63.544 171.888 66.488C171.888 67.8 172.528 68.44 173.712 68.44C175.312 68.44 177.392 67.544 179.44 65.752C182.288 63.256 184.912 59.8 186.384 54.616C186.512 54.136 186.672 53.272 186.704 52.76L189.264 53.4Z" fill="white"/>
<g filter="url(#filter3_d_113_3227)">
<rect x="261" y="1" width="85" height="219" rx="10" fill="#191919"/>
<rect x="260.5" y="0.5" width="86" height="220" rx="10.5" stroke="white"/>
</g>
<path d="M299.057 108.616H310.897V110.632H299.057V108.616ZM299.313 118.952H312.785V121H296.945V98.6H312.305V100.648H299.313V118.952ZM305.073 127.08C304.71 127.08 304.39 126.952 304.113 126.696C303.836 126.44 303.697 126.109 303.697 125.704C303.697 125.299 303.836 124.968 304.113 124.712C304.39 124.456 304.71 124.328 305.073 124.328C305.457 124.328 305.777 124.456 306.033 124.712C306.31 124.968 306.449 125.299 306.449 125.704C306.449 126.109 306.31 126.44 306.033 126.696C305.777 126.952 305.457 127.08 305.073 127.08Z" fill="white"/>
<g filter="url(#filter4_d_113_3227)">
<rect x="1" y="204" width="102" height="129" rx="10" fill="#191919"/>
<rect x="0.5" y="203.5" width="103" height="130" rx="10.5" stroke="white"/>
</g>
<path d="M58.4333 252.536H61.1213V281.496H58.4333V252.536ZM60.3853 264.28H65.7293V266.488H60.3853V264.28ZM51.0413 255.672H53.6333C53.6333 263.896 49.8573 271.32 40.5133 276.024L39.0413 273.976C47.0413 269.912 51.0413 263.736 51.0413 256.088V255.672ZM40.3853 255.672H52.4173V257.848H40.3853V255.672Z" fill="white"/>
<g filter="url(#filter5_d_113_3227)">
<rect x="117" y="234" width="82" height="195" rx="10" fill="#191919"/>
<rect x="116.5" y="233.5" width="83" height="196" rx="10.5" stroke="white"/>
</g>
<path d="M149.136 320.696C148.976 321.432 148.88 322.968 148.848 323.8C148.816 325.784 148.848 328.728 149.072 331.352C149.616 336.696 151.152 340.248 153.456 340.248C155.088 340.248 156.592 336.952 157.424 333.752L159.44 336.024C157.488 341.432 155.568 343.288 153.392 343.288C150.352 343.288 147.472 340.28 146.576 331.992C146.288 329.24 146.224 325.336 146.224 323.48C146.224 322.744 146.224 321.368 146.032 320.632L149.136 320.696ZM165.776 321.56C168.656 325.272 170.96 332.088 171.44 337.496L168.848 338.52C168.304 332.76 166.352 326.168 163.312 322.424L165.776 321.56Z" fill="white"/>
<g filter="url(#filter6_d_113_3227)">
<rect x="213" y="234" width="133" height="195" rx="10" fill="#191919"/>
<rect x="212.5" y="233.5" width="134" height="196" rx="10.5" stroke="white"/>
</g>
<path d="M276.589 343.672L277.421 341.048C279.917 341.048 282.061 340.984 283.853 340.856C285.667 340.728 287.149 340.525 288.301 340.248C289.475 339.949 290.339 339.555 290.893 339.064C291.469 338.552 291.757 337.933 291.757 337.208C291.757 336.397 291.608 335.459 291.309 334.392C291.011 333.325 290.627 332.184 290.157 330.968L292.621 330.104C292.899 330.787 293.155 331.523 293.389 332.312C293.645 333.08 293.859 333.848 294.029 334.616C294.2 335.363 294.285 336.056 294.285 336.696C294.285 337.955 293.997 339.032 293.421 339.928C292.845 340.803 291.885 341.517 290.541 342.072C289.197 342.627 287.384 343.032 285.101 343.288C282.84 343.544 280.003 343.672 276.589 343.672ZM276.589 343.672C274.691 343.672 273.016 343.544 271.565 343.288C270.136 343.053 268.941 342.68 267.981 342.168C267.021 341.656 266.296 340.995 265.805 340.184C265.315 339.352 265.069 338.349 265.069 337.176C265.069 336.643 265.112 336.099 265.197 335.544C265.283 334.968 265.389 334.392 265.517 333.816C265.667 333.24 265.816 332.685 265.965 332.152L268.365 332.76C268.28 333.08 268.184 333.464 268.077 333.912C267.971 334.339 267.875 334.776 267.789 335.224C267.725 335.672 267.693 336.077 267.693 336.44C267.693 337.549 267.971 338.445 268.525 339.128C269.101 339.789 270.093 340.28 271.501 340.6C272.909 340.899 274.883 341.048 277.421 341.048L278.061 342.648L276.589 343.672ZM279.661 349.752C279.213 349.752 278.829 349.592 278.509 349.272C278.211 348.973 278.061 348.611 278.061 348.184C278.061 347.757 278.211 347.384 278.509 347.064C278.829 346.744 279.213 346.584 279.661 346.584C280.088 346.584 280.451 346.744 280.749 347.064C281.069 347.384 281.229 347.757 281.229 348.184C281.229 348.611 281.069 348.973 280.749 349.272C280.451 349.592 280.088 349.752 279.661 349.752Z" fill="white"/>
<g filter="url(#filter7_d_113_3227)">
<rect x="1" y="347" width="102" height="82" rx="10" fill="#191919"/>
<rect x="0.5" y="346.5" width="103" height="83" rx="10.5" stroke="white"/>
</g>
<path d="M41.0953 399L51.3353 376.6H53.6713L63.9113 399H61.4153L52.0073 377.976H52.9673L43.5593 399H41.0953ZM45.1273 393.016L45.8313 391.096H58.8553L59.5593 393.016H45.1273Z" fill="white"/>
<defs>
<filter id="filter0_d_113_3227" x="0" y="0" width="108" height="195" filterUnits="userSpaceOnUse" color-interpolation-filters="sRGB">
<feFlood flood-opacity="0" result="BackgroundImageFix"/>
<feColorMatrix in="SourceAlpha" type="matrix" values="0 0 0 0 0 0 0 0 0 0 0 0 0 0 0 0 0 0 127 0" result="hardAlpha"/>
<feOffset dx="4" dy="4"/>
<feComposite in2="hardAlpha" operator="out"/>
<feColorMatrix type="matrix" values="0 0 0 0 0 0 0 0 0 0 0 0 0 0 0 0 0 0 1 0"/>
<feBlend mode="normal" in2="BackgroundImageFix" result="effect1_dropShadow_113_3227"/>
<feBlend mode="normal" in="SourceGraphic" in2="effect1_dropShadow_113_3227" result="shape"/>
</filter>
<filter id="filter1_d_113_3227" x="116" y="133" width="136" height="92" filterUnits="userSpaceOnUse" color-interpolation-filters="sRGB">
<feFlood flood-opacity="0" result="BackgroundImageFix"/>
<feColorMatrix in="SourceAlpha" type="matrix" values="0 0 0 0 0 0 0 0 0 0 0 0 0 0 0 0 0 0 127 0" result="hardAlpha"/>
<feOffset dx="4" dy="4"/>
<feComposite in2="hardAlpha" operator="out"/>
<feColorMatrix type="matrix" values="0 0 0 0 0 0 0 0 0 0 0 0 0 0 0 0 0 0 1 0"/>
<feBlend mode="normal" in2="BackgroundImageFix" result="effect1_dropShadow_113_3227"/>
<feBlend mode="normal" in="SourceGraphic" in2="effect1_dropShadow_113_3227" result="shape"/>
</filter>
<filter id="filter2_d_113_3227" x="116" y="0" width="136" height="125" filterUnits="userSpaceOnUse" color-interpolation-filters="sRGB">
<feFlood flood-opacity="0" result="BackgroundImageFix"/>
<feColorMatrix in="SourceAlpha" type="matrix" values="0 0 0 0 0 0 0 0 0 0 0 0 0 0 0 0 0 0 127 0" result="hardAlpha"/>
<feOffset dx="4" dy="4"/>
<feComposite in2="hardAlpha" operator="out"/>
<feColorMatrix type="matrix" values="0 0 0 0 0 0 0 0 0 0 0 0 0 0 0 0 0 0 1 0"/>
<feBlend mode="normal" in2="BackgroundImageFix" result="effect1_dropShadow_113_3227"/>
<feBlend mode="normal" in="SourceGraphic" in2="effect1_dropShadow_113_3227" result="shape"/>
</filter>
<filter id="filter3_d_113_3227" x="260" y="0" width="91" height="225" filterUnits="userSpaceOnUse" color-interpolation-filters="sRGB">
<feFlood flood-opacity="0" result="BackgroundImageFix"/>
<feColorMatrix in="SourceAlpha" type="matrix" values="0 0 0 0 0 0 0 0 0 0 0 0 0 0 0 0 0 0 127 0" result="hardAlpha"/>
<feOffset dx="4" dy="4"/>
<feComposite in2="hardAlpha" operator="out"/>
<feColorMatrix type="matrix" values="0 0 0 0 0 0 0 0 0 0 0 0 0 0 0 0 0 0 1 0"/>
<feBlend mode="normal" in2="BackgroundImageFix" result="effect1_dropShadow_113_3227"/>
<feBlend mode="normal" in="SourceGraphic" in2="effect1_dropShadow_113_3227" result="shape"/>
</filter>
<filter id="filter4_d_113_3227" x="0" y="203" width="108" height="135" filterUnits="userSpaceOnUse" color-interpolation-filters="sRGB">
<feFlood flood-opacity="0" result="BackgroundImageFix"/>
<feColorMatrix in="SourceAlpha" type="matrix" values="0 0 0 0 0 0 0 0 0 0 0 0 0 0 0 0 0 0 127 0" result="hardAlpha"/>
<feOffset dx="4" dy="4"/>
<feComposite in2="hardAlpha" operator="out"/>
<feColorMatrix type="matrix" values="0 0 0 0 0 0 0 0 0 0 0 0 0 0 0 0 0 0 1 0"/>
<feBlend mode="normal" in2="BackgroundImageFix" result="effect1_dropShadow_113_3227"/>
<feBlend mode="normal" in="SourceGraphic" in2="effect1_dropShadow_113_3227" result="shape"/>
</filter>
<filter id="filter5_d_113_3227" x="116" y="233" width="88" height="201" filterUnits="userSpaceOnUse" color-interpolation-filters="sRGB">
<feFlood flood-opacity="0" result="BackgroundImageFix"/>
<feColorMatrix in="SourceAlpha" type="matrix" values="0 0 0 0 0 0 0 0 0 0 0 0 0 0 0 0 0 0 127 0" result="hardAlpha"/>
<feOffset dx="4" dy="4"/>
<feComposite in2="hardAlpha" operator="out"/>
<feColorMatrix type="matrix" values="0 0 0 0 0 0 0 0 0 0 0 0 0 0 0 0 0 0 1 0"/>
<feBlend mode="normal" in2="BackgroundImageFix" result="effect1_dropShadow_113_3227"/>
<feBlend mode="normal" in="SourceGraphic" in2="effect1_dropShadow_113_3227" result="shape"/>
</filter>
<filter id="filter6_d_113_3227" x="212" y="233" width="139" height="201" filterUnits="userSpaceOnUse" color-interpolation-filters="sRGB">
<feFlood flood-opacity="0" result="BackgroundImageFix"/>
<feColorMatrix in="SourceAlpha" type="matrix" values="0 0 0 0 0 0 0 0 0 0 0 0 0 0 0 0 0 0 127 0" result="hardAlpha"/>
<feOffset dx="4" dy="4"/>
<feComposite in2="hardAlpha" operator="out"/>
<feColorMatrix type="matrix" values="0 0 0 0 0 0 0 0 0 0 0 0 0 0 0 0 0 0 1 0"/>
<feBlend mode="normal" in2="BackgroundImageFix" result="effect1_dropShadow_113_3227"/>
<feBlend mode="normal" in="SourceGraphic" in2="effect1_dropShadow_113_3227" result="shape"/>
</filter>
<filter id="filter7_d_113_3227" x="0" y="346" width="108" height="88" filterUnits="userSpaceOnUse" color-interpolation-filters="sRGB">
<feFlood flood-opacity="0" result="BackgroundImageFix"/>
<feColorMatrix in="SourceAlpha" type="matrix" values="0 0 0 0 0 0 0 0 0 0 0 0 0 0 0 0 0 0 127 0" result="hardAlpha"/>
<feOffset dx="4" dy="4"/>
<feComposite in2="hardAlpha" operator="out"/>
<feColorMatrix type="matrix" values="0 0 0 0 0 0 0 0 0 0 0 0 0 0 0 0 0 0 1 0"/>
<feBlend mode="normal" in2="BackgroundImageFix" result="effect1_dropShadow_113_3227"/>
<feBlend mode="normal" in="SourceGraphic" in2="effect1_dropShadow_113_3227" result="shape"/>
</filter>
</defs>
</svg>
