<svg width="329" height="308" viewBox="0 0 329 308" fill="none" xmlns="http://www.w3.org/2000/svg">
<mask id="mask0_37_107" style="mask-type:alpha" maskUnits="userSpaceOnUse" x="0" y="0" width="329" height="308">
<rect width="329" height="308" fill="#D9D9D9"/>
</mask>
<g mask="url(#mask0_37_107)">
<path d="M264.869 228.102C264.869 228.102 299.594 289.059 283.773 318.207C267.952 347.355 240.079 358.184 207.114 354.425C123.605 344.905 20.7933 276.759 23.3844 254.773C26.8817 225.107 180.636 259.109 180.636 259.109L194.325 228.4L264.869 228.102Z" fill="#C5DCDD" stroke="black" stroke-linecap="round" stroke-linejoin="round"/>
<path d="M24.3655 251.28C19.7243 256.345 -14.1724 326.797 190.437 378.055L198.119 363.087C198.119 363.087 61.0294 211.252 24.3655 251.28Z" fill="#C5DCDD" stroke="black" stroke-linecap="round" stroke-linejoin="round"/>
<path d="M198.399 363.087C198.399 363.087 129.758 287.072 76.6282 256.788" stroke="#4B556A" stroke-miterlimit="10"/>
<path d="M239.039 315.405C203.409 395.044 101.917 485.878 101.917 485.878C101.917 485.878 94.2481 478.839 84.6201 478.404C84.6201 478.404 175.437 264.299 226.726 253.913C268.194 245.499 245.027 302.013 239.039 315.405Z" fill="#C5DCDD" stroke="black" stroke-linecap="round" stroke-linejoin="round"/>
<path d="M197.036 113.393C213.701 142.251 191.769 209.102 181.679 219.088C162.99 237.604 81.5235 234.982 81.5235 234.982L78.2153 227.035C78.2153 227.035 123.112 201.083 158.942 199.024C158.942 199.024 168.501 146.933 171.672 131.993C175.668 113.165 185.534 93.4742 197.036 113.393Z" fill="#AF6129" stroke="#0F0F0F" stroke-linecap="round" stroke-linejoin="round"/>
<path d="M87.4004 227.726C85.6045 222.958 70.2239 225.943 64.1127 228.953C58.9141 231.513 52.6269 238.385 51.6002 239.84C50.5736 241.294 48.2888 248.64 48.2888 248.64C48.2888 248.64 50.5019 251.121 53.4841 246.795C56.4664 242.469 64.2007 237.514 66.1204 238.599C70.4357 241.042 59.9799 242.003 58.8359 243.758C57.6919 245.513 58.2362 246.557 58.2362 246.557C58.2362 246.557 68.063 246.083 69.6437 245.866C71.2245 245.648 77.4889 242.642 80.5526 239.919C83.6164 237.197 88.5216 230.697 87.4004 227.726Z" fill="#E38E32"/>
<path d="M263.305 95.9343C268.35 97.5202 284.164 103.76 284.164 103.76C284.164 103.76 282.825 144.276 278.34 153.861C259.553 194.017 265.401 231.015 265.401 231.015C265.401 231.015 220.911 238.865 193.696 231.295C193.696 231.295 197.255 200.744 191.441 197.089C185.626 193.433 176.102 185.22 178.729 168.684C181.356 152.147 180.757 108.781 183.944 105.979C187.132 103.176 201.218 95.8859 204.856 95.8997C208.493 95.9136 263.305 95.9343 263.305 95.9343Z" fill="#F4F1ED" stroke="#070707" stroke-linecap="round" stroke-linejoin="round"/>
<path d="M124.436 177.743H24.8151C23.7172 177.743 22.6356 178.024 21.6622 178.563C20.6889 179.101 19.8526 179.881 19.2247 180.836C18.5968 181.79 18.1957 182.892 18.0557 184.046C17.9156 185.201 18.0407 186.374 18.4204 187.466L43.517 259.814H160.174L134.204 184.975C133.467 182.856 132.136 181.028 130.39 179.735C128.643 178.442 126.566 177.747 124.436 177.743Z" fill="#030101" stroke="black" stroke-linecap="round" stroke-linejoin="round"/>
<path d="M122.477 181.412H25.3499C24.2793 181.413 23.2247 181.687 22.2757 182.212C21.3266 182.737 20.5112 183.498 19.8987 184.429C19.2862 185.359 18.8949 186.433 18.7578 187.559C18.6208 188.684 18.7422 189.828 19.1116 190.894L43.5955 261.442H157.345L132.02 188.465C131.301 186.395 130.001 184.609 128.294 183.348C126.588 182.087 124.557 181.412 122.477 181.412Z" fill="#030101" stroke="black" stroke-linecap="round" stroke-linejoin="round"/>
<path d="M43.5791 260.049H208.549C210.416 260.049 212.206 260.836 213.527 262.235C214.847 263.635 215.589 265.533 215.589 267.513V269.157H50.6192C48.752 269.157 46.9614 268.371 45.6411 266.971C44.3208 265.572 43.5791 263.673 43.5791 261.694V260.049Z" fill="#FDFDFD" stroke="black" stroke-linecap="round" stroke-linejoin="round"/>
<path d="M124.436 177.743H24.8151C23.7172 177.743 22.6356 178.024 21.6622 178.563C20.6889 179.101 19.8526 179.881 19.2247 180.836C18.5968 181.79 18.1957 182.892 18.0557 184.046C17.9156 185.201 18.0407 186.374 18.4204 187.466L43.517 259.814H160.174L134.204 184.975C133.467 182.856 132.136 181.028 130.39 179.735C128.643 178.442 126.566 177.747 124.436 177.743Z" fill="#FDFDFD" stroke="black" stroke-linecap="round" stroke-linejoin="round"/>
<path d="M90.06 227.748C92.4208 224.968 91.7135 220.213 88.4803 217.127C85.247 214.041 80.7122 213.792 78.3515 216.572C75.9907 219.351 76.6979 224.106 79.9312 227.193C83.1644 230.279 87.6993 230.527 90.06 227.748Z" fill="#FDFDFD" stroke="black" stroke-linecap="round" stroke-linejoin="round"/>
<path d="M175.949 263.304H168.977V265.958H175.949V263.304Z" fill="#030101" stroke="black" stroke-linecap="round" stroke-linejoin="round"/>
<path d="M189.27 263.304H182.298V265.958H189.27V263.304Z" fill="#030101" stroke="black" stroke-linecap="round" stroke-linejoin="round"/>
<path d="M218.408 15.947C215.321 16.1725 212.076 16.0301 209.091 15.2104C201.401 13.0987 185.625 11.6283 174.736 29.9469C159.812 55.0524 180.277 66.2265 169.587 79.0453C158.019 92.9213 143.375 101.048 155.246 128.544C166.464 154.543 140.755 147.547 142.272 171.275C142.519 175.131 145.401 178.225 149.058 179.476L165.989 185.269C168.32 186.067 170.851 186.059 173.176 185.246L195.375 177.495C195.442 177.471 195.499 177.451 195.566 177.425C197.105 176.823 217.73 168.345 211.228 148.533C204.474 127.957 190.003 125.11 203.565 106.956C213.75 93.3256 260.74 96.1036 264.96 97.2818C266.892 97.8209 271.705 99.4791 276.358 101.119C282.261 103.2 288.707 99.9582 289.323 93.7297C290.065 86.2243 289.599 76.5367 284.089 69.8061C271.146 54.002 249.563 65.6598 245.629 47.1089C242.97 34.601 237.807 20.0754 229.229 17.3285C224.854 15.9279 221.122 15.7487 218.408 15.947Z" fill="#1C0E0C"/>
<path d="M231.973 60.4286C231.973 60.4286 231.171 79.3182 237.673 89.01C242.096 95.5922 238.123 95.0393 253.546 96.919C253.546 96.919 255.156 121.171 219.447 121.171C192.949 121.171 203.558 106.956 203.558 106.956C203.558 106.956 214.62 89.9671 209.852 60.4286H231.973Z" fill="#AF6129" stroke="#0F0F0F" stroke-linecap="round" stroke-linejoin="round"/>
<path d="M232.322 58.9602C232.322 58.9602 233.006 96.919 204.373 96.919C203.794 96.9167 203.223 96.7762 202.701 96.5078C204.207 95.3952 213.607 87.1995 208.969 58.4695H232.322C232.322 58.4695 232.322 58.6354 232.322 58.9464V58.9602Z" fill="#1C0E0C"/>
<path d="M233.104 58.3382C233.104 58.3382 229.004 90.7895 209.562 90.9449C196.776 91.0451 189.39 72.0381 186.395 62.0733C182.976 50.6953 186.6 27.9532 204.839 28.24C220.68 28.4922 228.958 51.3898 228.958 51.3898L233.104 58.3382Z" fill="#AF6129" stroke="#0F0F0F" stroke-linecap="round" stroke-linejoin="round"/>
<path d="M229.366 56.6936C229.366 56.6936 228.59 53.8845 229.307 51.3484C229.764 49.7418 230.823 48.2387 233.059 47.6444" stroke="#070707" stroke-linecap="round" stroke-linejoin="round"/>
<path d="M233.058 53.1935L229.307 51.3484" stroke="#070707" stroke-linecap="round" stroke-linejoin="round"/>
<path d="M262.099 106.711C262.099 106.711 250.893 137.504 268.816 154.047C274.595 159.379 283.124 154.507 283.124 154.507" fill="#AF6129"/>
<path d="M262.099 106.711C262.099 106.711 250.893 137.504 268.816 154.047C274.595 159.379 283.124 154.507 283.124 154.507" stroke="#0F0F0F" stroke-linecap="round" stroke-linejoin="round"/>
<path d="M270.508 137.946C276.896 159.389 285.367 189.701 285.367 189.701C251.764 191.636 201.101 213.242 194.931 215.919C184.691 218.338 170.19 227.128 167.403 228.894C164.796 230.466 160.696 234.823 159.457 236.571C158.153 238.396 155.119 244.964 155.119 244.964C155.765 245.302 156.5 245.401 157.205 245.245C157.911 245.088 158.547 244.685 159.011 244.1C160.207 242.718 162.214 239.387 163.825 237.767C162.364 241.654 160.999 245.669 160.999 245.669C160.999 245.669 164.62 246.609 169.261 245.019C171.484 244.259 173.941 239.74 176.542 236.765C179.143 233.79 184.818 235.196 190.499 234.177C196.18 233.157 200.123 224.326 200.123 224.326L200.045 224.181C214.793 224.44 292.358 224.976 309.254 208.239C319.358 198.243 306.262 133.143 289.598 104.289C282.267 91.6014 271.345 93.3048 266.225 101.383C264.514 104.075 262.47 105.647 262.386 109.458" fill="#AF6129"/>
<path d="M270.508 137.946C276.896 159.389 285.367 189.701 285.367 189.701C251.764 191.636 201.101 213.242 194.931 215.919C184.691 218.338 170.19 227.128 167.403 228.894C164.796 230.466 160.696 234.823 159.457 236.571C158.153 238.396 155.119 244.964 155.119 244.964C155.765 245.302 156.5 245.401 157.205 245.245C157.911 245.088 158.547 244.685 159.011 244.1C160.207 242.718 162.214 239.387 163.825 237.767C162.364 241.654 160.999 245.669 160.999 245.669C160.999 245.669 164.62 246.609 169.261 245.019C171.484 244.259 173.941 239.74 176.542 236.765C179.143 233.79 184.818 235.196 190.499 234.177C196.18 233.157 200.123 224.326 200.123 224.326L200.045 224.181C214.793 224.44 292.358 224.976 309.254 208.239C319.358 198.243 306.262 133.143 289.598 104.289C282.267 91.6014 271.345 93.3048 266.225 101.383C264.514 104.075 262.47 105.647 262.386 109.458" stroke="#0F0F0F" stroke-linecap="round" stroke-linejoin="round"/>
<path d="M163.896 245.928C163.832 245.939 163.767 245.93 163.707 245.904C163.664 245.887 163.625 245.861 163.593 245.828C163.56 245.795 163.534 245.754 163.517 245.71C163.5 245.665 163.492 245.617 163.493 245.569C163.494 245.521 163.505 245.474 163.524 245.43C163.961 244.332 167.84 234.667 169.548 233.358C172.51 231.084 176.369 228.102 176.369 228.102L176.773 228.69C176.773 228.69 172.911 231.675 169.952 233.945C168.648 234.954 165.32 242.78 164.157 245.693C164.136 245.753 164.101 245.805 164.055 245.847C164.01 245.888 163.955 245.916 163.896 245.928Z" stroke="#070707" stroke-linecap="round" stroke-linejoin="round"/>
<path d="M167.586 245.265C167.524 245.275 167.461 245.267 167.404 245.242C167.346 245.218 167.296 245.177 167.258 245.125C167.22 245.072 167.197 245.01 167.19 244.945C167.182 244.88 167.192 244.813 167.217 244.753C167.374 244.408 171.083 235.863 172.817 234.533C175.78 232.263 179.639 229.281 179.639 229.281L180.043 229.868C180.043 229.868 176.18 232.85 173.221 235.124C171.917 236.132 168.889 242.635 167.84 245.057C167.816 245.111 167.781 245.158 167.737 245.194C167.693 245.23 167.641 245.254 167.586 245.265Z" stroke="#070707" stroke-linecap="round" stroke-linejoin="round"/>
<path d="M227.74 65.9397C227.74 65.9397 227.671 107.703 249.01 110.719C270.348 113.735 287.245 98.7226 287.245 98.7226" fill="#1C0E0C"/>
<path d="M201.349 58.8945L200.195 68.9906L204.224 71.4818" stroke="#070707" stroke-linecap="round" stroke-linejoin="round"/>
<path d="M209.754 59.1278C210.607 58.8105 210.978 57.5856 210.582 56.3918C210.187 55.198 209.176 54.4874 208.323 54.8047C207.47 55.1219 207.099 56.3469 207.495 57.5406C207.89 58.7344 208.902 59.445 209.754 59.1278Z" fill="#1C0E0C"/>
<path d="M195.334 63.0376C196.187 62.7203 196.557 61.4954 196.162 60.3016C195.767 59.1078 194.755 58.3973 193.903 58.7145C193.05 59.0318 192.679 60.2567 193.075 61.4505C193.47 62.6442 194.481 63.3548 195.334 63.0376Z" fill="#1C0E0C"/>
<path d="M203.897 50.0146C203.897 50.0146 206.713 46.4523 212.782 49.5551" stroke="#070707" stroke-linecap="round" stroke-linejoin="round"/>
<path d="M189.012 54.9971C189.012 54.9971 190.599 50.6573 196.453 52.5024" stroke="#070707" stroke-linecap="round" stroke-linejoin="round"/>
<path d="M197.825 26.616C197.825 26.616 207.255 22.4698 210.4 32.362C213.545 42.2542 218.669 50.5156 229.004 44.7696C239.339 39.0236 235.109 31.5569 235.109 31.5569" fill="#1C0E0C"/>
<path d="M230.353 58.4833C234.07 58.4833 237.083 55.2889 237.083 51.3483C237.083 47.4078 234.07 44.2133 230.353 44.2133C226.636 44.2133 223.623 47.4078 223.623 51.3483C223.623 55.2889 226.636 58.4833 230.353 58.4833Z" fill="#AF6129"/>
<path d="M227.798 55.7019C227.798 55.7019 227.019 52.8929 227.739 50.3568C228.192 48.7501 229.252 47.2471 231.487 46.6528" stroke="#070707" stroke-linecap="round" stroke-linejoin="round"/>
<path d="M231.488 52.2018L227.74 50.3567" stroke="#070707" stroke-linecap="round" stroke-linejoin="round"/>
<path d="M227.39 43.7642C225.47 25.1649 208.01 14.5194 207.834 14.4503L216.243 15.0584C217.26 15.4247 226.943 16.8482 235.978 41.5149L227.39 43.7642Z" fill="#EFAF00" stroke="black" stroke-linecap="round" stroke-linejoin="round"/>
<path d="M234.094 68.9513C238.521 68.3252 241.327 61.5998 240.362 53.9298C239.396 46.2598 235.025 40.5496 230.599 41.1758C226.172 41.8019 223.366 48.5273 224.331 56.1973C225.297 63.8673 229.668 69.5775 234.094 68.9513Z" fill="#EFAF00" stroke="black" stroke-linecap="round" stroke-linejoin="round"/>
<path d="M236.889 68.5592C241.315 67.933 244.121 61.2077 243.156 53.5377C242.191 45.8677 237.819 40.1575 233.393 40.7837C228.966 41.4098 226.16 48.1352 227.125 55.8052C228.091 63.4752 232.462 69.1853 236.889 68.5592Z" fill="#EFAF00" stroke="black" stroke-linecap="round" stroke-linejoin="round"/>
<path d="M204.223 76.599C204.223 76.599 210.507 77.7461 213.323 71.1605" stroke="#070707" stroke-linecap="round" stroke-linejoin="round"/>
<path d="M288.366 133.647C288.924 132.624 290.611 130.705 291.924 130.551C292.837 130.444 293.328 131.43 293.539 132.155C294.029 133.843 293.866 135.652 293.423 137.324C292.916 139.243 292.005 141.058 291.052 142.787C290.386 143.997 289.648 145.482 288.636 146.461C287.829 147.242 287.096 146.718 286.458 145.96C285.041 144.279 284.031 142.083 283.246 140.056C282.239 137.455 281.346 134.179 282.654 131.504C283.294 130.196 284.545 129.542 285.848 130.362C286.829 130.979 287.492 131.987 287.851 133.066C287.932 133.308 288.031 133.457 288.195 133.647" stroke="#1B110A" stroke-linecap="round"/>
</g>
</svg>
