<svg width="317" height="359" viewBox="0 0 317 359" fill="none" xmlns="http://www.w3.org/2000/svg">
<path d="M53.4764 357.904C58.1701 358.098 64.6323 358.089 71.0614 357.936C82.6884 357.654 94.1005 356.905 94.2575 356.04C95.84 355.73 95.245 294.174 93.9889 290.261C92.613 285.991 78.5896 288.184 74.4991 288.184C69.5079 288.184 62.1036 287.897 57.0793 288.332C53.0342 288.679 49.3693 289.664 49.1214 294.748C48.3859 309.865 49.0512 334.067 49.0759 351.261C49.0801 355.586 48.9148 357.705 53.4764 357.904Z" fill="white"/>
<path d="M37.5273 182.489C44.9068 178.16 46.4433 167.476 51.7073 161L39.4146 156L32.8873 176.013C29.714 180.833 33.4161 184.904 37.5273 182.489Z" fill="white"/>
<path d="M30.3174 164.023L48.8957 161.844L41.9691 127.017L49.456 164.662L63.1902 161.844C60.1276 169.708 57.5515 177.797 55.4802 186.056C52.2119 199.105 45.2498 248.925 48.3611 258.075L51.3567 258.102C50.2782 259.879 24.8427 288.633 35.1268 287.578C43.3605 286.73 51.6343 286.475 59.8971 286.815C61.1367 286.87 71.9786 286.847 83.1676 286.569C84.5642 286.532 87.159 280.352 88.539 280.311C90.1545 280.26 90.5636 286.324 92.1171 286.287C101.261 285.922 108.83 285.334 109.058 284.437C109.235 283.669 110.64 262.414 110.81 258.634H111.099L110.814 245.682L123.593 247.926C121.941 278.59 120.176 318.992 122.098 324.644H135.948C130.779 329.881 105.091 354.203 116.772 353.218C126.937 352.373 137.134 352.12 147.323 352.459C148.847 352.51 162.226 352.487 176.026 352.214C177.749 352.177 180.952 345.997 182.662 345.951C184.662 345.904 185.162 351.992 187.083 351.927C198.359 351.566 207.693 351.002 207.953 350.077C208.189 349.254 210.18 324.7 210.13 323.71H210.048C210.606 318.372 209.878 290.867 209.717 273.224C210.23 275.042 255.824 273.918 260.44 273.918C290.602 273.918 298.866 252.043 304.125 223.386C309.146 196.094 314.823 155.156 315.141 145.918C315.554 133.562 304.993 122.669 293.321 121.027C282.991 119.574 251.036 119.315 239.9 120.439C224.984 87.559 208.916 79.5332 198.442 83.3958C198.351 81.1523 198.185 78.9273 197.946 76.767C197.396 71.8406 196.987 64.6984 196.706 57.8013C198.032 57.9771 197.504 58.1066 198.904 58.1066C202.404 58.1066 206.548 37.2906 207.618 33.2014C209.436 26.2627 208.585 17.3442 203.371 12.8711C196.384 6.85755 175.865 -1.75567 168.329 1.70442C155.38 7.64392 159.673 19.6525 168.184 22.6777C165.358 26.1008 162.759 30.6757 160.648 36.2683C159.507 35.3273 158.127 34.8213 156.71 34.825C154.887 34.825 153.138 35.636 151.848 37.0795C150.559 38.5231 149.835 40.4809 149.835 42.5224C149.835 44.5638 150.559 46.5216 151.848 47.9652C153.138 49.4087 154.887 50.2197 156.71 50.2197C156.78 50.2197 156.846 50.2197 156.917 50.2197C155.964 55.6572 155.447 61.1792 155.371 66.7198C155.177 78.2843 171.485 78.4786 171.51 78.918C171.923 82.6187 174.911 93.6095 175.704 100.396C171.527 97.9716 163.722 96.6949 147.856 99.9792L132.791 103.106C131.603 102.119 130.491 101.024 129.465 99.8312C124.341 93.9842 130.659 81.7397 119.197 77.6598C119.086 77.0122 118.982 76.3461 118.896 75.6707L113.388 38.3823C112.937 36.8558 112.347 32.9608 108.587 33.4373L90.6628 36.0971C84.622 36.8835 85.6756 40.9403 86.5309 46.6809L88.1217 58.6432C82.2256 59.9569 88.3035 74.0748 89.0059 76.5496C84.6757 66.4377 81.8165 75.7679 85.1385 85.3016C88.1093 93.8316 90.2 101.298 97.786 110.341L40.9899 122.118L41.9691 127.031C26.2351 129.561 12.0175 138.905 5.2661 150.47L4.49998 151L2.62999 153.407L2 156L2.62999 156.15C1.55833 159.139 1.0505 162.344 1.1384 165.564C1.31194 170.754 6.24534 168.853 6.50978 171.85C7.06345 178.516 14.4388 178.187 15.104 173.788C15.0255 174.195 14.0628 181.328 16.0915 184.057C18.5004 187.296 23.0577 187.869 25.0534 180.903C25.0096 181.165 24.982 181.431 24.9708 181.698M122.416 149.706L138.402 160.614C135.477 167.983 132.976 175.554 130.915 183.28C128.023 176.601 125.395 170.213 124.837 168.862C122.145 162.561 118.767 156.657 114.78 151.284L122.416 149.706ZM209.697 273.215C209.668 270.065 209.659 267.229 209.697 264.888L211.349 265.032L209.697 273.215Z" fill="white"/>
<path d="M180.675 43.8823C180.649 42.2082 180.182 40.5801 179.332 39.2023C178.482 37.8245 177.288 36.7584 175.899 36.1379C174.51 35.5173 172.988 35.37 171.524 35.7144C170.061 36.0588 168.721 36.8796 167.673 38.0737C166.624 39.2678 165.914 40.782 165.632 42.4262C165.35 44.0704 165.508 45.7713 166.086 47.3154C166.664 48.8595 167.637 50.1781 168.882 51.1054C170.127 52.0327 171.589 52.5276 173.085 52.5278C175.115 52.5059 177.054 51.5832 178.477 49.9624C179.9 48.3415 180.69 46.1549 180.675 43.8823ZM173.085 50.6313C171.887 50.6607 170.709 50.29 169.7 49.5665C168.692 48.843 167.898 47.7996 167.422 46.5692C166.945 45.3389 166.807 43.9775 167.024 42.6587C167.242 41.3399 167.805 40.1235 168.643 39.1648C169.48 38.2061 170.554 37.5484 171.727 37.2758C172.9 37.0032 174.118 37.1279 175.228 37.6341C176.337 38.1402 177.286 39.0049 177.955 40.1178C178.623 41.2306 178.98 42.5412 178.981 43.8823C178.988 44.7601 178.841 45.631 178.548 46.4452C178.255 47.2594 177.822 48.0011 177.273 48.6278C176.724 49.2545 176.07 49.754 175.349 50.0978C174.627 50.4415 173.852 50.6228 173.068 50.6313H173.085Z" fill="black"/>
<path d="M73.7637 296.681C73.2885 301.691 73.2307 308.574 73.2307 314.005V314.685C73.2307 317.891 73.2307 319.505 74.1686 320.504C74.776 321.147 75.623 321.346 76.9246 321.346C77.3378 321.346 77.7757 321.346 78.2674 321.3C78.9946 321.254 80.0152 321.249 81.0936 321.244C82.4848 321.276 83.8765 321.224 85.2626 321.087C88.3821 320.624 89.2498 319.866 89.4771 317.451C89.4771 317.322 89.7704 298.758 89.539 297.315C88.8945 293.314 86.8079 293.369 82.6554 293.476L81.4489 293.503C80.7589 293.503 80.0854 293.503 79.4285 293.457C76.9287 293.323 74.0736 293.198 73.7637 296.681Z" fill="black"/>
<path d="M85.1386 325.542C84.4858 325.542 83.7462 325.542 82.9405 325.477C78.1062 325.153 75.3586 325.653 74.0364 327.101C73.6771 327.525 73.4047 328.032 73.2377 328.587C73.0708 329.141 73.0134 329.729 73.0695 330.311C73.1976 334.012 73.1191 341.043 73.0695 345.706C73.0447 348.074 73.0241 349.795 73.0406 350.331C73.041 350.577 73.085 350.82 73.1701 351.046C73.2553 351.273 73.3798 351.478 73.5364 351.65C74.5115 352.741 76.6849 352.732 79.697 352.723C80.4614 352.723 81.2506 352.723 82.0356 352.723H82.0893C82.5562 352.723 83.0396 352.723 83.5272 352.723C86.6137 352.723 89.8448 352.26 90.1381 348.333C90.4645 343.92 90.4067 334.456 90.2249 329.908C90.0472 325.565 87.7706 325.551 85.1386 325.542Z" fill="black"/>
<path d="M85.1547 88.0215C87.6668 95.3533 89.9435 101.996 96.1123 109.73L40.8491 121.188L39.9855 121.364L40.9565 126.254C30.3955 128.141 20.0577 133.192 12.4469 140.251C9.54243 142.902 6.98466 145.996 4.84844 149.443L4.398 150.724L3.21638 153L2.11328 155.091L1.48926 156.89C0.619565 159.686 0.217574 162.637 0.30343 165.596C0.423253 169.199 2.61312 170.064 4.05926 170.638C5.25749 171.101 5.61283 171.336 5.66241 171.929C5.99296 175.935 8.57536 177.826 10.9842 177.942C12.0314 177.999 13.0703 177.709 13.9715 177.109C13.8972 179.631 14.1037 182.882 15.4342 184.673C15.9869 185.467 16.6883 186.117 17.4892 186.576C18.2902 187.034 19.1711 187.291 20.0701 187.328C20.412 187.328 20.7528 187.286 21.0865 187.203C22.293 186.907 24.392 185.783 25.6977 181.708H25.8134C25.8191 181.527 25.837 181.348 25.8671 181.171C25.9373 180.912 26.0117 180.644 26.0778 180.361H25.9993C26.6149 176.823 28.5899 168.085 29.1932 166.891C30.3749 164.537 32.7548 163.292 34.2877 163.496C34.6439 163.516 34.9854 163.66 35.2642 163.909C35.5429 164.158 35.7448 164.499 35.8413 164.883C35.8413 165.707 35.7173 170.809 32.6433 174.861C30.2303 178.039 30.6435 180.935 31.726 182.452C32.1329 183.011 32.6488 183.458 33.2339 183.758C33.8191 184.059 34.458 184.206 35.1017 184.187C36.0922 184.17 37.0645 183.886 37.9361 183.359C42.5473 180.653 43.9769 176.915 45.4932 172.965C46.4105 170.569 47.3608 168.098 49.1086 165.744L61.8057 163.14C59.0001 170.518 56.6167 178.089 54.6701 185.806C51.6538 197.865 44.2868 248.744 47.5757 258.431L47.7823 259.037H49.5135L48.4434 260.346C37.4486 273.761 30.4616 283.475 32.0896 287.143C32.5028 288.068 33.3498 288.531 34.61 288.531C34.8001 288.531 35.0232 288.531 35.2133 288.498C41.7583 287.83 48.3296 287.535 54.9014 287.615C52.067 288.101 48.5384 289.525 48.2905 294.674C47.774 305.267 47.9393 319.991 48.1004 334.234C48.1665 340.316 48.2327 346.062 48.2409 351.238V351.701C48.2409 355.73 48.2409 358.639 53.4553 358.852C55.8228 358.949 58.7234 359 61.909 359C67.1193 359 73.1021 358.87 78.7751 358.625C92.5878 358.033 94.6 357.335 94.9926 356.59C95.0326 356.535 95.0685 356.476 95.1 356.414C96.1619 354.365 96.1123 332.693 96.0379 323.474C95.9512 312.182 95.5917 292.416 94.7984 289.937C93.9307 287.245 89.865 286.611 84.6341 286.699C85.3445 285.86 85.99 284.954 86.5636 283.993C87.1545 283.068 88.1213 281.564 88.5717 281.291C88.894 281.569 89.3444 282.934 89.5923 283.683C90.179 285.459 90.7864 287.277 92.1705 287.245C109.45 286.556 109.661 285.64 109.884 284.668C110.132 283.586 111.264 265.101 111.586 259.587H111.97L111.685 246.778L122.696 248.707C121.044 279.108 119.308 319.084 121.304 324.963L121.515 325.574H133.724L133.398 325.898C120.131 339.035 111.603 348.592 113.09 352.533C113.503 353.625 114.528 354.175 116.143 354.175C116.362 354.175 116.594 354.175 116.833 354.148C126.97 353.306 137.138 353.053 147.297 353.389C148.843 353.444 162.238 353.417 176.043 353.144C177.282 353.116 178.522 351.525 179.993 349.684C180.757 348.717 182.182 346.908 182.682 346.88C183.133 346.88 183.765 348.435 184.145 349.36C184.852 351.104 185.599 352.917 187.103 352.857C208.234 352.177 208.49 351.28 208.758 350.336C209.118 349.064 210.981 323.812 210.973 323.65L210.944 322.993C211.08 321.069 211.126 317.567 211.076 311.118H217.311L222.831 352.515C221.65 353.569 220.232 354.888 219.968 355.225C220.827 355.077 227.938 355.54 227.86 355.225C228.666 355.225 229.694 355.276 230.69 355.304L231.103 355.378V355.318C232.814 355.369 234.322 355.387 234.285 355.239C234.19 354.869 232.496 352.977 231.554 351.886L236.632 313.306H288.189L294.696 351.992C293.738 353.097 292.147 354.878 292.056 355.23C291.965 355.582 299.08 355.087 299.948 355.23C299.63 354.823 297.646 353.005 296.411 351.923L282.507 269.283C286.278 266.93 289.601 263.773 292.287 259.99C299.382 250.104 302.679 236.033 304.968 223.575C310.071 195.821 315.711 154.998 316 145.95C316.413 133.706 306.084 121.859 293.44 120.083C283.602 118.695 252.403 118.334 240.404 119.435C233.711 104.799 226.385 94.1784 218.605 87.8411C211.994 82.4474 205.16 80.4398 199.247 82.1606C199.152 80.2594 199.003 78.4091 198.809 76.6606C198.288 72.0348 197.896 65.3875 197.631 58.9669C198.06 59.0635 198.497 59.1008 198.933 59.0779C201.924 59.0779 204.515 50.4601 207.73 36.5642C208.044 35.2043 208.291 34.1264 208.461 33.4881C210.262 26.628 209.605 17.0203 203.916 12.1355C196.974 6.18209 175.985 -2.80118 168.035 0.843934C160.214 4.43354 159.222 9.69306 159.325 12.5102C159.482 16.8954 162.482 21.0817 166.762 23.0986C165.422 24.8741 164.212 26.7675 163.143 28.7605C162.083 30.7345 161.137 32.7817 160.309 34.8897C159.212 34.216 157.981 33.8628 156.73 33.8628C154.773 33.9005 152.901 34.7683 151.493 36.2909C150.085 37.8136 149.245 39.8777 149.143 42.0666C149.041 44.2554 149.685 46.406 150.945 48.084C152.204 49.7621 153.985 50.8427 155.929 51.1077C155.085 56.2464 154.621 61.4541 154.54 66.6781C154.367 77.2295 166.329 79.0058 170.241 79.5933L170.762 79.6719C171.018 81.4066 171.613 84.0803 172.291 87.1194C173.15 90.9727 174.105 95.2655 174.638 98.8042C170.01 96.8058 162.073 96.0287 147.706 99.0262L133.014 102.07C131.968 101.181 130.985 100.203 130.072 99.1465C128.274 97.088 128.043 94.0119 127.803 90.7507C127.411 85.4681 126.977 79.6488 119.953 76.915C119.879 76.4524 119.804 75.9898 119.742 75.5272L114.234 38.2018L114.201 38.0537C114.156 37.9057 114.115 37.7392 114.065 37.5495C113.619 35.875 112.582 31.9477 108.483 32.4612L90.5715 35.1164C88.3114 35.4124 86.7909 36.1849 85.9232 37.4801C84.5804 39.497 85.0225 42.3789 85.5389 45.714C85.5926 46.0656 85.6505 46.431 85.7042 46.778L87.1669 57.9539C86.3774 58.3034 85.7274 58.9605 85.3365 59.8042C83.9854 62.5797 85.0844 67.4136 86.3364 71.3687C86.0943 71.2519 85.8335 71.1917 85.5699 71.1917C85.3064 71.1917 85.0456 71.2519 84.8035 71.3687C82.3781 72.5482 82.155 79.3342 84.3407 85.6114C84.6175 86.4441 84.8861 87.2351 85.1547 88.0215ZM85.4811 73.1542C85.507 73.1486 85.5337 73.1486 85.5596 73.1542C85.9025 73.1542 86.8694 73.8018 88.2246 76.9566C88.8386 78.775 89.5478 80.5513 90.3484 82.2763C90.7244 83.0904 91.1169 83.9184 91.5301 84.7464C91.6003 84.8852 91.6706 85.0193 91.7367 85.1581L92.6787 87.3554L93.5051 89.3213L93.0382 87.6745C94.0753 89.5942 95.1702 91.4723 96.2486 93.2255L96.8271 94.1506C97.0213 94.4606 97.2196 94.7659 97.4138 95.0758C97.9014 95.8205 98.3807 96.5283 98.8434 97.1852C98.901 97.3718 99.0023 97.5377 99.1367 97.6655C99.2712 97.7933 99.434 97.8782 99.6078 97.9114L99.988 96.0611C100.093 96.1012 100.188 96.1668 100.267 96.2532C100.347 96.3396 100.408 96.4446 100.447 96.5607C100.389 96.3661 100.301 96.1844 100.186 96.0241C99.9012 95.6216 99.6078 95.1914 99.3145 94.752C99.1285 94.4744 98.9385 94.1969 98.7484 93.9055C98.5583 93.614 98.3848 93.3411 98.203 93.0543C95.8971 89.4405 93.8153 85.6539 91.9722 81.7212C91.5259 80.759 91.1128 79.8107 90.7326 78.8948C90.3525 77.9789 90.0385 77.1092 89.7658 76.2766C89.6832 75.9944 89.5551 75.6151 89.3774 75.1202C89.3196 74.949 89.2535 74.764 89.1791 74.5605C88.0304 71.3224 85.3406 63.7639 86.795 60.7664C86.9391 60.4632 87.146 60.2031 87.3983 60.0077C87.6491 59.8253 87.9301 59.7011 88.2246 59.6423H88.266C88.5413 59.5792 88.8266 59.6 89.0923 59.7024C90.1914 60.1373 90.9971 62.0153 91.9144 64.5225C92.3275 66.9742 96.0462 73.8527 99.988 80.9533C100.509 81.8784 101 82.7712 101.07 82.9239C101.021 82.8019 100.995 82.6693 100.996 82.5353H102.69C102.69 82.2161 102.69 82.2161 101.426 79.9495C99.9136 77.2341 96.5792 71.2438 94.7736 67.3304C94.7703 67.171 94.7394 67.0139 94.6827 66.8678C93.1663 62.8803 92.7449 59.4665 93.6373 58.4211C94.3067 57.6208 95.8809 58.0186 97.0833 58.4951C98.0253 58.9207 100.967 64.4531 103.331 68.8939C106.479 74.8149 110.049 81.5222 112.958 84.8389C113.121 85.0383 113.276 85.2467 113.421 85.4634C113.871 86.1018 114.429 86.8928 115.164 87.249C115.243 87.3121 115.333 87.3541 115.428 87.3718C115.524 87.3895 115.621 87.3822 115.714 87.3507L119.06 86.7818L116.024 85.579C114.577 84.071 110.508 78.5386 110.908 77.4146C111.092 77.3284 111.294 77.2996 111.491 77.3313C113.843 77.3899 116.182 77.7579 118.457 78.4276C118.775 78.5294 119.085 78.6358 119.379 78.7468C119.672 78.8578 120.019 79.0151 120.317 79.1585C125.411 81.624 125.754 86.1989 126.101 90.9681C126.357 94.4189 126.622 97.99 128.849 100.534C129.547 101.33 130.192 102.005 130.803 102.588C131.097 102.87 131.382 103.129 131.658 103.374C131.935 103.62 132.286 103.906 132.592 104.147C133.666 104.993 134.679 105.636 135.765 106.33C136.716 106.932 137.691 107.552 138.815 108.38L125.663 137.207L108.024 119.417L107.975 119.37C104.978 116.806 102.135 114.025 99.4632 111.044L98.7525 110.225C98.5212 109.948 98.2857 109.675 98.0625 109.402C91.5466 101.506 89.2576 94.826 86.7206 87.4248C86.4521 86.6384 86.1835 85.8474 85.8943 85.0471C83.7292 78.6635 84.5473 73.5983 85.4811 73.145V73.1542ZM89.7121 44.1737C89.1047 44.2153 88.5717 43.489 88.5221 42.55C88.4725 41.611 88.9353 40.8107 89.522 40.7645C90.1087 40.7182 90.6583 41.4491 90.712 42.3881C90.7657 43.3271 90.3153 44.1181 89.7121 44.1644V44.1737ZM175.1 101.103C175.585 101.375 176.051 101.684 176.497 102.028C177.258 102.616 177.943 103.32 178.53 104.119C179.027 104.82 179.474 105.564 179.864 106.344C180.625 107.774 181.34 109.12 182.914 109.12C183.327 109.12 183.682 109.12 184.017 109.097C184.914 109.019 185.816 109.1 186.69 109.337C186.843 110.91 187.103 112.931 187.492 115.244C187.55 115.596 187.608 115.957 187.67 116.322L187.843 117.363C189.475 126.938 192.305 140.112 194.103 147.287L140.096 106.95C138.782 105.97 137.641 105.239 136.625 104.596C136.084 104.249 135.559 103.916 135.034 103.564L148.029 100.867C163.42 97.6894 171.035 98.8458 175.1 101.103ZM172.361 78.7699C172.274 77.9696 171.745 77.891 170.469 77.7014C166.907 77.174 156.078 75.5596 156.226 66.7058C156.301 61.4596 156.778 56.2302 157.652 51.0753C159.114 50.8428 160.486 50.1474 161.606 49.0712C162.727 47.9949 163.549 46.5825 163.977 45.0004C164.405 43.4182 164.42 41.7322 164.02 40.1409C163.62 38.5496 162.823 37.1193 161.722 36.0184C163.388 31.5491 165.67 27.4002 168.485 23.7231C173.357 24.9258 184.157 28.2008 185.356 29.5793C185.719 31.6979 185.323 35.0377 184.897 38.5672C184.071 45.5059 183.211 52.6758 187.521 54.3781C188.542 54.8374 189.527 55.3945 190.463 56.0434C192.19 57.1582 193.975 58.3008 195.908 58.5043C196.177 65.1377 196.582 72.0579 197.119 76.8826C197.33 78.7884 197.478 80.7544 197.574 82.7435C189.471 86.1434 184.918 96.2276 186.418 107.32C185.613 107.181 184.797 107.138 183.984 107.191C183.662 107.191 183.315 107.191 182.922 107.191C182.364 107.191 182.058 106.728 181.331 105.34C180.455 103.684 179.265 101.469 176.501 99.7386C176.009 95.9038 174.919 90.9912 173.948 86.6337C173.183 83.2615 172.53 80.3288 172.361 78.7699ZM156.722 35.7501C157.74 35.7533 158.738 36.0598 159.614 36.6383C159.864 36.7982 160.102 36.9807 160.325 37.1841C160.57 37.4024 160.8 37.6421 161.011 37.9011C162.035 39.1579 162.601 40.7983 162.598 42.4991C162.605 44.0139 162.156 45.4873 161.323 46.681C160.49 47.8747 159.322 48.7189 158.007 49.077C157.704 49.1521 157.396 49.2016 157.086 49.225C156.962 49.225 156.834 49.225 156.706 49.225C156.577 49.225 156.396 49.225 156.243 49.2019C154.739 48.9966 153.359 48.1654 152.378 46.8734C151.396 45.5815 150.885 43.9234 150.945 42.2287C151.006 40.534 151.633 38.9268 152.704 37.7265C153.774 36.5262 155.208 35.8207 156.722 35.7501ZM240.474 123.844C240.813 124.625 241.156 125.421 241.495 126.217L241.987 127.368C242.148 127.752 242.313 128.136 242.478 128.525C249.176 144.303 256.134 161.9 262.34 177.6C265.546 185.704 268.583 193.397 271.087 199.549H240.735C244.635 187.272 240.702 166.567 237.991 152.32C237.45 149.457 236.946 146.806 236.561 144.53C236.462 143.929 236.367 143.35 236.285 142.8C236.19 142.157 236.103 141.551 236.037 140.996C235.987 140.58 235.946 140.186 235.913 139.826V139.761C234.285 128.853 229.851 120.448 222.741 114.782C214.621 108.306 204.684 106.64 197.396 106.455H196.483H195.59C193.081 106.46 190.575 106.644 188.087 107.006C186.785 97.0834 190.661 88.0862 197.656 84.8019C197.932 84.6724 198.207 84.5521 198.483 84.4411L198.623 84.381C198.85 84.2931 199.082 84.2191 199.313 84.1451C209.655 80.8238 225.666 89.5572 240.47 123.853L240.474 123.844ZM209.291 322.752C209.271 323.122 209.246 323.437 209.217 323.677H122.73C121.18 316.461 122.779 278.77 124.382 249.003L124.432 248.051C124.432 247.736 124.469 247.417 124.486 247.102C125.312 231.809 126.138 218.885 126.498 213.723C127.101 205.031 128.717 195.529 131.138 185.922C131.254 185.459 131.369 184.996 131.489 184.557C131.609 184.118 131.725 183.66 131.844 183.211C133.778 175.984 136.102 168.895 138.802 161.983C138.914 161.692 139.034 161.4 139.149 161.109L139.492 160.235C140.319 158.196 141.17 156.192 142.046 154.221C142.409 153.398 142.779 152.582 143.153 151.774C143.517 150.983 143.885 150.206 144.256 149.433C144.807 148.274 145.375 147.127 145.959 145.992C150.553 137.004 156.33 132.605 163.126 132.952C177.588 133.669 192.975 155.044 198.825 169.269C199.528 170.985 202.821 178.9 206.011 186.259C209.341 193.924 211.118 197.727 212.159 199.605C212.382 199.998 212.572 200.312 212.729 200.53C213.184 201.214 213.444 201.372 213.671 201.399C213.734 201.406 213.798 201.406 213.861 201.399H215.514H238.148H240.049L271.864 201.423C271.875 201.454 271.885 201.487 271.893 201.52C276.516 216.475 274.859 232.161 267.505 242.606C259.034 254.633 243.676 259.661 223.108 257.099H211.126C211.171 255.942 211.126 253.93 210.969 250.215C210.663 242.083 210.097 226.943 212.551 224.08C212.622 223.978 212.711 223.896 212.813 223.838C212.915 223.781 213.028 223.749 213.142 223.747V221.85C212.799 221.855 212.461 221.94 212.149 222.1C211.836 222.259 211.557 222.489 211.328 222.775C208.597 225.962 208.8 237.615 209.262 250.303C209.382 253.481 209.506 256.756 209.382 257.575C209.093 258.116 208.92 259.55 208.87 263.843C208.87 264.144 208.87 264.463 208.87 264.796C208.87 265.129 208.87 265.416 208.87 265.721C208.87 270.689 208.944 278.618 209.151 291.325C209.242 297.149 209.349 303.569 209.399 309.18C209.399 309.823 209.399 310.457 209.399 311.077C209.432 316.304 209.415 320.592 209.287 322.752H209.291ZM116.672 204.443H116.643C115.164 204.443 114.193 207.038 112.925 211.817C112.842 212.131 112.747 212.492 112.718 212.571C111.677 215.448 110.879 228.701 110.024 244.563H109.942L110.223 257.14H51.3811H50.9349H48.9846C46.4766 246.963 53.038 199.364 56.3021 186.319C58.3282 178.277 60.8336 170.395 63.8014 162.728C63.9377 162.376 64.0741 162.029 64.2146 161.682C64.355 161.336 64.4873 160.979 64.6277 160.632C66.673 155.507 68.8918 150.585 71.2387 146.006C75.8333 137.018 81.6096 132.623 88.4023 132.966C97.1081 133.396 106.169 141.32 113.247 150.659L113.871 151.492C114.077 151.774 114.284 152.052 114.487 152.334C118.276 157.525 121.497 163.206 124.081 169.255C124.696 170.744 127.262 176.929 130.026 183.368C127.283 193.79 125.457 204.147 124.8 213.579C124.771 213.958 123.812 228.382 122.796 246.806L111.693 244.859C112.321 233.165 113.255 216.105 114.276 213.283C114.33 213.135 114.396 212.89 114.536 212.358C115.581 208.412 116.218 207.001 116.569 206.516C116.728 206.895 116.85 207.292 116.933 207.7L118.585 207.237C118.416 206.479 117.966 204.471 116.672 204.443ZM42.0225 122.872L97.4717 111.372C100.412 114.767 103.574 117.914 106.929 120.786L124.87 138.905L119.982 149.165L120.102 149.244L115.144 150.266C107.669 140.233 97.922 131.532 88.4891 131.069C81.0063 130.694 74.7136 135.403 69.7802 145.062C67.1486 150.244 64.7627 155.577 62.6321 161.039L50.1209 163.579L42.0225 122.872ZM126.184 140.205L126.684 139.113L140.732 109.689L193.161 148.841C195.342 150.756 210.32 162.349 211.551 163.047C212.006 163.322 212.444 163.631 212.861 163.972C213.886 164.782 215.047 165.693 216.51 165.693V163.796C215.584 163.796 214.737 163.13 213.836 162.409C213.354 162.007 212.846 161.645 212.316 161.326C211.076 160.614 200.945 152.722 196.367 149.082C194.714 142.994 191.438 128.095 189.607 117.465C189.549 117.145 189.5 116.836 189.446 116.539C189.392 116.243 189.339 115.906 189.289 115.614C188.934 113.449 188.653 111.52 188.463 109.957C188.422 109.564 188.38 109.189 188.351 108.847H188.38C190.575 108.557 192.782 108.402 194.991 108.384H195.9H196.834C203.953 108.528 213.865 110.049 221.741 116.331C228.459 121.693 232.657 129.672 234.21 140.043C234.314 141.232 234.516 142.684 234.785 144.327C234.872 144.872 234.971 145.441 235.074 146.029C235.177 146.616 235.268 147.125 235.371 147.699C235.661 149.271 235.979 150.937 236.314 152.722C239.036 167.03 243.019 187.989 238.921 199.549H216.196H214.13C212.477 197.287 204.453 178.437 200.363 168.496C194.338 153.851 178.36 131.828 163.201 131.083C155.892 130.722 149.71 135.209 144.831 144.424L144.488 145.076C144.232 145.58 143.98 146.089 143.723 146.598C143.351 147.347 142.98 148.101 142.616 148.864C141.005 152.232 139.476 155.715 138.038 159.277L124.775 150.229L123.688 149.489L122.601 148.744L122.225 148.49L126.163 140.228L126.184 140.205ZM137.34 160.989C134.82 167.414 132.623 173.991 130.758 180.69C128.861 176.249 127.014 171.841 125.626 168.459C123.108 162.565 119.989 157.016 116.333 151.922L122.267 150.705L137.34 160.989ZM3.68334 155.419L3.86506 155.338V155.419L6.01205 151.5L18.719 153.833L17.4794 157.996L10.4223 156.663L8.72824 156.344L3.86506 155.419L2.11328 155.091L3.68334 155.419ZM4.63359 168.862C3.20811 168.302 2.08425 167.853 2.00574 165.536C1.92752 162.699 2.33857 159.872 3.21638 157.209L8.20762 158.134C7.23203 161.852 6.46477 165.634 5.91033 169.458C5.49548 169.225 5.06602 169.025 4.62533 168.862H4.63359ZM11.0586 176.046C9.44304 175.981 7.62917 174.829 7.3606 171.813C7.38126 170.481 8.439 163.921 9.89754 158.486L17.3927 159.902C15.5995 165.203 14.2979 170.791 14.2649 173.682C13.9839 175.31 12.4469 176.11 11.0503 176.046H11.0586ZM48.3483 163.81C46.0882 166.586 44.9974 169.435 43.9438 172.188C42.4894 175.981 41.2333 179.256 37.1552 181.647C35.3042 182.739 33.763 182.23 33.0564 181.24C32.3499 180.25 32.2012 178.358 33.9407 176.064C37.7213 171.087 37.5519 164.93 37.5395 164.671V164.555L37.5147 164.444C37.3359 163.677 36.9498 162.991 36.4091 162.479C35.8684 161.967 35.1996 161.655 34.4943 161.585C32.0855 161.275 29.1229 163.181 27.7264 165.938C26.9744 167.437 24.7763 177.179 24.2474 180.653C23.4706 183.322 22.2393 184.983 20.7353 185.353C19.3884 185.686 17.8431 184.955 16.7481 183.461C15.1491 181.305 15.7276 175.361 15.9218 174.126C15.9218 174.07 15.9424 174.015 15.9507 173.955L15.2276 173.797H15.9631C15.9631 168.709 20.8965 152.681 24.4498 149.41L23.3756 147.944C22.4542 148.79 21.4791 150.317 20.5163 152.232L12.0667 150.724H12.0121C11 150.5 11.1495 150.571 11.1495 150.571L6.78627 149.79C13.4757 139.349 26.4868 130.722 41.3408 128.113L48.4682 163.921L48.3483 163.81ZM53.5255 356.955C49.9432 356.812 49.9432 355.73 49.9432 351.701V351.238C49.9432 346.052 49.8689 340.303 49.8027 334.215C49.6416 320.005 49.4763 305.308 49.9887 294.78C50.187 290.682 52.881 289.627 57.1615 289.257C59.2977 289.077 61.8759 289.021 64.5203 289.021C66.173 289.021 67.8258 289.044 69.4455 289.063C67.2102 291.662 67.2762 296.515 67.3341 300.655C67.3341 301.316 67.3341 301.969 67.3341 302.598C67.3341 304.328 67.3341 342.842 67.2845 344.79C67.173 351.96 67.235 355.359 67.9002 357.034C62.7271 357.14 57.6243 357.127 53.5173 356.955H53.5255ZM93.1911 290.58C93.7034 292.181 94.1951 306.183 94.3315 323.159C94.4802 341.7 94.129 352.982 93.691 355.188L93.5382 355.221L93.501 355.443C91.6003 356.067 81.6013 356.719 71.1312 356.983C70.8833 356.928 70.652 356.881 70.4454 356.849C69.5612 356.696 69.4661 356.682 69.2637 355.679C68.9579 354.194 68.8753 351.155 68.9744 344.845C69.0075 342.814 69.0282 303.005 69.0282 302.616C69.0282 301.978 69.0282 301.316 69.0282 300.641C68.9373 294.072 69.2058 289.4 73.536 289.132H74.4987C75.3788 289.132 76.6886 289.035 78.2173 288.924C82.7995 288.582 92.3317 287.855 93.2035 290.58H93.1911ZM211.056 309.222C211.014 304.675 210.932 298.842 210.812 291.334C210.721 285.866 210.626 279.876 210.572 274.519C211.047 274.612 211.671 274.7 212.485 274.778L217.055 309.222H211.056ZM229.802 352.015C229.008 352.709 227.967 353.657 227.228 354.36C226.265 353.158 224.468 351.206 224.476 351.094C224.425 351.117 224.378 351.148 224.335 351.187L214.229 274.903C217.179 275.088 221.815 275.195 229.141 275.195C232.231 275.195 235.809 275.195 239.933 275.134L229.802 352.015ZM287.846 311.391H236.88L241.652 275.121C245.602 275.079 250.031 275.019 255.002 274.936C257.712 274.889 259.671 274.857 260.448 274.857C268.451 274.857 275.244 273.321 280.933 270.199L287.846 311.391ZM293.217 121.961C305.034 123.622 314.703 134.571 314.289 145.872C313.975 154.855 308.377 195.492 303.286 223.187C301.039 235.422 297.816 249.225 290.949 258.805C288.304 262.522 285.013 265.6 281.276 267.854L280.549 268.006L280.59 268.256C275.041 271.415 268.356 272.97 260.431 272.97C259.642 272.97 257.679 273.002 254.96 273.048C251.754 273.099 246.548 273.187 240.801 273.243L240.185 273.145V273.252C227.852 273.372 213.287 273.358 210.572 272.637C210.552 270.18 210.539 267.904 210.547 265.92L211.374 265.989H211.44C213.436 265.989 216.609 266.026 220.282 266.063C225.294 266.119 231.215 266.184 236.301 266.184C238.053 266.184 239.706 266.184 241.189 266.156C253.998 265.999 261.257 264.884 267.872 258.958L270.29 256.798C272.016 255.365 273.615 253.748 275.062 251.969C275.57 251.381 276.194 250.659 276.991 249.753C289.036 235.996 300.101 186.87 303.737 170.726C306.162 159.962 308.501 144.447 300.844 134.02C297.737 129.783 293.461 128.058 286.16 126.189C280.032 124.616 253.609 124.408 242.949 125.217C242.635 124.487 242.325 123.756 242.011 123.034C241.755 122.442 241.499 121.854 241.239 121.272C253.597 120.24 283.635 120.615 293.217 121.961Z" fill="black"/>
</svg>
