<svg width="333" height="394" viewBox="0 0 333 394" fill="none" xmlns="http://www.w3.org/2000/svg">
<g filter="url(#filter0_d_121_8)">
<rect width="97.2696" height="172.22" rx="10" fill="#BF7FFF"/>
</g>
<path d="M43.3674 98V75.6H45.7354V95.952H58.2794V98H43.3674ZM41.2234 89.712L40.1674 88.368L49.5114 81.328L50.5994 82.704L41.2234 89.712Z" fill="black"/>
<g filter="url(#filter1_d_121_8)">
<rect x="110.62" y="121.192" width="123.971" height="78.3645" rx="10" fill="#FF78E1"/>
</g>
<path d="M162.948 171V148.6H164.9L180.356 168.056H179.332V148.6H181.668V171H179.716L164.292 151.544H165.316V171H162.948ZM174.468 146.584C173.977 146.584 173.54 146.477 173.156 146.264C172.772 146.051 172.42 145.805 172.1 145.528C171.801 145.229 171.503 144.973 171.204 144.76C170.905 144.525 170.596 144.408 170.276 144.408C169.785 144.408 169.391 144.589 169.092 144.952C168.815 145.315 168.655 145.816 168.612 146.456H167.236C167.279 145.389 167.556 144.536 168.068 143.896C168.601 143.256 169.284 142.936 170.116 142.936C170.607 142.936 171.044 143.053 171.428 143.288C171.833 143.501 172.185 143.757 172.484 144.056C172.804 144.333 173.103 144.579 173.38 144.792C173.679 145.005 173.988 145.112 174.308 145.112C174.799 145.112 175.193 144.941 175.492 144.6C175.791 144.237 175.951 143.747 175.972 143.128H177.348C177.327 144.152 177.049 144.984 176.516 145.624C175.983 146.264 175.3 146.584 174.468 146.584Z" fill="black"/>
<g filter="url(#filter2_d_121_8)">
<rect x="110.62" width="123.971" height="108.435" rx="10" fill="#E7FF53"/>
</g>
<path d="M171.33 40.688C171.202 41.072 171.074 41.648 170.978 42.096C170.434 44.784 169.89 49.84 169.89 54.224C169.89 58.384 170.786 62.224 171.778 65.232L169.442 65.936C168.514 63.088 167.65 58.544 167.65 54.48C167.65 50.096 168.29 44.912 168.578 42.16C168.642 41.584 168.674 41.008 168.674 40.592L171.33 40.688ZM166.178 44.624C171.81 44.624 177.378 44.176 181.794 43.184L181.826 45.552C177.218 46.352 170.914 46.832 166.146 46.832C164.77 46.832 162.274 46.704 160.962 46.64L160.898 44.24C162.018 44.432 164.802 44.624 166.178 44.624ZM179.522 48.4C179.33 48.816 179.042 49.68 178.85 50.192C176.962 56.112 173.762 60.56 170.402 63.152C168.354 64.72 165.794 65.904 163.522 65.904C161.41 65.904 159.746 64.624 159.746 61.904C159.746 57.52 163.81 53.008 168.546 51.184C170.69 50.352 173.282 49.872 175.362 49.872C181.41 49.872 185.218 53.392 185.218 57.872C185.218 62.448 182.178 66.448 174.754 67.632L173.378 65.488C179.138 64.848 182.722 61.872 182.722 57.744C182.722 54.64 180.098 51.92 175.33 51.92C172.642 51.92 170.274 52.688 168.642 53.424C165.026 55.024 162.146 58.544 162.146 61.488C162.146 62.8 162.786 63.44 163.97 63.44C165.57 63.44 167.65 62.544 169.698 60.752C172.546 58.256 175.17 54.8 176.642 49.616C176.77 49.136 176.93 48.272 176.962 47.76L179.522 48.4Z" fill="black"/>
<g filter="url(#filter3_d_121_8)">
<rect x="247.942" width="81.058" height="199.556" rx="10" fill="#B2FF53"/>
</g>
<path d="M283.547 99.616H295.387V101.632H283.547V99.616ZM283.803 109.952H297.275V112H281.435V89.6H296.795V91.648H283.803V109.952ZM289.563 118.08C289.2 118.08 288.88 117.952 288.603 117.696C288.325 117.44 288.187 117.109 288.187 116.704C288.187 116.299 288.325 115.968 288.603 115.712C288.88 115.456 289.2 115.328 289.563 115.328C289.947 115.328 290.267 115.456 290.523 115.712C290.8 115.968 290.939 116.299 290.939 116.704C290.939 117.109 290.8 117.44 290.523 117.696C290.267 117.952 289.947 118.08 289.563 118.08Z" fill="black"/>
<g filter="url(#filter4_d_121_8)">
<rect y="184.977" width="97.2696" height="117.547" rx="10" fill="#B2FF53"/>
</g>
<path d="M54.7376 229.536H57.4256V258.496H54.7376V229.536ZM56.6896 241.28H62.0336V243.488H56.6896V241.28ZM47.3456 232.672H49.9376C49.9376 240.896 46.1616 248.32 36.8176 253.024L35.3456 250.976C43.3456 246.912 47.3456 240.736 47.3456 233.088V232.672ZM36.6896 232.672H48.7216V234.848H36.6896V232.672Z" fill="black"/>
<g filter="url(#filter5_d_121_8)">
<rect x="110.62" y="212.313" width="78.1971" height="177.687" rx="10" fill="#E7FF53"/>
</g>
<path d="M140.394 290.696C140.234 291.432 140.138 292.968 140.106 293.8C140.074 295.784 140.106 298.728 140.33 301.352C140.874 306.696 142.41 310.248 144.714 310.248C146.346 310.248 147.85 306.952 148.682 303.752L150.698 306.024C148.746 311.432 146.826 313.288 144.65 313.288C141.61 313.288 138.73 310.28 137.834 301.992C137.546 299.24 137.482 295.336 137.482 293.48C137.482 292.744 137.482 291.368 137.29 290.632L140.394 290.696ZM157.034 291.56C159.914 295.272 162.218 302.088 162.698 307.496L160.106 308.52C159.562 302.76 157.61 296.168 154.57 292.424L157.034 291.56Z" fill="black"/>
<g filter="url(#filter6_d_121_8)">
<rect x="202.168" y="212.313" width="126.832" height="177.687" rx="10" fill="#BF7FFF"/>
</g>
<path d="M261.847 313.672L262.679 311.048C265.175 311.048 267.319 310.984 269.111 310.856C270.925 310.728 272.407 310.525 273.559 310.248C274.733 309.949 275.597 309.555 276.151 309.064C276.727 308.552 277.015 307.933 277.015 307.208C277.015 306.397 276.866 305.459 276.567 304.392C276.269 303.325 275.885 302.184 275.415 300.968L277.879 300.104C278.157 300.787 278.413 301.523 278.647 302.312C278.903 303.08 279.117 303.848 279.287 304.616C279.458 305.363 279.543 306.056 279.543 306.696C279.543 307.955 279.255 309.032 278.679 309.928C278.103 310.803 277.143 311.517 275.799 312.072C274.455 312.627 272.642 313.032 270.359 313.288C268.098 313.544 265.261 313.672 261.847 313.672ZM261.847 313.672C259.949 313.672 258.274 313.544 256.823 313.288C255.394 313.053 254.199 312.68 253.239 312.168C252.279 311.656 251.554 310.995 251.063 310.184C250.573 309.352 250.327 308.349 250.327 307.176C250.327 306.643 250.37 306.099 250.455 305.544C250.541 304.968 250.647 304.392 250.775 303.816C250.925 303.24 251.074 302.685 251.223 302.152L253.623 302.76C253.538 303.08 253.442 303.464 253.335 303.912C253.229 304.339 253.133 304.776 253.047 305.224C252.983 305.672 252.951 306.077 252.951 306.44C252.951 307.549 253.229 308.445 253.783 309.128C254.359 309.789 255.351 310.28 256.759 310.6C258.167 310.899 260.141 311.048 262.679 311.048L263.319 312.648L261.847 313.672ZM264.919 319.752C264.471 319.752 264.087 319.592 263.767 319.272C263.469 318.973 263.319 318.611 263.319 318.184C263.319 317.757 263.469 317.384 263.767 317.064C264.087 316.744 264.471 316.584 264.919 316.584C265.346 316.584 265.709 316.744 266.007 317.064C266.327 317.384 266.487 317.757 266.487 318.184C266.487 318.611 266.327 318.973 266.007 319.272C265.709 319.592 265.346 319.752 264.919 319.752Z" fill="black"/>
<g filter="url(#filter7_d_121_8)">
<rect y="315.28" width="97.2696" height="74.7196" rx="10" fill="#FF78E1"/>
</g>
<path d="M37.5619 365L47.8019 342.6H50.1379L60.3779 365H57.8819L48.4739 343.976H49.4339L40.0259 365H37.5619ZM41.5939 359.016L42.2979 357.096H55.3219L56.0259 359.016H41.5939Z" fill="black"/>
<defs>
<filter id="filter0_d_121_8" x="0" y="0" width="101.27" height="176.22" filterUnits="userSpaceOnUse" color-interpolation-filters="sRGB">
<feFlood flood-opacity="0" result="BackgroundImageFix"/>
<feColorMatrix in="SourceAlpha" type="matrix" values="0 0 0 0 0 0 0 0 0 0 0 0 0 0 0 0 0 0 127 0" result="hardAlpha"/>
<feOffset dx="4" dy="4"/>
<feComposite in2="hardAlpha" operator="out"/>
<feColorMatrix type="matrix" values="0 0 0 0 0.56468 0 0 0 0 0.381026 0 0 0 0 0.748333 0 0 0 1 0"/>
<feBlend mode="normal" in2="BackgroundImageFix" result="effect1_dropShadow_121_8"/>
<feBlend mode="normal" in="SourceGraphic" in2="effect1_dropShadow_121_8" result="shape"/>
</filter>
<filter id="filter1_d_121_8" x="110.62" y="121.192" width="127.971" height="82.3645" filterUnits="userSpaceOnUse" color-interpolation-filters="sRGB">
<feFlood flood-opacity="0" result="BackgroundImageFix"/>
<feColorMatrix in="SourceAlpha" type="matrix" values="0 0 0 0 0 0 0 0 0 0 0 0 0 0 0 0 0 0 127 0" result="hardAlpha"/>
<feOffset dx="4" dy="4"/>
<feComposite in2="hardAlpha" operator="out"/>
<feColorMatrix type="matrix" values="0 0 0 0 0.603922 0 0 0 0 0.317647 0 0 0 0 0.470588 0 0 0 1 0"/>
<feBlend mode="normal" in2="BackgroundImageFix" result="effect1_dropShadow_121_8"/>
<feBlend mode="normal" in="SourceGraphic" in2="effect1_dropShadow_121_8" result="shape"/>
</filter>
<filter id="filter2_d_121_8" x="110.62" y="0" width="127.971" height="112.435" filterUnits="userSpaceOnUse" color-interpolation-filters="sRGB">
<feFlood flood-opacity="0" result="BackgroundImageFix"/>
<feColorMatrix in="SourceAlpha" type="matrix" values="0 0 0 0 0 0 0 0 0 0 0 0 0 0 0 0 0 0 127 0" result="hardAlpha"/>
<feOffset dx="4" dy="4"/>
<feComposite in2="hardAlpha" operator="out"/>
<feColorMatrix type="matrix" values="0 0 0 0 0.682353 0 0 0 0 0.756863 0 0 0 0 0.239216 0 0 0 1 0"/>
<feBlend mode="normal" in2="BackgroundImageFix" result="effect1_dropShadow_121_8"/>
<feBlend mode="normal" in="SourceGraphic" in2="effect1_dropShadow_121_8" result="shape"/>
</filter>
<filter id="filter3_d_121_8" x="247.942" y="0" width="85.0579" height="203.556" filterUnits="userSpaceOnUse" color-interpolation-filters="sRGB">
<feFlood flood-opacity="0" result="BackgroundImageFix"/>
<feColorMatrix in="SourceAlpha" type="matrix" values="0 0 0 0 0 0 0 0 0 0 0 0 0 0 0 0 0 0 127 0" result="hardAlpha"/>
<feOffset dx="4" dy="4"/>
<feComposite in2="hardAlpha" operator="out"/>
<feColorMatrix type="matrix" values="0 0 0 0 0.482353 0 0 0 0 0.694118 0 0 0 0 0.215686 0 0 0 1 0"/>
<feBlend mode="normal" in2="BackgroundImageFix" result="effect1_dropShadow_121_8"/>
<feBlend mode="normal" in="SourceGraphic" in2="effect1_dropShadow_121_8" result="shape"/>
</filter>
<filter id="filter4_d_121_8" x="0" y="184.977" width="101.27" height="121.547" filterUnits="userSpaceOnUse" color-interpolation-filters="sRGB">
<feFlood flood-opacity="0" result="BackgroundImageFix"/>
<feColorMatrix in="SourceAlpha" type="matrix" values="0 0 0 0 0 0 0 0 0 0 0 0 0 0 0 0 0 0 127 0" result="hardAlpha"/>
<feOffset dx="4" dy="4"/>
<feComposite in2="hardAlpha" operator="out"/>
<feColorMatrix type="matrix" values="0 0 0 0 0.482353 0 0 0 0 0.694118 0 0 0 0 0.215686 0 0 0 1 0"/>
<feBlend mode="normal" in2="BackgroundImageFix" result="effect1_dropShadow_121_8"/>
<feBlend mode="normal" in="SourceGraphic" in2="effect1_dropShadow_121_8" result="shape"/>
</filter>
<filter id="filter5_d_121_8" x="110.62" y="212.313" width="82.197" height="181.687" filterUnits="userSpaceOnUse" color-interpolation-filters="sRGB">
<feFlood flood-opacity="0" result="BackgroundImageFix"/>
<feColorMatrix in="SourceAlpha" type="matrix" values="0 0 0 0 0 0 0 0 0 0 0 0 0 0 0 0 0 0 127 0" result="hardAlpha"/>
<feOffset dx="4" dy="4"/>
<feComposite in2="hardAlpha" operator="out"/>
<feColorMatrix type="matrix" values="0 0 0 0 0.682353 0 0 0 0 0.756863 0 0 0 0 0.239216 0 0 0 1 0"/>
<feBlend mode="normal" in2="BackgroundImageFix" result="effect1_dropShadow_121_8"/>
<feBlend mode="normal" in="SourceGraphic" in2="effect1_dropShadow_121_8" result="shape"/>
</filter>
<filter id="filter6_d_121_8" x="202.168" y="212.313" width="130.832" height="181.687" filterUnits="userSpaceOnUse" color-interpolation-filters="sRGB">
<feFlood flood-opacity="0" result="BackgroundImageFix"/>
<feColorMatrix in="SourceAlpha" type="matrix" values="0 0 0 0 0 0 0 0 0 0 0 0 0 0 0 0 0 0 127 0" result="hardAlpha"/>
<feOffset dx="4" dy="4"/>
<feComposite in2="hardAlpha" operator="out"/>
<feColorMatrix type="matrix" values="0 0 0 0 0.56468 0 0 0 0 0.381026 0 0 0 0 0.748333 0 0 0 1 0"/>
<feBlend mode="normal" in2="BackgroundImageFix" result="effect1_dropShadow_121_8"/>
<feBlend mode="normal" in="SourceGraphic" in2="effect1_dropShadow_121_8" result="shape"/>
</filter>
<filter id="filter7_d_121_8" x="0" y="315.28" width="101.27" height="78.7196" filterUnits="userSpaceOnUse" color-interpolation-filters="sRGB">
<feFlood flood-opacity="0" result="BackgroundImageFix"/>
<feColorMatrix in="SourceAlpha" type="matrix" values="0 0 0 0 0 0 0 0 0 0 0 0 0 0 0 0 0 0 127 0" result="hardAlpha"/>
<feOffset dx="4" dy="4"/>
<feComposite in2="hardAlpha" operator="out"/>
<feColorMatrix type="matrix" values="0 0 0 0 0.603922 0 0 0 0 0.317647 0 0 0 0 0.470588 0 0 0 1 0"/>
<feBlend mode="normal" in2="BackgroundImageFix" result="effect1_dropShadow_121_8"/>
<feBlend mode="normal" in="SourceGraphic" in2="effect1_dropShadow_121_8" result="shape"/>
</filter>
</defs>
</svg>
