<svg width="340" height="403" viewBox="0 0 340 403" fill="none" xmlns="http://www.w3.org/2000/svg">
<path d="M177.227 357.883L72.4992 397.027C62.3739 400.822 51.1716 396.562 47.457 387.596C47.1235 386.767 46.8339 385.891 46.6345 384.996L3.81994 192.746C1.71505 183.295 8.54469 173.691 19.1385 171.332C20.1374 171.109 21.109 170.978 22.1349 170.876L133.577 161.884C143.185 161.109 151.646 166.756 153.533 175.231L189.64 337.364C191.52 345.804 186.254 354.502 177.227 357.883Z" fill="#EC6FF7"/>
<path d="M159.418 308.773L133.175 316.455" stroke="white" stroke-width="4" stroke-linecap="round" stroke-linejoin="round"/>
<path d="M102.348 325.63L59.0986 338.767" stroke="white" stroke-width="4" stroke-linecap="round" stroke-linejoin="round"/>
<path d="M148.563 312.088L88.8807 218.239L69.8717 335.513" stroke="white" stroke-width="4" stroke-linecap="round" stroke-linejoin="round"/>
<path d="M101.155 237.577L85.7643 330.646" stroke="white" stroke-width="4" stroke-linecap="round" stroke-linejoin="round"/>
<path d="M126.841 277.96L93.1296 286.365" stroke="white" stroke-width="4" stroke-linecap="round" stroke-linejoin="round"/>
<path d="M264.074 21.3365L168 39.3003L204.502 234.519L339.812 209.219L311.894 59.9094L264.074 21.3365Z" fill="#61D163"/>
<path opacity="0.3" d="M283.825 77.0526L311.888 59.9104L269.296 35.0571L283.825 77.0526Z" fill="#3B3B3B"/>
<path d="M272.658 67.246L311.894 59.9096L264.074 21.3367L272.658 67.246Z" fill="#CECECE"/>
<path opacity="0.3" d="M234.05 110.43L205.084 115.846L211.421 149.739L240.388 144.323L234.05 110.43Z" fill="#61D163"/>
<path opacity="0.3" d="M223.926 56.2844L194.96 61.7004L201.297 95.5928L230.263 90.1767L223.926 56.2844Z" fill="#61D163"/>
<path opacity="0.3" d="M244.174 164.576L215.208 169.992L221.547 203.891L250.513 198.475L244.174 164.576Z" fill="#61D163"/>
<path d="M234.05 110.43L205.084 115.846L211.421 149.739L240.388 144.323L234.05 110.43Z" stroke="#3B3B3B" stroke-width="4" stroke-linecap="round" stroke-linejoin="round"/>
<path d="M229.94 120.304L223.183 139.374L214.362 131.787" stroke="#3B3B3B" stroke-width="4" stroke-linecap="round" stroke-linejoin="round"/>
<path d="M223.926 56.2844L194.96 61.7004L201.297 95.5928L230.263 90.1767L223.926 56.2844Z" stroke="#3B3B3B" stroke-width="4" stroke-linecap="round" stroke-linejoin="round"/>
<path d="M244.174 164.576L215.208 169.992L221.547 203.891L250.513 198.475L244.174 164.576Z" stroke="#3B3B3B" stroke-width="4" stroke-linecap="round" stroke-linejoin="round"/>
<path d="M249.98 300.49L232.78 328.02L262.06 308.99L272.58 330.88L272.75 303.84L304.8 294.11L272.72 291.16L288.77 261.42L262.31 286.37L249.93 259L252.44 290.51L223 286.37L249.98 300.49Z" stroke="black" stroke-width="4" stroke-linecap="round" stroke-linejoin="round"/>
<path d="M124.788 78.317L137.59 0L63.8175 13.5922L80.9314 31.7631L50 64.605L76.7432 93L107.675 60.1582L124.788 78.317Z" fill="#F8D94A"/>
</svg>
