<svg width="100" height="13" viewBox="0 0 100 13" fill="none" xmlns="http://www.w3.org/2000/svg">
<path d="M1 5H96C96.5523 5 97 5.44772 97 6C97 6.55228 96.5523 7 96 7H1C0.447715 7 0 6.55228 0 6C0 5.44772 0.447715 5 1 5Z" fill="#1C1B1F"/>
<path d="M95 6L92.45 2.65C92.15 2.35 92 1.98333 92 1.55C92 1.11667 92.15 0.75 92.45 0.45C92.75 0.15 93.1167 0 93.55 0C93.9833 0 94.35 0.15 94.65 0.45L99.225 5.025C99.375 5.175 99.4917 5.35 99.575 5.55C99.6583 5.75 99.7 5.95 99.7 6.15C99.7 6.35 99.6583 6.55 99.575 6.75C99.4917 6.95 99.375 7.125 99.225 7.275L94.65 11.85C94.35 12.15 93.9833 12.3 93.55 12.3C93.1167 12.3 92.75 12.15 92.45 11.85C92.15 11.55 92 11.1833 92 10.75C92 10.3167 92.15 9.95 92.45 9.65L95 6Z" fill="#1C1B1F"/>
</svg>
