<svg width="18" height="18" viewBox="0 0 18 18" fill="none" xmlns="http://www.w3.org/2000/svg">
<path d="M9 8H17.5329C17.5769 8.3847 17.6 8.7792 17.6 9.1837C17.6 11.9184 16.6204 14.2204 14.9224 15.7837C13.4367 17.1551 11.404 17.9592 8.9796 17.9592C5.46933 17.9592 2.43266 15.947 0.9551 13.0123C0.34695 11.8 0 10.4286 0 8.9796C0 7.5306 0.34695 6.1592 0.9551 4.94698C2.43266 2.01226 5.46933 0 8.9796 0C11.4 0 13.4326 0.88983 14.9877 2.33878L13.5255 3.80101C12.3682 2.68153 10.8028 2 9 2C5.13401 2 2 5.13401 2 9C2 12.866 5.13401 16 9 16C12.5265 16 15.1443 13.3923 15.577 10H9V8Z" fill="#FEFEFD"/>
</svg>
